# MagicaVoxel @ Ephtracy

# group
o 

# material
mtllib Cheese.mtl
usemtl palette

# normals
vn -1 0 0
vn 1 0 0
vn 0 0 1
vn 0 0 -1
vn 0 -1 0
vn 0 1 0

# texcoords
vt 0.0214844 0.5
vt 0.0253906 0.5

# verts
v -0.55 -0.35 0.6
v -0.55 -0.35 0.1
v -0.55 -0.35 -0.1
v -0.55 -0.35 -0.6
v -0.55 -0.15 0.5
v -0.55 -0.15 0.3
v -0.55 -0.15 0.1
v -0.55 -0.15 -0.1
v -0.55 -0.15 -0.3
v -0.55 -0.15 -0.5
v -0.55 0.05 0.5
v -0.55 0.05 0.3
v -0.55 0.05 -0.3
v -0.55 0.05 -0.5
v -0.55 0.15 0.2
v -0.55 0.15 0.1
v -0.55 0.25 0.2
v -0.55 0.25 0.1
v -0.55 0.35 0.6
v -0.55 0.35 -0.6
v -0.45 -0.35 0.1
v -0.45 -0.35 -0.1
v -0.45 -0.15 0.5
v -0.45 -0.15 0.3
v -0.45 -0.15 0.1
v -0.45 -0.15 -0.1
v -0.45 -0.15 -0.3
v -0.45 -0.15 -0.5
v -0.45 0.05 0.5
v -0.45 0.05 0.3
v -0.45 0.05 -0.3
v -0.45 0.05 -0.5
v -0.45 0.15 0.2
v -0.45 0.15 0.1
v -0.45 0.25 0.2
v -0.45 0.25 0.1
v -0.35 0.25 0.3
v -0.35 0.25 0.2
v -0.35 0.35 0.3
v -0.35 0.35 0.2
v -0.25 -0.05 -0.4
v -0.25 -0.05 -0.5
v -0.25 0.05 -0.4
v -0.25 0.05 -0.5
v -0.25 0.15 -0.4
v -0.25 0.15 -0.5
v -0.25 0.25 0.2
v -0.25 0.25 0.1
v -0.25 0.25 -0.1
v -0.25 0.25 -0.3
v -0.25 0.25 -0.4
v -0.25 0.25 -0.5
v -0.25 0.35 0.2
v -0.25 0.35 0.1
v -0.25 0.35 -0.1
v -0.25 0.35 -0.3
v -0.15 -0.35 0.1
v -0.15 -0.35 -0.1
v -0.15 -0.15 0.1
v -0.15 -0.15 -0.1
v -0.05 -0.35 0.2
v -0.05 -0.35 0.1
v -0.05 -0.25 0.2
v -0.05 -0.25 0.1
v 0.05 0.25 0.2
v 0.05 0.25 0
v 0.05 0.35 0.2
v 0.05 0.35 0
v 0.15 -0.05 -0.2
v 0.15 -0.05 -0.3
v 0.15 0.05 -0.2
v 0.15 0.05 -0.3
v 0.25 -0.35 0.1
v 0.25 -0.35 0
v 0.25 -0.25 0.1
v 0.25 -0.25 0
v 0.25 0.25 0
v 0.25 0.25 -0.1
v 0.25 0.35 0
v 0.25 0.35 -0.1
v 0.45 -0.05 0
v 0.45 -0.05 -0.1
v 0.45 0.05 0
v 0.45 0.05 -0.1
v -0.45 0.25 0.3
v -0.45 0.25 0.2
v -0.45 0.25 -0.1
v -0.45 0.25 -0.3
v -0.45 0.35 0.3
v -0.45 0.35 0.2
v -0.45 0.35 -0.1
v -0.45 0.35 -0.3
v -0.35 -0.35 0.6
v -0.35 -0.35 0.5
v -0.35 -0.35 0.1
v -0.35 -0.35 -0.1
v -0.35 -0.35 -0.5
v -0.35 -0.35 -0.6
v -0.35 -0.15 0.1
v -0.35 -0.15 -0.1
v -0.35 -0.05 -0.4
v -0.35 -0.05 -0.5
v -0.35 0.05 -0.4
v -0.35 0.05 -0.5
v -0.35 0.15 -0.4
v -0.35 0.15 -0.5
v -0.35 0.25 0.2
v -0.35 0.25 0.1
v -0.35 0.25 -0.4
v -0.35 0.25 -0.5
v -0.35 0.35 0.6
v -0.35 0.35 0.5
v -0.35 0.35 0.2
v -0.35 0.35 0.1
v -0.35 0.35 -0.5
v -0.35 0.35 -0.6
v -0.25 -0.35 -0.4
v -0.25 -0.35 -0.5
v -0.25 -0.25 -0.4
v -0.25 -0.25 -0.5
v -0.25 0.15 0.5
v -0.25 0.15 0.4
v -0.25 0.25 0.5
v -0.25 0.25 0.4
v -0.15 -0.35 0.5
v -0.15 -0.35 0.4
v -0.15 -0.35 0.2
v -0.15 -0.35 0.1
v -0.15 -0.25 0.2
v -0.15 -0.25 0.1
v -0.15 -0.25 -0.4
v -0.15 -0.25 -0.5
v -0.15 0.05 -0.3
v -0.15 0.05 -0.4
v -0.15 0.15 0.5
v -0.15 0.15 0.4
v -0.15 0.25 0.5
v -0.15 0.25 0.4
v -0.15 0.25 0.2
v -0.15 0.25 0
v -0.15 0.25 -0.3
v -0.15 0.25 -0.4
v -0.15 0.35 0.5
v -0.15 0.35 0.4
v -0.15 0.35 0.2
v -0.15 0.35 0
v -0.15 0.35 -0.4
v -0.15 0.35 -0.5
v -0.05 -0.25 0.4
v -0.05 -0.25 0.3
v -0.05 -0.15 0.4
v -0.05 -0.15 0.3
v 0.05 -0.35 0.4
v 0.05 -0.35 0.3
v 0.05 -0.35 -0.3
v 0.05 -0.35 -0.4
v 0.05 -0.25 0.4
v 0.05 -0.25 0.3
v 0.05 -0.15 0.4
v 0.05 -0.15 0.3
v 0.05 -0.05 -0.2
v 0.05 -0.05 -0.3
v 0.05 0.05 -0.2
v 0.05 0.05 -0.3
v 0.05 0.05 -0.4
v 0.05 0.25 -0.3
v 0.05 0.25 -0.4
v 0.05 0.35 0.4
v 0.05 0.35 0.3
v 0.05 0.35 -0.3
v 0.05 0.35 -0.4
v 0.15 -0.35 0.1
v 0.15 -0.35 0
v 0.15 -0.25 0.1
v 0.15 -0.25 0
v 0.15 0.25 0
v 0.15 0.25 -0.1
v 0.15 0.35 0
v 0.15 0.35 -0.1
v 0.25 -0.35 0.3
v 0.25 -0.35 0.2
v 0.25 -0.35 -0.2
v 0.25 -0.35 -0.3
v 0.25 0.35 0.3
v 0.25 0.35 0.2
v 0.25 0.35 -0.2
v 0.25 0.35 -0.3
v 0.35 -0.35 0.2
v 0.35 -0.35 0.1
v 0.35 -0.35 -0.1
v 0.35 -0.35 -0.2
v 0.35 -0.05 0.1
v 0.35 -0.05 0
v 0.35 -0.05 -0.1
v 0.35 0.05 0.1
v 0.35 0.05 0
v 0.35 0.05 -0.1
v 0.35 0.35 0.2
v 0.35 0.35 0.1
v 0.35 0.35 -0.1
v 0.35 0.35 -0.2
v 0.55 -0.35 0.1
v 0.55 -0.35 -0.1
v 0.55 0.35 0.1
v 0.55 0.35 -0.1
v -0.55 -0.35 0.6
v -0.55 0.35 0.6
v -0.35 -0.35 0.6
v -0.35 0.35 0.6
v -0.35 -0.35 0.5
v -0.35 0.35 0.5
v -0.25 0.15 0.5
v -0.25 0.25 0.5
v -0.15 -0.35 0.5
v -0.15 0.15 0.5
v -0.15 0.25 0.5
v -0.15 0.35 0.5
v -0.25 0.15 0.4
v -0.25 0.25 0.4
v -0.15 -0.35 0.4
v -0.15 0.15 0.4
v -0.15 0.25 0.4
v -0.15 0.35 0.4
v -0.05 -0.25 0.4
v -0.05 -0.15 0.4
v 0.05 -0.35 0.4
v 0.05 -0.25 0.4
v 0.05 -0.15 0.4
v 0.05 0.35 0.4
v -0.55 -0.15 0.3
v -0.55 0.05 0.3
v -0.45 -0.15 0.3
v -0.45 0.05 0.3
v -0.05 -0.25 0.3
v -0.05 -0.15 0.3
v 0.05 -0.35 0.3
v 0.05 -0.25 0.3
v 0.05 -0.15 0.3
v 0.05 0.35 0.3
v 0.25 -0.35 0.3
v 0.25 0.35 0.3
v -0.45 0.25 0.2
v -0.45 0.35 0.2
v -0.35 0.25 0.2
v -0.35 0.35 0.2
v 0.25 -0.35 0.2
v 0.25 0.35 0.2
v 0.35 -0.35 0.2
v 0.35 0.35 0.2
v -0.55 0.15 0.1
v -0.55 0.25 0.1
v -0.45 0.15 0.1
v -0.45 0.25 0.1
v -0.35 0.25 0.1
v -0.35 0.35 0.1
v -0.25 0.25 0.1
v -0.25 0.35 0.1
v -0.15 -0.35 0.1
v -0.15 -0.25 0.1
v -0.05 -0.35 0.1
v -0.05 -0.25 0.1
v 0.35 -0.35 0.1
v 0.35 -0.05 0.1
v 0.35 0.05 0.1
v 0.35 0.35 0.1
v 0.45 -0.05 0.1
v 0.45 0.05 0.1
v 0.55 -0.35 0.1
v 0.55 0.35 0.1
v -0.15 0.25 0
v -0.15 0.35 0
v 0.05 0.25 0
v 0.05 0.35 0
v 0.15 -0.35 0
v 0.15 -0.25 0
v 0.25 -0.35 0
v 0.25 -0.25 0
v -0.55 -0.35 -0.1
v -0.55 -0.15 -0.1
v -0.45 -0.35 -0.1
v -0.45 -0.15 -0.1
v -0.35 -0.35 -0.1
v -0.35 -0.15 -0.1
v -0.15 -0.35 -0.1
v -0.15 -0.15 -0.1
v 0.15 0.25 -0.1
v 0.15 0.35 -0.1
v 0.25 0.25 -0.1
v 0.25 0.35 -0.1
v -0.45 0.25 -0.3
v -0.45 0.35 -0.3
v -0.25 0.25 -0.3
v -0.25 0.35 -0.3
v -0.55 -0.15 -0.5
v -0.55 0.05 -0.5
v -0.45 -0.15 -0.5
v -0.45 0.05 -0.5
v -0.55 -0.15 0.5
v -0.55 0.05 0.5
v -0.45 -0.15 0.5
v -0.45 0.05 0.5
v -0.45 0.25 0.3
v -0.45 0.35 0.3
v -0.35 0.25 0.3
v -0.35 0.35 0.3
v -0.55 0.15 0.2
v -0.55 0.25 0.2
v -0.45 0.15 0.2
v -0.45 0.25 0.2
v -0.35 0.25 0.2
v -0.35 0.35 0.2
v -0.25 0.25 0.2
v -0.25 0.35 0.2
v -0.15 -0.35 0.2
v -0.15 -0.25 0.2
v -0.15 0.25 0.2
v -0.15 0.35 0.2
v -0.05 -0.35 0.2
v -0.05 -0.25 0.2
v 0.05 0.25 0.2
v 0.05 0.35 0.2
v -0.55 -0.35 0.1
v -0.55 -0.15 0.1
v -0.45 -0.35 0.1
v -0.45 -0.15 0.1
v -0.35 -0.35 0.1
v -0.35 -0.15 0.1
v -0.15 -0.35 0.1
v -0.15 -0.15 0.1
v 0.15 -0.35 0.1
v 0.15 -0.25 0.1
v 0.25 -0.35 0.1
v 0.25 -0.25 0.1
v 0.15 0.25 0
v 0.15 0.35 0
v 0.25 0.25 0
v 0.25 0.35 0
v 0.35 -0.05 0
v 0.35 0.05 0
v 0.45 -0.05 0
v 0.45 0.05 0
v -0.45 0.25 -0.1
v -0.45 0.35 -0.1
v -0.25 0.25 -0.1
v -0.25 0.35 -0.1
v 0.35 -0.35 -0.1
v 0.35 -0.05 -0.1
v 0.35 0.05 -0.1
v 0.35 0.35 -0.1
v 0.45 -0.05 -0.1
v 0.45 0.05 -0.1
v 0.55 -0.35 -0.1
v 0.55 0.35 -0.1
v 0.05 -0.05 -0.2
v 0.05 0.05 -0.2
v 0.15 -0.05 -0.2
v 0.15 0.05 -0.2
v 0.25 -0.35 -0.2
v 0.25 0.35 -0.2
v 0.35 -0.35 -0.2
v 0.35 0.35 -0.2
v -0.55 -0.15 -0.3
v -0.55 0.05 -0.3
v -0.45 -0.15 -0.3
v -0.45 0.05 -0.3
v -0.15 0.05 -0.3
v -0.15 0.25 -0.3
v 0.05 -0.35 -0.3
v 0.05 -0.05 -0.3
v 0.05 0.05 -0.3
v 0.05 0.25 -0.3
v 0.05 0.35 -0.3
v 0.15 -0.05 -0.3
v 0.15 0.05 -0.3
v 0.25 -0.35 -0.3
v 0.25 0.35 -0.3
v -0.35 -0.05 -0.4
v -0.35 0.05 -0.4
v -0.35 0.15 -0.4
v -0.35 0.25 -0.4
v -0.25 -0.35 -0.4
v -0.25 -0.25 -0.4
v -0.25 -0.05 -0.4
v -0.25 0.05 -0.4
v -0.25 0.15 -0.4
v -0.25 0.25 -0.4
v -0.15 -0.35 -0.4
v -0.15 -0.25 -0.4
v -0.15 0.05 -0.4
v -0.15 0.25 -0.4
v -0.15 0.35 -0.4
v 0.05 -0.35 -0.4
v 0.05 0.05 -0.4
v 0.05 0.25 -0.4
v 0.05 0.35 -0.4
v -0.35 -0.35 -0.5
v -0.35 -0.05 -0.5
v -0.35 0.05 -0.5
v -0.35 0.15 -0.5
v -0.35 0.25 -0.5
v -0.35 0.35 -0.5
v -0.25 -0.35 -0.5
v -0.25 -0.25 -0.5
v -0.25 -0.05 -0.5
v -0.25 0.05 -0.5
v -0.25 0.15 -0.5
v -0.25 0.25 -0.5
v -0.15 -0.25 -0.5
v -0.15 0.35 -0.5
v -0.55 -0.35 -0.6
v -0.55 0.35 -0.6
v -0.35 -0.35 -0.6
v -0.35 0.35 -0.6
v -0.55 -0.35 0.6
v -0.35 -0.35 0.6
v -0.35 -0.35 0.5
v -0.15 -0.35 0.5
v -0.15 -0.35 0.4
v 0.05 -0.35 0.4
v 0.05 -0.35 0.3
v 0.25 -0.35 0.3
v -0.15 -0.35 0.2
v -0.05 -0.35 0.2
v 0.25 -0.35 0.2
v 0.35 -0.35 0.2
v -0.55 -0.35 0.1
v -0.45 -0.35 0.1
v -0.35 -0.35 0.1
v -0.15 -0.35 0.1
v -0.05 -0.35 0.1
v 0.15 -0.35 0.1
v 0.25 -0.35 0.1
v 0.35 -0.35 0.1
v 0.55 -0.35 0.1
v 0.15 -0.35 0
v 0.25 -0.35 0
v -0.55 -0.35 -0.1
v -0.45 -0.35 -0.1
v -0.35 -0.35 -0.1
v -0.15 -0.35 -0.1
v 0.35 -0.35 -0.1
v 0.55 -0.35 -0.1
v 0.25 -0.35 -0.2
v 0.35 -0.35 -0.2
v -0.25 -0.35 -0.3
v -0.15 -0.35 -0.3
v 0.05 -0.35 -0.3
v 0.25 -0.35 -0.3
v -0.25 -0.35 -0.4
v -0.15 -0.35 -0.4
v 0.05 -0.35 -0.4
v -0.35 -0.35 -0.5
v -0.25 -0.35 -0.5
v -0.55 -0.35 -0.6
v -0.35 -0.35 -0.6
v -0.15 -0.25 0.2
v -0.05 -0.25 0.2
v -0.15 -0.25 0.1
v -0.05 -0.25 0.1
v 0.15 -0.25 0.1
v 0.25 -0.25 0.1
v 0.15 -0.25 0
v 0.25 -0.25 0
v -0.25 -0.25 -0.4
v -0.15 -0.25 -0.4
v -0.25 -0.25 -0.5
v -0.15 -0.25 -0.5
v -0.05 -0.15 0.4
v 0.05 -0.15 0.4
v -0.05 -0.15 0.3
v 0.05 -0.15 0.3
v -0.55 -0.15 0.1
v -0.45 -0.15 0.1
v -0.35 -0.15 0.1
v -0.15 -0.15 0.1
v -0.55 -0.15 -0.1
v -0.45 -0.15 -0.1
v -0.35 -0.15 -0.1
v -0.15 -0.15 -0.1
v -0.55 0.05 0.5
v -0.45 0.05 0.5
v -0.55 0.05 0.3
v -0.45 0.05 0.3
v 0.35 0.05 0
v 0.45 0.05 0
v 0.35 0.05 -0.1
v 0.45 0.05 -0.1
v 0.05 0.05 -0.2
v 0.15 0.05 -0.2
v -0.55 0.05 -0.3
v -0.45 0.05 -0.3
v 0.05 0.05 -0.3
v 0.15 0.05 -0.3
v -0.35 0.05 -0.4
v -0.25 0.05 -0.4
v -0.55 0.05 -0.5
v -0.45 0.05 -0.5
v -0.35 0.05 -0.5
v -0.25 0.05 -0.5
v -0.25 0.25 0.5
v -0.15 0.25 0.5
v -0.25 0.25 0.4
v -0.15 0.25 0.4
v -0.55 0.25 0.2
v -0.45 0.25 0.2
v -0.55 0.25 0.1
v -0.45 0.25 0.1
v -0.15 0.25 -0.3
v 0.05 0.25 -0.3
v -0.35 0.25 -0.4
v -0.25 0.25 -0.4
v -0.15 0.25 -0.4
v 0.05 0.25 -0.4
v -0.35 0.25 -0.5
v -0.25 0.25 -0.5
v -0.05 -0.25 0.4
v 0.05 -0.25 0.4
v -0.05 -0.25 0.3
v 0.05 -0.25 0.3
v -0.55 -0.15 0.5
v -0.45 -0.15 0.5
v -0.55 -0.15 0.3
v -0.45 -0.15 0.3
v -0.55 -0.15 -0.3
v -0.45 -0.15 -0.3
v -0.55 -0.15 -0.5
v -0.45 -0.15 -0.5
v 0.35 -0.05 0
v 0.45 -0.05 0
v 0.35 -0.05 -0.1
v 0.45 -0.05 -0.1
v 0.05 -0.05 -0.2
v 0.15 -0.05 -0.2
v 0.05 -0.05 -0.3
v 0.15 -0.05 -0.3
v -0.35 -0.05 -0.4
v -0.25 -0.05 -0.4
v -0.35 -0.05 -0.5
v -0.25 -0.05 -0.5
v -0.15 0.05 -0.3
v 0.05 0.05 -0.3
v -0.15 0.05 -0.4
v 0.05 0.05 -0.4
v -0.25 0.15 0.5
v -0.15 0.15 0.5
v -0.25 0.15 0.4
v -0.15 0.15 0.4
v -0.55 0.15 0.2
v -0.45 0.15 0.2
v -0.55 0.15 0.1
v -0.45 0.15 0.1
v -0.35 0.15 -0.4
v -0.25 0.15 -0.4
v -0.35 0.15 -0.5
v -0.25 0.15 -0.5
v -0.45 0.25 0.3
v -0.35 0.25 0.3
v -0.45 0.25 0.2
v -0.35 0.25 0.2
v -0.25 0.25 0.2
v -0.15 0.25 0.2
v 0.05 0.25 0.2
v -0.35 0.25 0.1
v -0.25 0.25 0.1
v -0.15 0.25 0
v 0.05 0.25 0
v 0.15 0.25 0
v 0.25 0.25 0
v -0.45 0.25 -0.1
v -0.25 0.25 -0.1
v 0.15 0.25 -0.1
v 0.25 0.25 -0.1
v -0.45 0.25 -0.3
v -0.25 0.25 -0.3
v -0.55 0.35 0.6
v -0.35 0.35 0.6
v -0.35 0.35 0.5
v -0.15 0.35 0.5
v -0.15 0.35 0.4
v 0.05 0.35 0.4
v -0.45 0.35 0.3
v -0.35 0.35 0.3
v -0.25 0.35 0.3
v 0.05 0.35 0.3
v 0.25 0.35 0.3
v -0.45 0.35 0.2
v -0.35 0.35 0.2
v -0.25 0.35 0.2
v -0.15 0.35 0.2
v 0.05 0.35 0.2
v 0.25 0.35 0.2
v 0.35 0.35 0.2
v -0.35 0.35 0.1
v -0.25 0.35 0.1
v 0.35 0.35 0.1
v 0.55 0.35 0.1
v -0.15 0.35 0
v 0.05 0.35 0
v 0.15 0.35 0
v 0.25 0.35 0
v -0.45 0.35 -0.1
v -0.25 0.35 -0.1
v 0.15 0.35 -0.1
v 0.25 0.35 -0.1
v 0.35 0.35 -0.1
v 0.55 0.35 -0.1
v 0.25 0.35 -0.2
v 0.35 0.35 -0.2
v -0.45 0.35 -0.3
v -0.25 0.35 -0.3
v 0.05 0.35 -0.3
v 0.25 0.35 -0.3
v -0.15 0.35 -0.4
v 0.05 0.35 -0.4
v -0.35 0.35 -0.5
v -0.15 0.35 -0.5
v -0.55 0.35 -0.6
v -0.35 0.35 -0.6

# faces
f 5/1/1 2/1/1 1/1/1
f 6/1/1 2/1/1 5/1/1
f 7/1/1 2/1/1 6/1/1
f 8/1/1 4/1/1 3/1/1
f 9/1/1 4/1/1 8/1/1
f 10/1/1 4/1/1 9/1/1
f 11/1/1 5/1/1 1/1/1
f 12/1/1 7/1/1 6/1/1
f 12/1/1 9/1/1 8/1/1
f 12/1/1 8/1/1 7/1/1
f 13/1/1 9/1/1 12/1/1
f 14/1/1 4/1/1 10/1/1
f 15/1/1 13/1/1 12/1/1
f 15/1/1 14/1/1 13/1/1
f 15/1/1 12/1/1 11/1/1
f 16/1/1 14/1/1 15/1/1
f 17/1/1 15/1/1 11/1/1
f 18/1/1 14/1/1 16/1/1
f 19/1/1 11/1/1 1/1/1
f 19/1/1 18/1/1 17/1/1
f 19/1/1 17/1/1 11/1/1
f 20/1/1 14/1/1 18/1/1
f 20/1/1 18/1/1 19/1/1
f 20/1/1 4/1/1 14/1/1
f 25/1/1 22/1/1 21/1/1
f 26/1/1 22/1/1 25/1/1
f 29/1/1 24/1/1 23/1/1
f 30/1/1 24/1/1 29/1/1
f 31/1/1 28/1/1 27/1/1
f 32/1/1 28/1/1 31/1/1
f 35/1/1 34/1/1 33/1/1
f 36/1/1 34/1/1 35/1/1
f 39/2/1 38/2/1 37/2/1
f 40/2/1 38/2/1 39/2/1
f 43/1/1 42/1/1 41/1/1
f 44/1/1 42/1/1 43/1/1
f 51/1/1 46/1/1 45/1/1
f 52/1/1 46/1/1 51/1/1
f 53/1/1 48/1/1 47/1/1
f 54/1/1 48/1/1 53/1/1
f 55/1/1 50/1/1 49/1/1
f 56/1/1 50/1/1 55/1/1
f 59/1/1 58/1/1 57/1/1
f 60/1/1 58/1/1 59/1/1
f 63/1/1 62/1/1 61/1/1
f 64/1/1 62/1/1 63/1/1
f 67/1/1 66/1/1 65/1/1
f 68/1/1 66/1/1 67/1/1
f 71/1/1 70/1/1 69/1/1
f 72/1/1 70/1/1 71/1/1
f 75/1/1 74/1/1 73/1/1
f 76/1/1 74/1/1 75/1/1
f 79/1/1 78/1/1 77/1/1
f 80/1/1 78/1/1 79/1/1
f 83/1/1 82/1/1 81/1/1
f 84/1/1 82/1/1 83/1/1
f 85/1/2 86/1/2 89/1/2
f 89/1/2 86/1/2 90/1/2
f 87/1/2 88/1/2 91/1/2
f 91/1/2 88/1/2 92/1/2
f 95/1/2 96/1/2 99/1/2
f 99/1/2 96/1/2 100/1/2
f 97/1/2 98/1/2 102/1/2
f 101/1/2 102/1/2 103/1/2
f 102/1/2 98/1/2 104/1/2
f 103/1/2 102/1/2 104/1/2
f 104/1/2 98/1/2 106/1/2
f 105/1/2 106/1/2 109/1/2
f 106/1/2 98/1/2 110/1/2
f 109/1/2 106/1/2 110/1/2
f 93/1/2 94/1/2 111/1/2
f 111/1/2 94/1/2 112/1/2
f 107/1/2 108/1/2 113/1/2
f 113/1/2 108/1/2 114/1/2
f 110/1/2 98/1/2 115/1/2
f 115/1/2 98/1/2 116/1/2
f 117/1/2 118/1/2 119/1/2
f 119/1/2 118/1/2 120/1/2
f 121/1/2 122/1/2 123/1/2
f 123/1/2 122/1/2 124/1/2
f 127/1/2 128/1/2 129/1/2
f 129/1/2 128/1/2 130/1/2
f 131/1/2 132/1/2 134/1/2
f 125/1/2 126/1/2 135/1/2
f 135/1/2 126/1/2 136/1/2
f 133/1/2 134/1/2 141/1/2
f 134/1/2 132/1/2 142/1/2
f 141/1/2 134/1/2 142/1/2
f 137/1/2 138/1/2 143/1/2
f 143/1/2 138/1/2 144/1/2
f 139/1/2 140/1/2 145/1/2
f 145/1/2 140/1/2 146/1/2
f 142/1/2 132/1/2 147/1/2
f 147/1/2 132/1/2 148/1/2
f 149/1/2 150/1/2 151/1/2
f 151/1/2 150/1/2 152/1/2
f 153/1/2 154/1/2 157/1/2
f 157/1/2 154/1/2 158/1/2
f 155/1/2 156/1/2 162/1/2
f 161/1/2 162/1/2 163/1/2
f 162/1/2 156/1/2 164/1/2
f 163/1/2 162/1/2 164/1/2
f 164/1/2 156/1/2 165/1/2
f 159/1/2 160/1/2 168/1/2
f 168/1/2 160/1/2 169/1/2
f 166/1/2 167/1/2 170/1/2
f 170/1/2 167/1/2 171/1/2
f 172/1/2 173/1/2 174/1/2
f 174/1/2 173/1/2 175/1/2
f 176/1/2 177/1/2 178/1/2
f 178/1/2 177/1/2 179/1/2
f 180/1/2 181/1/2 184/1/2
f 184/1/2 181/1/2 185/1/2
f 182/1/2 183/1/2 186/1/2
f 186/1/2 183/1/2 187/1/2
f 188/1/2 189/1/2 192/1/2
f 190/1/2 191/1/2 194/1/2
f 188/1/2 192/1/2 195/1/2
f 193/1/2 194/1/2 196/1/2
f 194/1/2 191/1/2 197/1/2
f 196/1/2 194/1/2 197/1/2
f 188/1/2 195/1/2 198/1/2
f 198/1/2 195/1/2 199/1/2
f 197/1/2 191/1/2 200/1/2
f 200/1/2 191/1/2 201/1/2
f 202/1/2 203/1/2 204/1/2
f 204/1/2 203/1/2 205/1/2
f 208/1/3 207/1/3 206/1/3
f 209/1/3 207/1/3 208/1/3
f 212/1/3 211/1/3 210/1/3
f 213/1/3 211/1/3 212/1/3
f 214/1/3 212/1/3 210/1/3
f 215/1/3 212/1/3 214/1/3
f 216/1/3 211/1/3 213/1/3
f 217/1/3 211/1/3 216/1/3
f 221/2/3 219/2/3 218/2/3
f 222/2/3 219/2/3 221/2/3
f 224/1/3 221/1/3 220/1/3
f 224/1/3 223/1/3 222/1/3
f 224/1/3 222/1/3 221/1/3
f 225/1/3 223/1/3 224/1/3
f 226/1/3 224/1/3 220/1/3
f 227/1/3 224/1/3 226/1/3
f 228/1/3 223/1/3 225/1/3
f 229/1/3 223/1/3 228/1/3
f 232/1/3 231/1/3 230/1/3
f 233/1/3 231/1/3 232/1/3
f 237/2/3 235/2/3 234/2/3
f 238/2/3 235/2/3 237/2/3
f 240/1/3 238/1/3 237/1/3
f 240/1/3 239/1/3 238/1/3
f 240/1/3 237/1/3 236/1/3
f 241/1/3 239/1/3 240/1/3
f 244/1/3 243/1/3 242/1/3
f 245/1/3 243/1/3 244/1/3
f 248/1/3 247/1/3 246/1/3
f 249/1/3 247/1/3 248/1/3
f 252/1/3 251/1/3 250/1/3
f 253/1/3 251/1/3 252/1/3
f 256/1/3 255/1/3 254/1/3
f 257/1/3 255/1/3 256/1/3
f 260/1/3 259/1/3 258/1/3
f 261/1/3 259/1/3 260/1/3
f 266/1/3 263/1/3 262/1/3
f 266/2/3 264/2/3 263/2/3
f 267/1/3 265/1/3 264/1/3
f 267/2/3 264/2/3 266/2/3
f 268/1/3 266/1/3 262/1/3
f 268/1/3 267/1/3 266/1/3
f 269/1/3 265/1/3 267/1/3
f 269/1/3 267/1/3 268/1/3
f 272/1/3 271/1/3 270/1/3
f 273/1/3 271/1/3 272/1/3
f 276/1/3 275/1/3 274/1/3
f 277/1/3 275/1/3 276/1/3
f 280/1/3 279/1/3 278/1/3
f 281/1/3 279/1/3 280/1/3
f 284/1/3 283/1/3 282/1/3
f 285/1/3 283/1/3 284/1/3
f 288/1/3 287/1/3 286/1/3
f 289/1/3 287/1/3 288/1/3
f 292/1/3 291/1/3 290/1/3
f 293/1/3 291/1/3 292/1/3
f 296/1/3 295/1/3 294/1/3
f 297/1/3 295/1/3 296/1/3
f 298/1/4 299/1/4 300/1/4
f 300/1/4 299/1/4 301/1/4
f 302/1/4 303/1/4 304/1/4
f 304/1/4 303/1/4 305/1/4
f 306/1/4 307/1/4 308/1/4
f 308/1/4 307/1/4 309/1/4
f 310/2/4 311/2/4 312/2/4
f 312/2/4 311/2/4 313/2/4
f 314/1/4 315/1/4 318/1/4
f 318/1/4 315/1/4 319/1/4
f 316/1/4 317/1/4 320/1/4
f 320/1/4 317/1/4 321/1/4
f 322/1/4 323/1/4 324/1/4
f 324/1/4 323/1/4 325/1/4
f 326/1/4 327/1/4 328/1/4
f 328/1/4 327/1/4 329/1/4
f 330/1/4 331/1/4 332/1/4
f 332/1/4 331/1/4 333/1/4
f 334/1/4 335/1/4 336/1/4
f 336/1/4 335/1/4 337/1/4
f 338/2/4 339/2/4 340/2/4
f 340/2/4 339/2/4 341/2/4
f 342/1/4 343/1/4 344/1/4
f 344/1/4 343/1/4 345/1/4
f 346/1/4 347/1/4 350/1/4
f 348/1/4 349/1/4 351/1/4
f 346/1/4 350/1/4 352/1/4
f 350/1/4 351/1/4 352/1/4
f 351/1/4 349/1/4 353/1/4
f 352/1/4 351/1/4 353/1/4
f 354/2/4 355/2/4 356/2/4
f 356/2/4 355/2/4 357/2/4
f 358/1/4 359/1/4 360/1/4
f 360/1/4 359/1/4 361/1/4
f 362/1/4 363/1/4 364/1/4
f 364/1/4 363/1/4 365/1/4
f 366/2/4 367/2/4 370/2/4
f 370/2/4 367/2/4 371/2/4
f 368/1/4 369/1/4 373/1/4
f 371/1/4 372/1/4 374/1/4
f 370/1/4 371/1/4 374/1/4
f 368/1/4 373/1/4 375/1/4
f 373/1/4 374/1/4 375/1/4
f 374/1/4 372/1/4 376/1/4
f 375/1/4 374/1/4 376/1/4
f 377/2/4 378/2/4 383/2/4
f 383/2/4 378/2/4 384/2/4
f 379/2/4 380/2/4 385/2/4
f 385/2/4 380/2/4 386/2/4
f 381/2/4 382/2/4 387/2/4
f 387/2/4 382/2/4 388/2/4
f 388/1/4 389/1/4 392/1/4
f 387/1/4 388/1/4 392/1/4
f 392/1/4 389/1/4 393/1/4
f 390/1/4 391/1/4 394/1/4
f 394/1/4 391/1/4 395/1/4
f 396/1/4 397/1/4 402/1/4
f 402/1/4 397/1/4 403/1/4
f 403/1/4 397/1/4 404/1/4
f 398/1/4 399/1/4 405/1/4
f 405/1/4 399/1/4 406/1/4
f 400/1/4 401/1/4 407/1/4
f 405/1/4 406/1/4 408/1/4
f 406/1/4 407/1/4 408/1/4
f 403/1/4 404/1/4 408/1/4
f 404/1/4 405/1/4 408/1/4
f 407/1/4 401/1/4 409/1/4
f 408/1/4 407/1/4 409/1/4
f 410/1/4 411/1/4 412/1/4
f 412/1/4 411/1/4 413/1/4
f 416/1/5 415/1/5 414/1/5
f 418/1/5 417/1/5 416/1/5
f 420/1/5 419/1/5 418/1/5
f 422/1/5 418/1/5 416/1/5
f 422/1/5 421/1/5 420/1/5
f 422/1/5 420/1/5 418/1/5
f 423/1/5 421/1/5 422/1/5
f 424/1/5 421/1/5 423/1/5
f 426/1/5 416/1/5 414/1/5
f 426/1/5 422/1/5 416/1/5
f 427/1/5 422/1/5 426/1/5
f 428/1/5 422/1/5 427/1/5
f 429/1/5 422/1/5 428/1/5
f 430/1/5 425/1/5 424/1/5
f 430/1/5 424/1/5 423/1/5
f 431/1/5 425/1/5 430/1/5
f 432/1/5 425/1/5 431/1/5
f 433/1/5 425/1/5 432/1/5
f 435/1/5 430/1/5 429/1/5
f 435/1/5 431/1/5 430/1/5
f 436/1/5 434/1/5 433/1/5
f 436/1/5 433/1/5 432/1/5
f 438/1/5 428/1/5 427/1/5
f 439/1/5 428/1/5 438/1/5
f 440/1/5 435/1/5 429/1/5
f 440/1/5 436/1/5 435/1/5
f 441/1/5 434/1/5 436/1/5
f 441/1/5 436/1/5 440/1/5
f 442/1/5 434/1/5 441/1/5
f 443/1/5 439/1/5 438/1/5
f 443/1/5 438/1/5 437/1/5
f 443/1/5 441/1/5 440/1/5
f 443/1/5 440/1/5 439/1/5
f 444/1/5 441/1/5 443/1/5
f 445/1/5 443/1/5 437/1/5
f 446/1/5 443/1/5 445/1/5
f 447/1/5 443/1/5 446/1/5
f 448/1/5 443/1/5 447/1/5
f 449/1/5 445/1/5 437/1/5
f 449/2/5 446/2/5 445/2/5
f 450/1/5 447/1/5 446/1/5
f 450/2/5 446/2/5 449/2/5
f 451/1/5 447/1/5 450/1/5
f 452/1/5 449/1/5 437/1/5
f 453/1/5 449/1/5 452/1/5
f 454/1/5 452/1/5 437/1/5
f 455/1/5 452/1/5 454/1/5
f 458/2/5 457/2/5 456/2/5
f 459/2/5 457/2/5 458/2/5
f 462/2/5 461/2/5 460/2/5
f 463/2/5 461/2/5 462/2/5
f 466/1/5 465/1/5 464/1/5
f 467/1/5 465/1/5 466/1/5
f 470/1/5 469/1/5 468/1/5
f 471/1/5 469/1/5 470/1/5
f 476/1/5 473/1/5 472/1/5
f 477/1/5 473/1/5 476/1/5
f 478/2/5 475/2/5 474/2/5
f 479/2/5 475/2/5 478/2/5
f 482/1/5 481/1/5 480/1/5
f 483/1/5 481/1/5 482/1/5
f 486/1/5 485/1/5 484/1/5
f 487/1/5 485/1/5 486/1/5
f 492/1/5 489/1/5 488/1/5
f 493/1/5 489/1/5 492/1/5
f 496/1/5 491/1/5 490/1/5
f 497/1/5 491/1/5 496/1/5
f 498/1/5 495/1/5 494/1/5
f 499/1/5 495/1/5 498/1/5
f 502/1/5 501/1/5 500/1/5
f 503/1/5 501/1/5 502/1/5
f 506/1/5 505/1/5 504/1/5
f 507/1/5 505/1/5 506/1/5
f 512/1/5 509/1/5 508/1/5
f 513/1/5 509/1/5 512/1/5
f 514/1/5 511/1/5 510/1/5
f 515/1/5 511/1/5 514/1/5
f 516/1/6 517/1/6 518/1/6
f 518/1/6 517/1/6 519/1/6
f 520/1/6 521/1/6 522/1/6
f 522/1/6 521/1/6 523/1/6
f 524/1/6 525/1/6 526/1/6
f 526/1/6 525/1/6 527/1/6
f 528/1/6 529/1/6 530/1/6
f 530/1/6 529/1/6 531/1/6
f 532/1/6 533/1/6 534/1/6
f 534/1/6 533/1/6 535/1/6
f 536/1/6 537/1/6 538/1/6
f 538/1/6 537/1/6 539/1/6
f 540/1/6 541/1/6 542/1/6
f 542/1/6 541/1/6 543/1/6
f 544/1/6 545/1/6 546/1/6
f 546/1/6 545/1/6 547/1/6
f 548/1/6 549/1/6 550/1/6
f 550/1/6 549/1/6 551/1/6
f 552/1/6 553/1/6 554/1/6
f 554/1/6 553/1/6 555/1/6
f 556/2/6 557/2/6 558/2/6
f 558/2/6 557/2/6 559/2/6
f 559/2/6 560/2/6 563/2/6
f 563/2/6 560/2/6 564/2/6
f 561/2/6 562/2/6 565/2/6
f 565/2/6 562/2/6 566/2/6
f 567/2/6 568/2/6 571/2/6
f 571/2/6 568/2/6 572/2/6
f 569/2/6 570/2/6 573/2/6
f 573/2/6 570/2/6 574/2/6
f 575/1/6 576/1/6 577/1/6
f 577/1/6 578/1/6 579/1/6
f 575/1/6 577/1/6 581/1/6
f 579/1/6 580/1/6 581/1/6
f 577/1/6 579/1/6 581/1/6
f 581/1/6 580/1/6 582/1/6
f 582/1/6 580/1/6 583/1/6
f 583/1/6 580/1/6 584/1/6
f 575/1/6 581/1/6 586/1/6
f 582/2/6 583/2/6 587/2/6
f 584/1/6 585/1/6 588/1/6
f 583/1/6 584/1/6 588/1/6
f 587/2/6 583/2/6 588/2/6
f 588/1/6 585/1/6 589/1/6
f 589/1/6 585/1/6 590/1/6
f 590/1/6 585/1/6 591/1/6
f 586/1/6 587/1/6 593/1/6
f 588/1/6 589/1/6 594/1/6
f 591/1/6 592/1/6 595/1/6
f 590/1/6 591/1/6 595/1/6
f 593/1/6 594/1/6 597/1/6
f 594/1/6 589/1/6 597/1/6
f 595/1/6 596/1/6 598/1/6
f 590/1/6 595/1/6 598/1/6
f 598/1/6 596/1/6 599/1/6
f 599/1/6 596/1/6 600/1/6
f 593/1/6 597/1/6 601/1/6
f 575/1/6 586/1/6 601/1/6
f 598/1/6 599/1/6 601/1/6
f 597/1/6 598/1/6 601/1/6
f 586/1/6 593/1/6 601/1/6
f 601/1/6 599/1/6 602/1/6
f 602/1/6 599/1/6 603/1/6
f 600/1/6 596/1/6 604/1/6
f 604/1/6 596/1/6 605/1/6
f 605/1/6 596/1/6 606/1/6
f 602/1/6 603/1/6 607/1/6
f 604/1/6 605/1/6 607/1/6
f 603/1/6 604/1/6 607/1/6
f 607/1/6 605/1/6 608/1/6
f 575/1/6 601/1/6 609/1/6
f 602/1/6 607/1/6 610/1/6
f 610/1/6 607/1/6 611/1/6
f 611/1/6 607/1/6 612/1/6
f 609/1/6 610/1/6 613/1/6
f 610/1/6 611/1/6 613/1/6
f 613/1/6 611/1/6 614/1/6
f 609/1/6 613/1/6 615/1/6
f 615/1/6 613/1/6 616/1/6
f 575/1/6 609/1/6 617/1/6
f 609/1/6 615/1/6 617/1/6
f 617/1/6 615/1/6 618/1/6
