# MagicaVoxel @ Ephtracy

# group
o 

# material
mtllib Tomato.mtl
usemtl palette

# normals
vn -1 0 0
vn 1 0 0
vn 0 0 1
vn 0 0 -1
vn 0 -1 0
vn 0 1 0

# texcoords
vt 0.849609 0.5
vt 0.853516 0.5
vt 0.880859 0.5
vt 0.884766 0.5

# verts
v -0.9 -0.8 0.75
v -0.9 -0.8 -0.75
v -0.9 -0.7 0.85
v -0.9 -0.7 0.75
v -0.9 -0.7 -0.75
v -0.9 -0.7 -0.85
v -0.9 0.5 0.85
v -0.9 0.5 0.75
v -0.9 0.5 -0.75
v -0.9 0.5 -0.85
v -0.9 0.6 0.75
v -0.9 0.6 -0.75
v -0.8 -0.7 0.95
v -0.8 -0.7 0.85
v -0.8 -0.7 -0.85
v -0.8 -0.7 -0.95
v -0.8 0.5 0.95
v -0.8 0.5 0.85
v -0.8 0.5 -0.85
v -0.8 0.5 -0.95
v -0.7 -0.8 0.95
v -0.7 -0.8 0.85
v -0.7 -0.8 0.75
v -0.7 -0.8 -0.75
v -0.7 -0.8 -0.85
v -0.7 -0.8 -0.95
v -0.7 -0.7 0.95
v -0.7 -0.7 0.85
v -0.7 -0.7 0.75
v -0.7 -0.7 -0.75
v -0.7 -0.7 -0.85
v -0.7 -0.7 -0.95
v -0.7 0.5 0.95
v -0.7 0.5 0.75
v -0.7 0.5 -0.75
v -0.7 0.5 -0.95
v -0.7 0.6 0.95
v -0.7 0.6 0.75
v -0.7 0.6 -0.75
v -0.7 0.6 -0.95
v -0.2 0.6 0.25
v -0.2 0.6 0.15
v -0.2 0.6 -0.25
v -0.2 0.7 0.25
v -0.2 0.7 0.15
v -0.2 0.7 -0.15
v -0.2 0.7 -0.25
v -0.2 0.8 0.15
v -0.2 0.8 -0.15
v -0.1 0.7 0.25
v -0.1 0.7 0.15
v -0.1 0.7 -0.15
v -0.1 0.7 -0.25
v -0.1 0.8 0.25
v -0.1 0.8 0.15
v -0.1 0.8 -0.15
v -0.1 0.8 -0.25
v 0.1 0.7 0.25
v 0.1 0.7 0.15
v 0.1 0.7 -0.15
v 0.1 0.7 -0.25
v 0.1 0.8 0.25
v 0.1 0.8 0.15
v 0.1 0.8 -0.15
v 0.1 0.8 -0.25
v 0.2 0.6 0.25
v 0.2 0.6 -0.25
v 0.2 0.7 0.25
v 0.2 0.7 0.15
v 0.2 0.7 -0.15
v 0.2 0.7 -0.25
v 0.2 0.8 0.15
v 0.2 0.8 -0.15
v 0.7 -0.8 0.95
v 0.7 -0.8 0.85
v 0.7 -0.8 0.75
v 0.7 -0.8 -0.75
v 0.7 -0.8 -0.95
v 0.7 -0.7 0.95
v 0.7 -0.7 0.85
v 0.7 -0.7 0.75
v 0.7 -0.7 -0.75
v 0.7 -0.7 -0.85
v 0.7 -0.7 -0.95
v 0.7 0.5 0.95
v 0.7 0.5 0.75
v 0.7 0.5 -0.75
v 0.7 0.5 -0.85
v 0.7 0.5 -0.95
v 0.7 0.6 0.95
v 0.7 0.6 0.75
v 0.7 0.6 -0.75
v 0.7 0.6 -0.85
v 0.7 0.6 -0.95
v 0.8 -0.7 0.95
v 0.8 -0.7 0.85
v 0.8 -0.7 -0.85
v 0.8 -0.7 -0.95
v 0.8 0.5 0.95
v 0.8 0.5 0.85
v 0.8 0.5 -0.85
v 0.8 0.5 -0.95
v 0.9 -0.8 0.75
v 0.9 -0.8 -0.65
v 0.9 -0.8 -0.75
v 0.9 -0.7 0.85
v 0.9 -0.7 0.75
v 0.9 -0.7 -0.65
v 0.9 -0.7 -0.75
v 0.9 -0.7 -0.85
v 0.9 0.5 0.85
v 0.9 0.5 0.75
v 0.9 0.5 -0.75
v 0.9 0.5 -0.85
v 0.9 0.6 0.75
v 0.9 0.6 -0.75
v -0.8 -0.7 0.95
v -0.8 0.5 0.95
v -0.7 -0.8 0.95
v -0.7 -0.7 0.95
v -0.7 0.5 0.95
v -0.7 0.6 0.95
v 0.7 -0.8 0.95
v 0.7 -0.7 0.95
v 0.7 0.5 0.95
v 0.7 0.6 0.95
v 0.8 -0.7 0.95
v 0.8 0.5 0.95
v -0.9 -0.7 0.85
v -0.9 0.5 0.85
v -0.8 -0.7 0.85
v -0.8 0.5 0.85
v 0.8 -0.7 0.85
v 0.8 0.5 0.85
v 0.9 -0.7 0.85
v 0.9 0.5 0.85
v -0.9 -0.8 0.75
v -0.9 -0.7 0.75
v -0.9 0.5 0.75
v -0.9 0.6 0.75
v -0.8 -0.8 0.75
v -0.8 -0.7 0.75
v -0.7 -0.8 0.75
v -0.7 -0.7 0.75
v -0.7 0.5 0.75
v -0.7 0.6 0.75
v 0.7 -0.8 0.75
v 0.7 -0.7 0.75
v 0.7 0.5 0.75
v 0.7 0.6 0.75
v 0.8 -0.8 0.75
v 0.8 -0.7 0.75
v 0.9 -0.8 0.75
v 0.9 -0.7 0.75
v 0.9 0.5 0.75
v 0.9 0.6 0.75
v -0.2 0.6 0.25
v -0.2 0.7 0.25
v -0.1 0.7 0.25
v -0.1 0.8 0.25
v 0.1 0.6 0.25
v 0.1 0.7 0.25
v 0.1 0.8 0.25
v 0.2 0.6 0.25
v 0.2 0.7 0.25
v -0.2 0.7 0.15
v -0.2 0.8 0.15
v -0.1 0.7 0.15
v -0.1 0.8 0.15
v 0.1 0.7 0.15
v 0.1 0.8 0.15
v 0.2 0.7 0.15
v 0.2 0.8 0.15
v -0.2 0.7 -0.15
v -0.2 0.8 -0.15
v -0.1 0.7 -0.15
v -0.1 0.8 -0.15
v 0.1 0.7 -0.15
v 0.1 0.8 -0.15
v 0.2 0.7 -0.15
v 0.2 0.8 -0.15
v -0.2 0.6 -0.25
v -0.2 0.7 -0.25
v -0.1 0.7 -0.25
v -0.1 0.8 -0.25
v 0.1 0.7 -0.25
v 0.1 0.8 -0.25
v 0.2 0.6 -0.25
v 0.2 0.7 -0.25
v -0.9 -0.8 -0.75
v -0.9 -0.7 -0.75
v -0.9 0.5 -0.75
v -0.9 0.6 -0.75
v -0.8 -0.8 -0.75
v -0.8 -0.7 -0.75
v -0.7 -0.8 -0.75
v -0.7 -0.7 -0.75
v -0.7 0.5 -0.75
v -0.7 0.6 -0.75
v 0.7 -0.8 -0.75
v 0.7 -0.7 -0.75
v 0.7 0.5 -0.75
v 0.7 0.6 -0.75
v 0.8 -0.7 -0.75
v 0.8 0.5 -0.75
v 0.9 -0.8 -0.75
v 0.9 -0.7 -0.75
v 0.9 0.5 -0.75
v 0.9 0.6 -0.75
v -0.9 -0.7 -0.85
v -0.9 0.5 -0.85
v -0.8 -0.7 -0.85
v -0.8 0.5 -0.85
v 0.8 -0.7 -0.85
v 0.8 0.5 -0.85
v 0.9 -0.7 -0.85
v 0.9 0.5 -0.85
v -0.8 -0.7 -0.95
v -0.8 0.5 -0.95
v -0.7 -0.8 -0.95
v -0.7 -0.7 -0.95
v -0.7 0.5 -0.95
v -0.7 0.6 -0.95
v 0.6 -0.8 -0.95
v 0.6 0.6 -0.95
v 0.7 -0.8 -0.95
v 0.7 -0.7 -0.95
v 0.7 0.5 -0.95
v 0.7 0.6 -0.95
v 0.8 -0.7 -0.95
v 0.8 0.5 -0.95
v -0.7 -0.8 0.95
v 0.7 -0.8 0.95
v -0.7 -0.8 0.85
v -0.6 -0.8 0.85
v 0.6 -0.8 0.85
v 0.7 -0.8 0.85
v -0.9 -0.8 0.75
v -0.8 -0.8 0.75
v -0.7 -0.8 0.75
v -0.6 -0.8 0.75
v 0.6 -0.8 0.75
v 0.7 -0.8 0.75
v 0.8 -0.8 0.75
v 0.9 -0.8 0.75
v -0.8 -0.8 0.65
v -0.7 -0.8 0.65
v 0.7 -0.8 0.65
v 0.8 -0.8 0.65
v -0.8 -0.8 -0.65
v -0.7 -0.8 -0.65
v 0.7 -0.8 -0.65
v 0.9 -0.8 -0.65
v -0.9 -0.8 -0.75
v -0.8 -0.8 -0.75
v -0.7 -0.8 -0.75
v -0.6 -0.8 -0.75
v 0.6 -0.8 -0.75
v 0.7 -0.8 -0.75
v 0.9 -0.8 -0.75
v -0.7 -0.8 -0.85
v -0.6 -0.8 -0.85
v -0.7 -0.8 -0.95
v 0.6 -0.8 -0.95
v 0.7 -0.8 -0.95
v -0.8 -0.7 0.95
v -0.7 -0.7 0.95
v 0.7 -0.7 0.95
v 0.8 -0.7 0.95
v -0.9 -0.7 0.85
v -0.8 -0.7 0.85
v -0.7 -0.7 0.85
v 0.7 -0.7 0.85
v 0.8 -0.7 0.85
v 0.9 -0.7 0.85
v -0.9 -0.7 0.75
v -0.8 -0.7 0.75
v -0.7 -0.7 0.75
v 0.7 -0.7 0.75
v 0.8 -0.7 0.75
v 0.9 -0.7 0.75
v -0.9 -0.7 -0.75
v -0.8 -0.7 -0.75
v -0.7 -0.7 -0.75
v 0.7 -0.7 -0.75
v 0.8 -0.7 -0.75
v 0.9 -0.7 -0.75
v -0.9 -0.7 -0.85
v -0.8 -0.7 -0.85
v -0.7 -0.7 -0.85
v 0.7 -0.7 -0.85
v 0.8 -0.7 -0.85
v 0.9 -0.7 -0.85
v -0.8 -0.7 -0.95
v -0.7 -0.7 -0.95
v 0.7 -0.7 -0.95
v 0.8 -0.7 -0.95
v -0.8 0.5 0.95
v -0.7 0.5 0.95
v 0.7 0.5 0.95
v 0.8 0.5 0.95
v -0.9 0.5 0.85
v -0.8 0.5 0.85
v 0.8 0.5 0.85
v 0.9 0.5 0.85
v -0.9 0.5 0.75
v -0.7 0.5 0.75
v 0.7 0.5 0.75
v 0.9 0.5 0.75
v -0.9 0.5 -0.75
v -0.7 0.5 -0.75
v 0.7 0.5 -0.75
v 0.8 0.5 -0.75
v 0.9 0.5 -0.75
v -0.9 0.5 -0.85
v -0.8 0.5 -0.85
v 0.7 0.5 -0.85
v 0.8 0.5 -0.85
v 0.9 0.5 -0.85
v -0.8 0.5 -0.95
v -0.7 0.5 -0.95
v 0.7 0.5 -0.95
v 0.8 0.5 -0.95
v -0.7 0.6 0.95
v 0.7 0.6 0.95
v -0.9 0.6 0.75
v -0.7 0.6 0.75
v 0.7 0.6 0.75
v 0.9 0.6 0.75
v -0.2 0.6 0.25
v 0.1 0.6 0.25
v 0.2 0.6 0.25
v -0.2 0.6 0.15
v -0.2 0.6 -0.25
v 0.2 0.6 -0.25
v -0.9 0.6 -0.75
v -0.7 0.6 -0.75
v 0.7 0.6 -0.75
v 0.9 0.6 -0.75
v 0.6 0.6 -0.85
v 0.7 0.6 -0.85
v -0.7 0.6 -0.95
v 0.6 0.6 -0.95
v 0.7 0.6 -0.95
v -0.2 0.7 0.25
v -0.1 0.7 0.25
v 0.1 0.7 0.25
v 0.2 0.7 0.25
v -0.2 0.7 0.15
v -0.1 0.7 0.15
v 0.1 0.7 0.15
v 0.2 0.7 0.15
v -0.2 0.7 -0.15
v -0.1 0.7 -0.15
v 0.1 0.7 -0.15
v 0.2 0.7 -0.15
v -0.2 0.7 -0.25
v -0.1 0.7 -0.25
v 0.1 0.7 -0.25
v 0.2 0.7 -0.25
v -0.1 0.8 0.25
v 0.1 0.8 0.25
v -0.2 0.8 0.15
v -0.1 0.8 0.15
v 0.1 0.8 0.15
v 0.2 0.8 0.15
v -0.2 0.8 -0.15
v -0.1 0.8 -0.15
v 0.1 0.8 -0.15
v 0.2 0.8 -0.15
v -0.1 0.8 -0.25
v 0.1 0.8 -0.25

# faces
f 4/1/1 2/1/1 1/1/1
f 5/1/1 2/1/1 4/1/1
f 7/1/1 4/1/1 3/1/1
f 7/1/1 6/1/1 5/1/1
f 7/1/1 5/1/1 4/1/1
f 8/1/1 6/1/1 7/1/1
f 9/1/1 6/1/1 8/1/1
f 10/1/1 6/1/1 9/1/1
f 11/1/1 9/1/1 8/1/1
f 12/1/1 9/1/1 11/1/1
f 17/1/1 14/1/1 13/1/1
f 18/1/1 14/1/1 17/1/1
f 19/1/1 16/1/1 15/1/1
f 20/1/1 16/1/1 19/1/1
f 27/1/1 22/1/1 21/1/1
f 28/2/1 23/2/1 22/2/1
f 28/1/1 22/1/1 27/1/1
f 29/2/1 23/2/1 28/2/1
f 30/2/1 25/2/1 24/2/1
f 31/1/1 26/1/1 25/1/1
f 31/2/1 25/2/1 30/2/1
f 32/1/1 26/1/1 31/1/1
f 37/1/1 34/1/1 33/1/1
f 38/1/1 34/1/1 37/1/1
f 39/1/1 36/1/1 35/1/1
f 40/1/1 36/1/1 39/1/1
f 44/3/1 42/3/1 41/3/1
f 45/4/1 43/4/1 42/4/1
f 45/3/1 42/3/1 44/3/1
f 46/4/1 43/4/1 45/4/1
f 47/4/1 43/4/1 46/4/1
f 48/4/1 46/4/1 45/4/1
f 49/4/1 46/4/1 48/4/1
f 54/3/1 51/3/1 50/3/1
f 55/3/1 51/3/1 54/3/1
f 56/4/1 53/4/1 52/4/1
f 57/4/1 53/4/1 56/4/1
f 58/3/2 59/3/2 62/3/2
f 62/3/2 59/3/2 63/3/2
f 60/4/2 61/4/2 64/4/2
f 64/4/2 61/4/2 65/4/2
f 66/4/2 67/4/2 68/4/2
f 68/4/2 67/4/2 69/4/2
f 69/4/2 67/4/2 70/4/2
f 70/4/2 67/4/2 71/4/2
f 69/4/2 70/4/2 72/4/2
f 72/4/2 70/4/2 73/4/2
f 74/1/2 75/1/2 79/1/2
f 75/2/2 76/2/2 80/2/2
f 79/1/2 75/1/2 80/1/2
f 80/2/2 76/2/2 81/2/2
f 77/2/2 78/2/2 82/2/2
f 82/2/2 78/2/2 83/2/2
f 83/2/2 78/2/2 84/2/2
f 85/1/2 86/1/2 90/1/2
f 90/1/2 86/1/2 91/1/2
f 87/1/2 88/1/2 92/1/2
f 88/2/2 89/2/2 93/2/2
f 92/1/2 88/1/2 93/1/2
f 93/2/2 89/2/2 94/2/2
f 95/1/2 96/1/2 99/1/2
f 99/1/2 96/1/2 100/1/2
f 97/2/2 98/2/2 101/2/2
f 101/2/2 98/2/2 102/2/2
f 103/1/2 104/1/2 107/1/2
f 104/2/2 105/2/2 108/2/2
f 107/1/2 104/1/2 108/1/2
f 108/2/2 105/2/2 109/2/2
f 106/1/2 107/1/2 111/1/2
f 107/1/2 108/1/2 111/1/2
f 108/1/2 109/1/2 111/1/2
f 111/1/2 109/1/2 112/1/2
f 109/2/2 110/2/2 113/2/2
f 112/1/2 109/1/2 113/1/2
f 113/2/2 110/2/2 114/2/2
f 112/1/2 113/1/2 115/1/2
f 115/1/2 113/1/2 116/1/2
f 120/1/3 118/1/3 117/1/3
f 121/1/3 118/1/3 120/1/3
f 123/1/3 120/1/3 119/1/3
f 123/1/3 122/1/3 121/1/3
f 123/1/3 121/1/3 120/1/3
f 124/1/3 122/1/3 123/1/3
f 125/1/3 122/1/3 124/1/3
f 126/1/3 122/1/3 125/1/3
f 127/1/3 125/1/3 124/1/3
f 128/1/3 125/1/3 127/1/3
f 131/1/3 130/1/3 129/1/3
f 132/1/3 130/1/3 131/1/3
f 135/1/3 134/1/3 133/1/3
f 136/1/3 134/1/3 135/1/3
f 141/1/3 138/1/3 137/1/3
f 142/1/3 138/1/3 141/1/3
f 143/2/3 142/2/3 141/2/3
f 144/2/3 142/2/3 143/2/3
f 145/1/3 140/1/3 139/1/3
f 146/1/3 140/1/3 145/1/3
f 151/2/3 148/2/3 147/2/3
f 152/2/3 148/2/3 151/2/3
f 153/1/3 152/1/3 151/1/3
f 154/1/3 152/1/3 153/1/3
f 155/1/3 150/1/3 149/1/3
f 156/1/3 150/1/3 155/1/3
f 159/3/3 158/3/3 157/3/3
f 161/3/3 159/3/3 157/3/3
f 161/3/3 160/3/3 159/3/3
f 162/3/3 160/3/3 161/3/3
f 163/3/3 160/3/3 162/3/3
f 164/4/3 162/4/3 161/4/3
f 165/4/3 162/4/3 164/4/3
f 168/4/3 167/4/3 166/4/3
f 169/4/3 167/4/3 168/4/3
f 172/4/3 171/4/3 170/4/3
f 173/4/3 171/4/3 172/4/3
f 174/4/4 175/4/4 176/4/4
f 176/4/4 175/4/4 177/4/4
f 178/4/4 179/4/4 180/4/4
f 180/4/4 179/4/4 181/4/4
f 182/4/4 183/4/4 184/4/4
f 182/4/4 184/4/4 186/4/4
f 184/4/4 185/4/4 186/4/4
f 186/4/4 185/4/4 187/4/4
f 182/4/4 186/4/4 188/4/4
f 188/4/4 186/4/4 189/4/4
f 190/1/4 191/1/4 194/1/4
f 194/1/4 191/1/4 195/1/4
f 194/2/4 195/2/4 196/2/4
f 196/2/4 195/2/4 197/2/4
f 192/1/4 193/1/4 198/1/4
f 198/1/4 193/1/4 199/1/4
f 200/2/4 201/2/4 204/2/4
f 202/1/4 203/1/4 205/1/4
f 200/2/4 204/2/4 206/2/4
f 206/2/4 204/2/4 207/2/4
f 205/1/4 203/1/4 208/1/4
f 208/1/4 203/1/4 209/1/4
f 210/1/4 211/1/4 212/1/4
f 212/1/4 211/1/4 213/1/4
f 214/2/4 215/2/4 216/2/4
f 216/2/4 215/2/4 217/2/4
f 218/1/4 219/1/4 221/1/4
f 221/1/4 219/1/4 222/1/4
f 220/1/4 221/1/4 224/1/4
f 222/1/4 223/1/4 224/1/4
f 221/1/4 222/1/4 224/1/4
f 224/1/4 223/1/4 225/1/4
f 224/2/4 225/2/4 226/2/4
f 226/2/4 225/2/4 227/2/4
f 227/2/4 225/2/4 228/2/4
f 228/2/4 225/2/4 229/2/4
f 227/2/4 228/2/4 230/2/4
f 230/2/4 228/2/4 231/2/4
f 234/1/5 233/1/5 232/1/5
f 235/1/5 233/1/5 234/1/5
f 236/1/5 233/1/5 235/1/5
f 237/1/5 233/1/5 236/1/5
f 240/2/5 235/2/5 234/2/5
f 241/1/5 236/1/5 235/1/5
f 241/2/5 235/2/5 240/2/5
f 242/2/5 237/2/5 236/2/5
f 242/1/5 236/1/5 241/1/5
f 243/2/5 237/2/5 242/2/5
f 246/1/5 239/1/5 238/1/5
f 246/2/5 240/2/5 239/2/5
f 247/1/5 241/1/5 240/1/5
f 247/2/5 240/2/5 246/2/5
f 247/1/5 243/1/5 242/1/5
f 247/1/5 242/1/5 241/1/5
f 248/2/5 244/2/5 243/2/5
f 248/1/5 243/1/5 247/1/5
f 249/1/5 245/1/5 244/1/5
f 249/2/5 244/2/5 248/2/5
f 250/1/5 248/1/5 247/1/5
f 250/1/5 247/1/5 246/1/5
f 250/1/5 249/1/5 248/1/5
f 250/1/5 246/1/5 238/1/5
f 251/1/5 249/1/5 250/1/5
f 252/1/5 249/1/5 251/1/5
f 253/1/5 245/1/5 249/1/5
f 253/1/5 249/1/5 252/1/5
f 254/1/5 250/1/5 238/1/5
f 255/2/5 251/2/5 250/2/5
f 255/1/5 250/1/5 254/1/5
f 256/1/5 252/1/5 251/1/5
f 256/2/5 251/2/5 255/2/5
f 257/1/5 252/1/5 256/1/5
f 258/1/5 252/1/5 257/1/5
f 259/2/5 253/2/5 252/2/5
f 259/1/5 252/1/5 258/1/5
f 260/2/5 253/2/5 259/2/5
f 261/2/5 257/2/5 256/2/5
f 262/1/5 258/1/5 257/1/5
f 262/2/5 257/2/5 261/2/5
f 263/1/5 262/1/5 261/1/5
f 264/2/5 259/2/5 258/2/5
f 264/1/5 262/1/5 263/1/5
f 264/1/5 258/1/5 262/1/5
f 265/2/5 259/2/5 264/2/5
f 271/1/5 267/1/5 266/1/5
f 272/1/5 267/1/5 271/1/5
f 273/1/5 269/1/5 268/1/5
f 274/1/5 269/1/5 273/1/5
f 276/1/5 272/1/5 271/1/5
f 276/1/5 271/1/5 270/1/5
f 277/1/5 272/1/5 276/1/5
f 278/1/5 272/1/5 277/1/5
f 279/1/5 275/1/5 274/1/5
f 279/1/5 274/1/5 273/1/5
f 280/1/5 275/1/5 279/1/5
f 281/1/5 275/1/5 280/1/5
f 288/1/5 283/1/5 282/1/5
f 288/1/5 284/1/5 283/1/5
f 289/1/5 284/1/5 288/1/5
f 290/1/5 284/1/5 289/1/5
f 291/1/5 286/1/5 285/1/5
f 292/2/5 287/2/5 286/2/5
f 292/1/5 286/1/5 291/1/5
f 293/2/5 287/2/5 292/2/5
f 294/1/5 290/1/5 289/1/5
f 295/1/5 290/1/5 294/1/5
f 296/2/5 292/2/5 291/2/5
f 297/2/5 292/2/5 296/2/5
f 298/1/6 299/1/6 303/1/6
f 300/1/6 301/1/6 304/1/6
f 302/1/6 303/1/6 306/1/6
f 303/1/6 299/1/6 307/1/6
f 306/1/6 303/1/6 307/1/6
f 304/1/6 305/1/6 308/1/6
f 300/1/6 304/1/6 308/1/6
f 308/1/6 305/1/6 309/1/6
f 310/1/6 311/1/6 315/1/6
f 315/1/6 311/1/6 316/1/6
f 312/1/6 313/1/6 317/1/6
f 313/2/6 314/2/6 318/2/6
f 317/1/6 313/1/6 318/1/6
f 318/2/6 314/2/6 319/2/6
f 316/1/6 311/1/6 320/1/6
f 320/1/6 311/1/6 321/1/6
f 317/2/6 318/2/6 322/2/6
f 322/2/6 318/2/6 323/2/6
f 324/1/6 325/1/6 327/1/6
f 327/1/6 325/1/6 328/1/6
f 326/1/6 327/1/6 330/1/6
f 328/1/6 329/1/6 330/1/6
f 327/1/6 328/1/6 330/1/6
f 330/1/6 329/1/6 331/1/6
f 331/1/6 329/1/6 332/1/6
f 326/1/6 330/1/6 333/1/6
f 326/1/6 333/1/6 334/1/6
f 332/1/6 329/1/6 335/1/6
f 326/1/6 334/1/6 336/1/6
f 334/1/6 335/1/6 336/1/6
f 336/1/6 335/1/6 337/1/6
f 335/1/6 329/1/6 338/1/6
f 337/1/6 335/1/6 338/1/6
f 338/1/6 329/1/6 339/1/6
f 337/1/6 338/1/6 340/1/6
f 340/1/6 338/1/6 341/1/6
f 337/1/6 340/1/6 342/1/6
f 340/2/6 341/2/6 343/2/6
f 342/1/6 340/1/6 343/1/6
f 343/2/6 341/2/6 344/2/6
f 345/3/6 346/3/6 349/3/6
f 349/3/6 346/3/6 350/3/6
f 347/4/6 348/4/6 351/4/6
f 351/4/6 348/4/6 352/4/6
f 353/4/6 354/4/6 357/4/6
f 357/4/6 354/4/6 358/4/6
f 355/4/6 356/4/6 359/4/6
f 359/4/6 356/4/6 360/4/6
f 361/3/6 362/3/6 364/3/6
f 364/3/6 362/3/6 365/3/6
f 363/4/6 364/4/6 367/4/6
f 365/4/6 366/4/6 367/4/6
f 364/4/6 365/4/6 367/4/6
f 367/4/6 366/4/6 368/4/6
f 368/4/6 366/4/6 369/4/6
f 369/4/6 366/4/6 370/4/6
f 368/4/6 369/4/6 371/4/6
f 371/4/6 369/4/6 372/4/6
