# MagicaVoxel @ Ephtracy

# group
o 

# material
mtllib Vent.mtl
usemtl palette

# normals
vn -1 0 0
vn 1 0 0
vn 0 0 1
vn 0 0 -1
vn 0 -1 0
vn 0 1 0

# texcoords
vt 0.962891 0.5
vt 0.966797 0.5
vt 0.986328 0.5
vt 0.994141 0.5

# verts
v -1.2 0 0.3
v -1.2 0 0.2
v -1.2 0.1 0.3
v -1.2 0.1 0.2
v -1.2 0.2 0.3
v -1.2 0.2 0.2
v -1.2 0.5 0.3
v -1.2 0.5 0.2
v -1.2 0.6 0.3
v -1.2 0.6 0.2
v -1.2 1.1 0.3
v -1.2 1.1 0.2
v -1.2 1.4 0.3
v -1.2 1.4 0.2
v 1.4 0 0.3
v 1.4 0 0.2
v 1.4 0.4 0.3
v 1.4 0.4 0.2
v 1.4 0.5 0.3
v 1.4 0.5 0.2
v 1.4 1.4 0.3
v 1.4 1.4 0.2
v -1.2 0 0.3
v -1.2 0.1 0.3
v -1.2 0.2 0.3
v -1.2 0.5 0.3
v -1.2 0.6 0.3
v -1.2 1.1 0.3
v -1.2 1.4 0.3
v -1.1 0 0.3
v -1.1 0.1 0.3
v -1.1 0.2 0.3
v -1.1 0.5 0.3
v -1.1 0.6 0.3
v -1.1 1.1 0.3
v -1.1 1.2 0.3
v -1.1 1.3 0.3
v -1 0.1 0.3
v -1 0.2 0.3
v -1 0.3 0.3
v -1 0.5 0.3
v -1 0.6 0.3
v -1 0.8 0.3
v -1 0.9 0.3
v -1 1 0.3
v -1 1.1 0.3
v -1 1.2 0.3
v -1 1.3 0.3
v -0.9 0.4 0.3
v -0.9 0.5 0.3
v -0.8 0.4 0.3
v -0.8 0.5 0.3
v -0.8 0.7 0.3
v -0.8 0.8 0.3
v -0.6 1 0.3
v -0.6 1.1 0.3
v -0.4 0.7 0.3
v -0.4 0.8 0.3
v 0.5 0 0.3
v 0.5 0.1 0.3
v 0.6 1.3 0.3
v 0.6 1.4 0.3
v 0.8 0 0.3
v 0.8 0.1 0.3
v 0.8 1.3 0.3
v 0.8 1.4 0.3
v 0.9 1.3 0.3
v 0.9 1.4 0.3
v 1.1 1.3 0.3
v 1.1 1.4 0.3
v 1.2 0.1 0.3
v 1.2 0.2 0.3
v 1.2 0.3 0.3
v 1.2 0.5 0.3
v 1.2 0.6 0.3
v 1.2 0.8 0.3
v 1.2 0.9 0.3
v 1.2 1.1 0.3
v 1.2 1.2 0.3
v 1.2 1.3 0.3
v 1.3 0.1 0.3
v 1.3 0.2 0.3
v 1.3 0.4 0.3
v 1.3 0.5 0.3
v 1.3 1.2 0.3
v 1.3 1.3 0.3
v 1.4 0 0.3
v 1.4 0.4 0.3
v 1.4 0.5 0.3
v 1.4 1.4 0.3
v -1.2 0 0.2
v -1.2 0.1 0.2
v -1.2 0.2 0.2
v -1.2 0.5 0.2
v -1.2 0.6 0.2
v -1.2 1.1 0.2
v -1.2 1.4 0.2
v -1.1 0 0.2
v -1.1 0.1 0.2
v -1.1 0.2 0.2
v -1.1 0.5 0.2
v -1.1 0.6 0.2
v -1.1 1.1 0.2
v -1.1 1.2 0.2
v -1.1 1.3 0.2
v -1 0.1 0.2
v -1 0.2 0.2
v -1 0.3 0.2
v -1 0.5 0.2
v -1 0.6 0.2
v -1 0.8 0.2
v -1 0.9 0.2
v -1 1 0.2
v -1 1.1 0.2
v -1 1.2 0.2
v -1 1.3 0.2
v -0.9 0.4 0.2
v -0.9 0.5 0.2
v -0.8 0.4 0.2
v -0.8 0.5 0.2
v -0.8 0.7 0.2
v -0.8 0.8 0.2
v -0.6 1 0.2
v -0.6 1.1 0.2
v -0.4 0.7 0.2
v -0.4 0.8 0.2
v 0.5 0 0.2
v 0.5 0.1 0.2
v 0.6 1.3 0.2
v 0.6 1.4 0.2
v 0.8 0 0.2
v 0.8 0.1 0.2
v 0.8 1.3 0.2
v 0.8 1.4 0.2
v 0.9 1.3 0.2
v 0.9 1.4 0.2
v 1.1 1.3 0.2
v 1.1 1.4 0.2
v 1.2 0.1 0.2
v 1.2 0.2 0.2
v 1.2 0.3 0.2
v 1.2 0.5 0.2
v 1.2 0.6 0.2
v 1.2 0.8 0.2
v 1.2 0.9 0.2
v 1.2 1.1 0.2
v 1.2 1.2 0.2
v 1.2 1.3 0.2
v 1.3 0.1 0.2
v 1.3 0.2 0.2
v 1.3 0.4 0.2
v 1.3 0.5 0.2
v 1.3 1.2 0.2
v 1.3 1.3 0.2
v 1.4 0 0.2
v 1.4 0.4 0.2
v 1.4 0.5 0.2
v 1.4 1.4 0.2
v -1.2 0 0.3
v -1.1 0 0.3
v 0.5 0 0.3
v 0.8 0 0.3
v 1.4 0 0.3
v -1.2 0 0.2
v -1.1 0 0.2
v 0.5 0 0.2
v 0.8 0 0.2
v 1.4 0 0.2
v -1.2 1.4 0.3
v 0.6 1.4 0.3
v 0.8 1.4 0.3
v 0.9 1.4 0.3
v 1.1 1.4 0.3
v 1.4 1.4 0.3
v -1.2 1.4 0.2
v 0.6 1.4 0.2
v 0.8 1.4 0.2
v 0.9 1.4 0.2
v 1.1 1.4 0.2
v 1.4 1.4 0.2

# faces
f 3/2/1 2/2/1 1/2/1
f 4/2/1 2/2/1 3/2/1
f 5/1/1 4/1/1 3/1/1
f 6/1/1 4/1/1 5/1/1
f 7/2/1 6/2/1 5/2/1
f 8/2/1 6/2/1 7/2/1
f 9/1/1 8/1/1 7/1/1
f 10/1/1 8/1/1 9/1/1
f 11/2/1 10/2/1 9/2/1
f 12/2/1 10/2/1 11/2/1
f 13/1/1 12/1/1 11/1/1
f 14/1/1 12/1/1 13/1/1
f 15/1/2 16/1/2 17/1/2
f 17/1/2 16/1/2 18/1/2
f 17/2/2 18/2/2 19/2/2
f 19/2/2 18/2/2 20/2/2
f 19/1/2 20/1/2 21/1/2
f 21/1/2 20/1/2 22/1/2
f 30/2/3 24/2/3 23/2/3
f 31/1/3 25/1/3 24/1/3
f 31/2/3 24/2/3 30/2/3
f 32/2/3 26/2/3 25/2/3
f 32/1/3 25/1/3 31/1/3
f 33/1/3 27/1/3 26/1/3
f 33/2/3 26/2/3 32/2/3
f 34/2/3 28/2/3 27/2/3
f 34/1/3 27/1/3 33/1/3
f 35/1/3 29/1/3 28/1/3
f 35/2/3 28/2/3 34/2/3
f 36/1/3 29/1/3 35/1/3
f 37/1/3 29/1/3 36/1/3
f 38/1/3 31/1/3 30/1/3
f 38/3/3 32/3/3 31/3/3
f 39/1/3 34/1/3 33/1/3
f 39/3/3 32/3/3 38/3/3
f 39/1/3 33/1/3 32/1/3
f 39/1/3 36/1/3 35/1/3
f 39/1/3 35/1/3 34/1/3
f 40/1/3 36/1/3 39/1/3
f 41/1/3 36/1/3 40/1/3
f 42/1/3 36/1/3 41/1/3
f 43/1/3 36/1/3 42/1/3
f 44/1/3 36/1/3 43/1/3
f 45/1/3 36/1/3 44/1/3
f 46/1/3 36/1/3 45/1/3
f 47/3/3 37/3/3 36/3/3
f 47/1/3 36/1/3 46/1/3
f 48/1/3 29/1/3 37/1/3
f 48/3/3 37/3/3 47/3/3
f 49/1/3 41/1/3 40/1/3
f 50/4/3 42/4/3 41/4/3
f 50/1/3 41/1/3 49/1/3
f 51/1/3 49/1/3 40/1/3
f 51/2/3 50/2/3 49/2/3
f 52/4/3 42/4/3 50/4/3
f 52/2/3 50/2/3 51/2/3
f 53/1/3 43/1/3 42/1/3
f 54/4/3 44/4/3 43/4/3
f 54/1/3 43/1/3 53/1/3
f 55/2/3 46/2/3 45/2/3
f 55/1/3 45/1/3 44/1/3
f 56/4/3 47/4/3 46/4/3
f 56/2/3 46/2/3 55/2/3
f 57/1/3 53/1/3 42/1/3
f 57/2/3 54/2/3 53/2/3
f 58/4/3 44/4/3 54/4/3
f 58/2/3 54/2/3 57/2/3
f 59/1/3 38/1/3 30/1/3
f 59/1/3 39/1/3 38/1/3
f 60/1/3 39/1/3 59/1/3
f 61/1/3 29/1/3 48/1/3
f 61/1/3 48/1/3 47/1/3
f 62/1/3 29/1/3 61/1/3
f 63/2/3 60/2/3 59/2/3
f 64/1/3 39/1/3 60/1/3
f 64/2/3 60/2/3 63/2/3
f 65/1/3 61/1/3 47/1/3
f 65/2/3 62/2/3 61/2/3
f 66/2/3 62/2/3 65/2/3
f 67/1/3 65/1/3 47/1/3
f 67/1/3 66/1/3 65/1/3
f 68/1/3 66/1/3 67/1/3
f 69/1/3 67/1/3 47/1/3
f 69/2/3 68/2/3 67/2/3
f 70/2/3 68/2/3 69/2/3
f 71/1/3 39/1/3 64/1/3
f 71/1/3 64/1/3 63/1/3
f 72/4/3 40/4/3 39/4/3
f 72/1/3 39/1/3 71/1/3
f 73/1/3 51/1/3 40/1/3
f 73/4/3 40/4/3 72/4/3
f 73/1/3 52/1/3 51/1/3
f 74/4/3 42/4/3 52/4/3
f 74/1/3 52/1/3 73/1/3
f 75/1/3 57/1/3 42/1/3
f 75/4/3 42/4/3 74/4/3
f 75/1/3 58/1/3 57/1/3
f 76/4/3 44/4/3 58/4/3
f 76/1/3 58/1/3 75/1/3
f 77/1/3 55/1/3 44/1/3
f 77/4/3 44/4/3 76/4/3
f 77/1/3 56/1/3 55/1/3
f 78/4/3 47/4/3 56/4/3
f 78/1/3 56/1/3 77/1/3
f 79/1/3 69/1/3 47/1/3
f 79/4/3 47/4/3 78/4/3
f 79/1/3 70/1/3 69/1/3
f 80/1/3 70/1/3 79/1/3
f 81/1/3 71/1/3 63/1/3
f 81/3/3 72/3/3 71/3/3
f 82/1/3 75/1/3 74/1/3
f 82/3/3 72/3/3 81/3/3
f 82/1/3 76/1/3 75/1/3
f 82/1/3 79/1/3 78/1/3
f 82/1/3 74/1/3 73/1/3
f 82/1/3 73/1/3 72/1/3
f 82/1/3 78/1/3 77/1/3
f 82/1/3 77/1/3 76/1/3
f 83/1/3 79/1/3 82/1/3
f 84/1/3 79/1/3 83/1/3
f 85/3/3 80/3/3 79/3/3
f 85/1/3 79/1/3 84/1/3
f 86/1/3 70/1/3 80/1/3
f 86/3/3 80/3/3 85/3/3
f 87/1/3 81/1/3 63/1/3
f 87/1/3 82/1/3 81/1/3
f 87/1/3 83/1/3 82/1/3
f 88/2/3 84/2/3 83/2/3
f 88/1/3 83/1/3 87/1/3
f 89/1/3 85/1/3 84/1/3
f 89/2/3 84/2/3 88/2/3
f 89/1/3 86/1/3 85/1/3
f 90/1/3 70/1/3 86/1/3
f 90/1/3 86/1/3 89/1/3
f 91/2/4 92/2/4 98/2/4
f 92/1/4 93/1/4 99/1/4
f 98/2/4 92/2/4 99/2/4
f 93/2/4 94/2/4 100/2/4
f 99/1/4 93/1/4 100/1/4
f 94/1/4 95/1/4 101/1/4
f 100/2/4 94/2/4 101/2/4
f 95/2/4 96/2/4 102/2/4
f 101/1/4 95/1/4 102/1/4
f 96/1/4 97/1/4 103/1/4
f 102/2/4 96/2/4 103/2/4
f 103/1/4 97/1/4 104/1/4
f 104/1/4 97/1/4 105/1/4
f 98/1/4 99/1/4 106/1/4
f 99/3/4 100/3/4 106/3/4
f 101/1/4 102/1/4 107/1/4
f 106/3/4 100/3/4 107/3/4
f 100/1/4 101/1/4 107/1/4
f 103/1/4 104/1/4 107/1/4
f 102/1/4 103/1/4 107/1/4
f 107/1/4 104/1/4 108/1/4
f 108/1/4 104/1/4 109/1/4
f 109/1/4 104/1/4 110/1/4
f 110/1/4 104/1/4 111/1/4
f 111/1/4 104/1/4 112/1/4
f 112/1/4 104/1/4 113/1/4
f 113/1/4 104/1/4 114/1/4
f 104/3/4 105/3/4 115/3/4
f 114/1/4 104/1/4 115/1/4
f 105/1/4 97/1/4 116/1/4
f 115/3/4 105/3/4 116/3/4
f 108/1/4 109/1/4 117/1/4
f 109/4/4 110/4/4 118/4/4
f 117/1/4 109/1/4 118/1/4
f 108/1/4 117/1/4 119/1/4
f 117/2/4 118/2/4 119/2/4
f 118/4/4 110/4/4 120/4/4
f 119/2/4 118/2/4 120/2/4
f 110/1/4 111/1/4 121/1/4
f 111/4/4 112/4/4 122/4/4
f 121/1/4 111/1/4 122/1/4
f 113/2/4 114/2/4 123/2/4
f 112/1/4 113/1/4 123/1/4
f 114/4/4 115/4/4 124/4/4
f 123/2/4 114/2/4 124/2/4
f 110/1/4 121/1/4 125/1/4
f 121/2/4 122/2/4 125/2/4
f 122/4/4 112/4/4 126/4/4
f 125/2/4 122/2/4 126/2/4
f 98/1/4 106/1/4 127/1/4
f 106/1/4 107/1/4 127/1/4
f 127/1/4 107/1/4 128/1/4
f 116/1/4 97/1/4 129/1/4
f 115/1/4 116/1/4 129/1/4
f 129/1/4 97/1/4 130/1/4
f 127/2/4 128/2/4 131/2/4
f 128/1/4 107/1/4 132/1/4
f 131/2/4 128/2/4 132/2/4
f 115/1/4 129/1/4 133/1/4
f 129/2/4 130/2/4 133/2/4
f 133/2/4 130/2/4 134/2/4
f 115/1/4 133/1/4 135/1/4
f 133/1/4 134/1/4 135/1/4
f 135/1/4 134/1/4 136/1/4
f 115/1/4 135/1/4 137/1/4
f 135/2/4 136/2/4 137/2/4
f 137/2/4 136/2/4 138/2/4
f 132/1/4 107/1/4 139/1/4
f 131/1/4 132/1/4 139/1/4
f 107/4/4 108/4/4 140/4/4
f 139/1/4 107/1/4 140/1/4
f 108/1/4 119/1/4 141/1/4
f 140/4/4 108/4/4 141/4/4
f 119/1/4 120/1/4 141/1/4
f 120/4/4 110/4/4 142/4/4
f 141/1/4 120/1/4 142/1/4
f 110/1/4 125/1/4 143/1/4
f 142/4/4 110/4/4 143/4/4
f 125/1/4 126/1/4 143/1/4
f 126/4/4 112/4/4 144/4/4
f 143/1/4 126/1/4 144/1/4
f 112/1/4 123/1/4 145/1/4
f 144/4/4 112/4/4 145/4/4
f 123/1/4 124/1/4 145/1/4
f 124/4/4 115/4/4 146/4/4
f 145/1/4 124/1/4 146/1/4
f 115/1/4 137/1/4 147/1/4
f 146/4/4 115/4/4 147/4/4
f 137/1/4 138/1/4 147/1/4
f 147/1/4 138/1/4 148/1/4
f 131/1/4 139/1/4 149/1/4
f 139/3/4 140/3/4 149/3/4
f 142/1/4 143/1/4 150/1/4
f 149/3/4 140/3/4 150/3/4
f 143/1/4 144/1/4 150/1/4
f 146/1/4 147/1/4 150/1/4
f 141/1/4 142/1/4 150/1/4
f 140/1/4 141/1/4 150/1/4
f 145/1/4 146/1/4 150/1/4
f 144/1/4 145/1/4 150/1/4
f 150/1/4 147/1/4 151/1/4
f 151/1/4 147/1/4 152/1/4
f 147/3/4 148/3/4 153/3/4
f 152/1/4 147/1/4 153/1/4
f 148/1/4 138/1/4 154/1/4
f 153/3/4 148/3/4 154/3/4
f 131/1/4 149/1/4 155/1/4
f 149/1/4 150/1/4 155/1/4
f 150/1/4 151/1/4 155/1/4
f 151/2/4 152/2/4 156/2/4
f 155/1/4 151/1/4 156/1/4
f 152/1/4 153/1/4 157/1/4
f 156/2/4 152/2/4 157/2/4
f 153/1/4 154/1/4 157/1/4
f 154/1/4 138/1/4 158/1/4
f 157/1/4 154/1/4 158/1/4
f 164/2/5 160/2/5 159/2/5
f 165/1/5 161/1/5 160/1/5
f 165/2/5 160/2/5 164/2/5
f 166/2/5 162/2/5 161/2/5
f 166/1/5 161/1/5 165/1/5
f 167/1/5 163/1/5 162/1/5
f 167/2/5 162/2/5 166/2/5
f 168/1/5 163/1/5 167/1/5
f 169/1/6 170/1/6 175/1/6
f 170/2/6 171/2/6 176/2/6
f 175/1/6 170/1/6 176/1/6
f 171/1/6 172/1/6 177/1/6
f 176/2/6 171/2/6 177/2/6
f 172/2/6 173/2/6 178/2/6
f 177/1/6 172/1/6 178/1/6
f 173/1/6 174/1/6 179/1/6
f 178/2/6 173/2/6 179/2/6
f 179/1/6 174/1/6 180/1/6
