# MagicaVoxel @ Ephtracy

# group
o 

# material
mtllib SmallShelf.mtl
usemtl palette

# normals
vn -1 0 0
vn 1 0 0
vn 0 0 1
vn 0 0 -1
vn 0 -1 0
vn 0 1 0

# texcoords
vt 0.533203 0.5
vt 0.537109 0.5
vt 0.541016 0.5
vt 0.990234 0.5

# verts
v -1 0 0.2
v -1 0 -5.96046e-08
v -1 0 -0.6
v -1 0 -0.8
v -1 1 -5.96046e-08
v -1 1 -0.6
v -1 1.1 -5.96046e-08
v -1 1.1 -0.6
v -1 2 -5.96046e-08
v -1 2 -0.6
v -1 2.1 -5.96046e-08
v -1 2.1 -0.6
v -1 3 -5.96046e-08
v -1 3 -0.6
v -1 3.1 0.2
v -1 3.1 -0.8
v 1.19209e-07 0 0.2
v 1.19209e-07 0 -5.96046e-08
v 1.19209e-07 0 -0.6
v 1.19209e-07 0 -0.8
v 1.19209e-07 1 0.2
v 1.19209e-07 1 -5.96046e-08
v 1.19209e-07 1 -0.6
v 1.19209e-07 1 -0.8
v 1.19209e-07 1.1 0.2
v 1.19209e-07 1.1 -5.96046e-08
v 1.19209e-07 1.1 -0.6
v 1.19209e-07 1.1 -0.8
v 1.19209e-07 2 0.2
v 1.19209e-07 2 -5.96046e-08
v 1.19209e-07 2 -0.6
v 1.19209e-07 2 -0.8
v 1.19209e-07 2.1 0.2
v 1.19209e-07 2.1 -5.96046e-08
v 1.19209e-07 2.1 -0.6
v 1.19209e-07 2.1 -0.8
v 1.19209e-07 3 0.2
v 1.19209e-07 3 -5.96046e-08
v 1.19209e-07 3 -0.6
v 1.19209e-07 3 -0.8
v -0.9 0 0.2
v -0.9 0 -5.96046e-08
v -0.9 0 -0.6
v -0.9 0 -0.8
v -0.9 1 0.2
v -0.9 1 -5.96046e-08
v -0.9 1 -0.6
v -0.9 1 -0.8
v -0.9 1.1 0.2
v -0.9 1.1 -5.96046e-08
v -0.9 1.1 -0.6
v -0.9 1.1 -0.8
v -0.9 2 0.2
v -0.9 2 -5.96046e-08
v -0.9 2 -0.6
v -0.9 2 -0.8
v -0.9 2.1 0.2
v -0.9 2.1 -5.96046e-08
v -0.9 2.1 -0.6
v -0.9 2.1 -0.8
v -0.9 3 0.2
v -0.9 3 -5.96046e-08
v -0.9 3 -0.6
v -0.9 3 -0.8
v 0.1 0 0.2
v 0.1 0 -5.96046e-08
v 0.1 0 -0.6
v 0.1 0 -0.8
v 0.1 1 -5.96046e-08
v 0.1 1 -0.6
v 0.1 1.1 -5.96046e-08
v 0.1 1.1 -0.6
v 0.1 2 -5.96046e-08
v 0.1 2 -0.6
v 0.1 2.1 -5.96046e-08
v 0.1 2.1 -0.6
v 0.1 3 -5.96046e-08
v 0.1 3 -0.6
v 0.1 3.1 0.2
v 0.1 3.1 -0.8
v -1 0 0.2
v -1 3.1 0.2
v -0.9 0 0.2
v -0.9 1 0.2
v -0.9 1.1 0.2
v -0.9 2 0.2
v -0.9 2.1 0.2
v -0.9 3 0.2
v -0.9 3.1 0.2
v 1.19209e-07 0 0.2
v 1.19209e-07 1 0.2
v 1.19209e-07 1.1 0.2
v 1.19209e-07 2 0.2
v 1.19209e-07 2.1 0.2
v 1.19209e-07 3 0.2
v 1.19209e-07 3.1 0.2
v 0.1 0 0.2
v 0.1 3.1 0.2
v -1 0 -0.6
v -1 1 -0.6
v -1 1.1 -0.6
v -1 2 -0.6
v -1 2.1 -0.6
v -1 3 -0.6
v -0.9 0 -0.6
v -0.9 1 -0.6
v -0.9 1.1 -0.6
v -0.9 2 -0.6
v -0.9 2.1 -0.6
v -0.9 3 -0.6
v 1.19209e-07 0 -0.6
v 1.19209e-07 1 -0.6
v 1.19209e-07 1.1 -0.6
v 1.19209e-07 2 -0.6
v 1.19209e-07 2.1 -0.6
v 1.19209e-07 3 -0.6
v 0.1 0 -0.6
v 0.1 1 -0.6
v 0.1 1.1 -0.6
v 0.1 2 -0.6
v 0.1 2.1 -0.6
v 0.1 3 -0.6
v -1 0 -5.96046e-08
v -1 1 -5.96046e-08
v -1 1.1 -5.96046e-08
v -1 2 -5.96046e-08
v -1 2.1 -5.96046e-08
v -1 3 -5.96046e-08
v -0.9 0 -5.96046e-08
v -0.9 1 -5.96046e-08
v -0.9 1.1 -5.96046e-08
v -0.9 2 -5.96046e-08
v -0.9 2.1 -5.96046e-08
v -0.9 3 -5.96046e-08
v 1.19209e-07 0 -5.96046e-08
v 1.19209e-07 1 -5.96046e-08
v 1.19209e-07 1.1 -5.96046e-08
v 1.19209e-07 2 -5.96046e-08
v 1.19209e-07 2.1 -5.96046e-08
v 1.19209e-07 3 -5.96046e-08
v 0.1 0 -5.96046e-08
v 0.1 1 -5.96046e-08
v 0.1 1.1 -5.96046e-08
v 0.1 2 -5.96046e-08
v 0.1 2.1 -5.96046e-08
v 0.1 3 -5.96046e-08
v -1 0 -0.8
v -1 3.1 -0.8
v -0.9 0 -0.8
v -0.9 1 -0.8
v -0.9 1.1 -0.8
v -0.9 2 -0.8
v -0.9 2.1 -0.8
v -0.9 3 -0.8
v -0.9 3.1 -0.8
v 1.19209e-07 0 -0.8
v 1.19209e-07 1 -0.8
v 1.19209e-07 1.1 -0.8
v 1.19209e-07 2 -0.8
v 1.19209e-07 2.1 -0.8
v 1.19209e-07 3 -0.8
v 1.19209e-07 3.1 -0.8
v 0.1 0 -0.8
v 0.1 3.1 -0.8
v -1 0 0.2
v -0.9 0 0.2
v 1.19209e-07 0 0.2
v 0.1 0 0.2
v -1 0 -5.96046e-08
v -0.9 0 -5.96046e-08
v 1.19209e-07 0 -5.96046e-08
v 0.1 0 -5.96046e-08
v -1 0 -0.6
v -0.9 0 -0.6
v 1.19209e-07 0 -0.6
v 0.1 0 -0.6
v -1 0 -0.8
v -0.9 0 -0.8
v 1.19209e-07 0 -0.8
v 0.1 0 -0.8
v -0.9 1 0.2
v 1.19209e-07 1 0.2
v -0.8 1 0.0999999
v -0.7 1 0.0999999
v -0.6 1 0.0999999
v -0.4 1 0.0999999
v -0.2 1 0.0999999
v -0.0999999 1 0.0999999
v -1 1 -5.96046e-08
v -0.9 1 -5.96046e-08
v -0.8 1 -5.96046e-08
v -0.7 1 -5.96046e-08
v -0.2 1 -5.96046e-08
v -0.0999999 1 -5.96046e-08
v 1.19209e-07 1 -5.96046e-08
v 0.1 1 -5.96046e-08
v -0.6 1 -0.1
v -0.4 1 -0.1
v -1 1 -0.6
v -0.9 1 -0.6
v -0.8 1 -0.6
v -0.7 1 -0.6
v -0.2 1 -0.6
v -0.0999999 1 -0.6
v 1.19209e-07 1 -0.6
v 0.1 1 -0.6
v -0.8 1 -0.7
v -0.7 1 -0.7
v -0.2 1 -0.7
v -0.0999999 1 -0.7
v -0.9 1 -0.8
v 1.19209e-07 1 -0.8
v -0.9 2 0.2
v 1.19209e-07 2 0.2
v -0.8 2 0.0999999
v -0.7 2 0.0999999
v -0.6 2 0.0999999
v -0.2 2 0.0999999
v -0.0999999 2 0.0999999
v -1 2 -5.96046e-08
v -0.9 2 -5.96046e-08
v -0.8 2 -5.96046e-08
v -0.7 2 -5.96046e-08
v -0.6 2 -5.96046e-08
v -0.2 2 -5.96046e-08
v -0.0999999 2 -5.96046e-08
v 1.19209e-07 2 -5.96046e-08
v 0.1 2 -5.96046e-08
v -0.3 2 -0.3
v -0.0999999 2 -0.3
v -0.3 2 -0.4
v -0.0999999 2 -0.4
v -1 2 -0.6
v -0.9 2 -0.6
v -0.8 2 -0.6
v -0.7 2 -0.6
v -0.2 2 -0.6
v -0.0999999 2 -0.6
v 1.19209e-07 2 -0.6
v 0.1 2 -0.6
v -0.8 2 -0.7
v -0.7 2 -0.7
v -0.2 2 -0.7
v -0.0999999 2 -0.7
v -0.9 2 -0.8
v 1.19209e-07 2 -0.8
v -0.9 3 0.2
v 1.19209e-07 3 0.2
v -0.8 3 0.0999999
v -0.7 3 0.0999999
v -0.2 3 0.0999999
v -0.0999999 3 0.0999999
v -1 3 -5.96046e-08
v -0.9 3 -5.96046e-08
v -0.8 3 -5.96046e-08
v -0.7 3 -5.96046e-08
v -0.2 3 -5.96046e-08
v -0.0999999 3 -5.96046e-08
v 1.19209e-07 3 -5.96046e-08
v 0.1 3 -5.96046e-08
v -0.6 3 -0.5
v -0.5 3 -0.5
v -1 3 -0.6
v -0.9 3 -0.6
v -0.8 3 -0.6
v -0.7 3 -0.6
v -0.6 3 -0.6
v -0.5 3 -0.6
v -0.2 3 -0.6
v -0.0999999 3 -0.6
v 1.19209e-07 3 -0.6
v 0.1 3 -0.6
v -0.8 3 -0.7
v -0.7 3 -0.7
v -0.2 3 -0.7
v -0.0999999 3 -0.7
v -0.9 3 -0.8
v 1.19209e-07 3 -0.8
v -0.9 1.1 0.2
v 1.19209e-07 1.1 0.2
v -0.8 1.1 0.0999999
v -0.7 1.1 0.0999999
v -0.6 1.1 0.0999999
v -0.4 1.1 0.0999999
v -0.2 1.1 0.0999999
v -0.0999999 1.1 0.0999999
v -1 1.1 -5.96046e-08
v -0.9 1.1 -5.96046e-08
v -0.8 1.1 -5.96046e-08
v -0.7 1.1 -5.96046e-08
v -0.2 1.1 -5.96046e-08
v -0.0999999 1.1 -5.96046e-08
v 1.19209e-07 1.1 -5.96046e-08
v 0.1 1.1 -5.96046e-08
v -0.6 1.1 -0.1
v -0.4 1.1 -0.1
v -1 1.1 -0.6
v -0.9 1.1 -0.6
v -0.8 1.1 -0.6
v -0.7 1.1 -0.6
v -0.2 1.1 -0.6
v -0.0999999 1.1 -0.6
v 1.19209e-07 1.1 -0.6
v 0.1 1.1 -0.6
v -0.8 1.1 -0.7
v -0.7 1.1 -0.7
v -0.2 1.1 -0.7
v -0.0999999 1.1 -0.7
v -0.9 1.1 -0.8
v 1.19209e-07 1.1 -0.8
v -0.9 2.1 0.2
v 1.19209e-07 2.1 0.2
v -0.8 2.1 0.0999999
v -0.7 2.1 0.0999999
v -0.6 2.1 0.0999999
v -0.2 2.1 0.0999999
v -0.0999999 2.1 0.0999999
v -1 2.1 -5.96046e-08
v -0.9 2.1 -5.96046e-08
v -0.8 2.1 -5.96046e-08
v -0.7 2.1 -5.96046e-08
v -0.6 2.1 -5.96046e-08
v -0.2 2.1 -5.96046e-08
v -0.0999999 2.1 -5.96046e-08
v 1.19209e-07 2.1 -5.96046e-08
v 0.1 2.1 -5.96046e-08
v -0.3 2.1 -0.3
v -0.0999999 2.1 -0.3
v -0.3 2.1 -0.4
v -0.0999999 2.1 -0.4
v -1 2.1 -0.6
v -0.9 2.1 -0.6
v -0.8 2.1 -0.6
v -0.7 2.1 -0.6
v -0.2 2.1 -0.6
v -0.0999999 2.1 -0.6
v 1.19209e-07 2.1 -0.6
v 0.1 2.1 -0.6
v -0.8 2.1 -0.7
v -0.7 2.1 -0.7
v -0.2 2.1 -0.7
v -0.0999999 2.1 -0.7
v -0.9 2.1 -0.8
v 1.19209e-07 2.1 -0.8
v -1 3.1 0.2
v -0.9 3.1 0.2
v 1.19209e-07 3.1 0.2
v 0.1 3.1 0.2
v -0.8 3.1 0.0999999
v -0.7 3.1 0.0999999
v -0.2 3.1 0.0999999
v -0.0999999 3.1 0.0999999
v -0.8 3.1 -5.96046e-08
v -0.7 3.1 -5.96046e-08
v -0.2 3.1 -5.96046e-08
v -0.0999999 3.1 -5.96046e-08
v -0.6 3.1 -0.5
v -0.5 3.1 -0.5
v -0.8 3.1 -0.6
v -0.7 3.1 -0.6
v -0.6 3.1 -0.6
v -0.5 3.1 -0.6
v -0.2 3.1 -0.6
v -0.0999999 3.1 -0.6
v -0.8 3.1 -0.7
v -0.7 3.1 -0.7
v -0.2 3.1 -0.7
v -0.0999999 3.1 -0.7
v -1 3.1 -0.8
v -0.9 3.1 -0.8
v 1.19209e-07 3.1 -0.8
v 0.1 3.1 -0.8

# faces
f 5/1/1 2/1/1 1/1/1
f 6/1/1 4/1/1 3/1/1
f 7/1/1 5/1/1 1/1/1
f 7/1/1 6/1/1 5/1/1
f 8/1/1 4/1/1 6/1/1
f 8/1/1 6/1/1 7/1/1
f 9/1/1 7/1/1 1/1/1
f 10/1/1 4/1/1 8/1/1
f 11/1/1 9/1/1 1/1/1
f 11/1/1 10/1/1 9/1/1
f 12/1/1 4/1/1 10/1/1
f 12/1/1 10/1/1 11/1/1
f 13/1/1 11/1/1 1/1/1
f 14/1/1 4/1/1 12/1/1
f 15/1/1 13/1/1 1/1/1
f 15/1/1 14/1/1 13/1/1
f 16/1/1 4/1/1 14/1/1
f 16/1/1 14/1/1 15/1/1
f 21/1/1 18/1/1 17/1/1
f 22/1/1 18/1/1 21/1/1
f 23/1/1 20/1/1 19/1/1
f 24/1/1 20/1/1 23/1/1
f 29/1/1 26/1/1 25/1/1
f 30/1/1 26/1/1 29/1/1
f 31/1/1 28/1/1 27/1/1
f 32/1/1 28/1/1 31/1/1
f 37/1/1 34/1/1 33/1/1
f 38/1/1 34/1/1 37/1/1
f 39/1/1 36/1/1 35/1/1
f 40/1/1 36/1/1 39/1/1
f 41/1/2 42/1/2 45/1/2
f 45/1/2 42/1/2 46/1/2
f 43/1/2 44/1/2 47/1/2
f 47/1/2 44/1/2 48/1/2
f 49/1/2 50/1/2 53/1/2
f 53/1/2 50/1/2 54/1/2
f 51/1/2 52/1/2 55/1/2
f 55/1/2 52/1/2 56/1/2
f 57/1/2 58/1/2 61/1/2
f 61/1/2 58/1/2 62/1/2
f 59/1/2 60/1/2 63/1/2
f 63/1/2 60/1/2 64/1/2
f 65/1/2 66/1/2 69/1/2
f 67/1/2 68/1/2 70/1/2
f 65/1/2 69/1/2 71/1/2
f 69/1/2 70/1/2 71/1/2
f 70/1/2 68/1/2 72/1/2
f 71/1/2 70/1/2 72/1/2
f 65/1/2 71/1/2 73/1/2
f 72/1/2 68/1/2 74/1/2
f 65/1/2 73/1/2 75/1/2
f 73/1/2 74/1/2 75/1/2
f 74/1/2 68/1/2 76/1/2
f 75/1/2 74/1/2 76/1/2
f 65/1/2 75/1/2 77/1/2
f 76/1/2 68/1/2 78/1/2
f 65/1/2 77/1/2 79/1/2
f 77/1/2 78/1/2 79/1/2
f 78/1/2 68/1/2 80/1/2
f 79/1/2 78/1/2 80/1/2
f 83/1/3 82/1/3 81/1/3
f 84/1/3 82/1/3 83/1/3
f 85/1/3 82/1/3 84/1/3
f 86/1/3 82/1/3 85/1/3
f 87/1/3 82/1/3 86/1/3
f 88/1/3 82/1/3 87/1/3
f 89/1/3 82/1/3 88/1/3
f 91/2/3 85/2/3 84/2/3
f 92/2/3 85/2/3 91/2/3
f 93/2/3 87/2/3 86/2/3
f 94/2/3 87/2/3 93/2/3
f 95/2/3 89/2/3 88/2/3
f 96/2/3 89/2/3 95/2/3
f 97/1/3 92/1/3 91/1/3
f 97/1/3 94/1/3 93/1/3
f 97/1/3 96/1/3 95/1/3
f 97/1/3 95/1/3 94/1/3
f 97/1/3 91/1/3 90/1/3
f 97/1/3 93/1/3 92/1/3
f 98/1/3 96/1/3 97/1/3
f 105/1/3 100/1/3 99/1/3
f 106/1/3 100/1/3 105/1/3
f 107/1/3 102/1/3 101/1/3
f 108/1/3 102/1/3 107/1/3
f 109/1/3 104/1/3 103/1/3
f 110/1/3 104/1/3 109/1/3
f 117/1/3 112/1/3 111/1/3
f 118/1/3 112/1/3 117/1/3
f 119/1/3 114/1/3 113/1/3
f 120/1/3 114/1/3 119/1/3
f 121/1/3 116/1/3 115/1/3
f 122/1/3 116/1/3 121/1/3
f 123/1/4 124/1/4 129/1/4
f 129/1/4 124/1/4 130/1/4
f 125/1/4 126/1/4 131/1/4
f 131/1/4 126/1/4 132/1/4
f 127/1/4 128/1/4 133/1/4
f 133/1/4 128/1/4 134/1/4
f 135/1/4 136/1/4 141/1/4
f 141/1/4 136/1/4 142/1/4
f 137/1/4 138/1/4 143/1/4
f 143/1/4 138/1/4 144/1/4
f 139/1/4 140/1/4 145/1/4
f 145/1/4 140/1/4 146/1/4
f 147/1/4 148/1/4 149/1/4
f 149/1/4 148/1/4 150/1/4
f 150/1/4 148/1/4 151/1/4
f 151/1/4 148/1/4 152/1/4
f 152/1/4 148/1/4 153/1/4
f 153/1/4 148/1/4 154/1/4
f 154/1/4 148/1/4 155/1/4
f 150/2/4 151/2/4 157/2/4
f 157/2/4 151/2/4 158/2/4
f 152/2/4 153/2/4 159/2/4
f 159/2/4 153/2/4 160/2/4
f 154/2/4 155/2/4 161/2/4
f 161/2/4 155/2/4 162/2/4
f 157/1/4 158/1/4 163/1/4
f 159/1/4 160/1/4 163/1/4
f 161/1/4 162/1/4 163/1/4
f 160/1/4 161/1/4 163/1/4
f 156/1/4 157/1/4 163/1/4
f 158/1/4 159/1/4 163/1/4
f 163/1/4 162/1/4 164/1/4
f 169/1/5 166/1/5 165/1/5
f 170/1/5 166/1/5 169/1/5
f 171/1/5 168/1/5 167/1/5
f 172/1/5 168/1/5 171/1/5
f 177/1/5 174/1/5 173/1/5
f 178/1/5 174/1/5 177/1/5
f 179/1/5 176/1/5 175/1/5
f 180/1/5 176/1/5 179/1/5
f 183/2/5 182/2/5 181/2/5
f 184/2/5 182/2/5 183/2/5
f 185/2/5 182/2/5 184/2/5
f 186/2/5 182/2/5 185/2/5
f 187/2/5 182/2/5 186/2/5
f 188/2/5 182/2/5 187/2/5
f 190/2/5 183/2/5 181/2/5
f 191/4/5 184/4/5 183/4/5
f 191/2/5 183/2/5 190/2/5
f 192/2/5 185/2/5 184/2/5
f 192/4/5 184/4/5 191/4/5
f 193/2/5 187/2/5 186/2/5
f 193/4/5 188/4/5 187/4/5
f 194/2/5 182/2/5 188/2/5
f 194/4/5 188/4/5 193/4/5
f 195/2/5 182/2/5 194/2/5
f 197/2/5 191/2/5 190/2/5
f 197/3/5 186/3/5 185/3/5
f 197/2/5 185/2/5 192/2/5
f 197/2/5 192/2/5 191/2/5
f 198/2/5 193/2/5 186/2/5
f 198/3/5 186/3/5 197/3/5
f 198/2/5 195/2/5 194/2/5
f 198/2/5 194/2/5 193/2/5
f 199/1/5 190/1/5 189/1/5
f 200/2/5 197/2/5 190/2/5
f 200/1/5 190/1/5 199/1/5
f 200/2/5 198/2/5 197/2/5
f 201/2/5 198/2/5 200/2/5
f 202/2/5 198/2/5 201/2/5
f 203/2/5 195/2/5 198/2/5
f 203/2/5 198/2/5 202/2/5
f 204/2/5 195/2/5 203/2/5
f 205/1/5 196/1/5 195/1/5
f 205/2/5 195/2/5 204/2/5
f 206/1/5 196/1/5 205/1/5
f 207/4/5 202/4/5 201/4/5
f 207/2/5 201/2/5 200/2/5
f 208/2/5 203/2/5 202/2/5
f 208/4/5 202/4/5 207/4/5
f 209/4/5 204/4/5 203/4/5
f 209/2/5 203/2/5 208/2/5
f 210/2/5 205/2/5 204/2/5
f 210/4/5 204/4/5 209/4/5
f 211/2/5 208/2/5 207/2/5
f 211/2/5 209/2/5 208/2/5
f 211/2/5 210/2/5 209/2/5
f 211/2/5 207/2/5 200/2/5
f 212/2/5 205/2/5 210/2/5
f 212/2/5 210/2/5 211/2/5
f 215/2/5 214/2/5 213/2/5
f 216/2/5 214/2/5 215/2/5
f 217/2/5 214/2/5 216/2/5
f 218/2/5 214/2/5 217/2/5
f 219/2/5 214/2/5 218/2/5
f 221/2/5 215/2/5 213/2/5
f 222/4/5 216/4/5 215/4/5
f 222/2/5 215/2/5 221/2/5
f 223/3/5 217/3/5 216/3/5
f 223/4/5 216/4/5 222/4/5
f 224/2/5 218/2/5 217/2/5
f 224/3/5 217/3/5 223/3/5
f 225/4/5 219/4/5 218/4/5
f 225/2/5 218/2/5 224/2/5
f 226/2/5 214/2/5 219/2/5
f 226/4/5 219/4/5 225/4/5
f 227/2/5 214/2/5 226/2/5
f 229/2/5 225/2/5 224/2/5
f 229/2/5 222/2/5 221/2/5
f 229/2/5 227/2/5 226/2/5
f 229/2/5 226/2/5 225/2/5
f 229/2/5 223/2/5 222/2/5
f 229/2/5 224/2/5 223/2/5
f 230/2/5 227/2/5 229/2/5
f 231/2/5 229/2/5 221/2/5
f 231/3/5 230/3/5 229/3/5
f 232/2/5 227/2/5 230/2/5
f 232/3/5 230/3/5 231/3/5
f 233/1/5 221/1/5 220/1/5
f 234/2/5 231/2/5 221/2/5
f 234/1/5 221/1/5 233/1/5
f 234/2/5 232/2/5 231/2/5
f 235/2/5 232/2/5 234/2/5
f 236/2/5 232/2/5 235/2/5
f 237/2/5 232/2/5 236/2/5
f 238/2/5 227/2/5 232/2/5
f 238/2/5 232/2/5 237/2/5
f 239/1/5 228/1/5 227/1/5
f 239/2/5 227/2/5 238/2/5
f 240/1/5 228/1/5 239/1/5
f 241/2/5 235/2/5 234/2/5
f 241/4/5 236/4/5 235/4/5
f 242/2/5 237/2/5 236/2/5
f 242/4/5 236/4/5 241/4/5
f 243/4/5 238/4/5 237/4/5
f 243/2/5 237/2/5 242/2/5
f 244/2/5 239/2/5 238/2/5
f 244/4/5 238/4/5 243/4/5
f 245/2/5 242/2/5 241/2/5
f 245/2/5 241/2/5 234/2/5
f 245/2/5 244/2/5 243/2/5
f 245/2/5 243/2/5 242/2/5
f 246/2/5 239/2/5 244/2/5
f 246/2/5 244/2/5 245/2/5
f 249/2/5 248/2/5 247/2/5
f 250/2/5 248/2/5 249/2/5
f 251/2/5 248/2/5 250/2/5
f 252/2/5 248/2/5 251/2/5
f 254/2/5 249/2/5 247/2/5
f 255/4/5 250/4/5 249/4/5
f 255/2/5 249/2/5 254/2/5
f 256/2/5 251/2/5 250/2/5
f 256/4/5 250/4/5 255/4/5
f 257/4/5 252/4/5 251/4/5
f 257/2/5 251/2/5 256/2/5
f 258/2/5 248/2/5 252/2/5
f 258/4/5 252/4/5 257/4/5
f 259/2/5 248/2/5 258/2/5
f 261/2/5 257/2/5 256/2/5
f 261/2/5 255/2/5 254/2/5
f 261/2/5 259/2/5 258/2/5
f 261/2/5 258/2/5 257/2/5
f 261/2/5 256/2/5 255/2/5
f 262/2/5 259/2/5 261/2/5
f 263/1/5 254/1/5 253/1/5
f 264/2/5 261/2/5 254/2/5
f 264/1/5 254/1/5 263/1/5
f 265/2/5 261/2/5 264/2/5
f 266/2/5 261/2/5 265/2/5
f 267/3/5 262/3/5 261/3/5
f 267/2/5 261/2/5 266/2/5
f 268/2/5 259/2/5 262/2/5
f 268/3/5 262/3/5 267/3/5
f 269/2/5 259/2/5 268/2/5
f 270/2/5 259/2/5 269/2/5
f 271/1/5 260/1/5 259/1/5
f 271/2/5 259/2/5 270/2/5
f 272/1/5 260/1/5 271/1/5
f 273/4/5 266/4/5 265/4/5
f 273/2/5 265/2/5 264/2/5
f 274/2/5 267/2/5 266/2/5
f 274/4/5 266/4/5 273/4/5
f 274/2/5 269/2/5 268/2/5
f 274/2/5 268/2/5 267/2/5
f 275/4/5 270/4/5 269/4/5
f 275/2/5 269/2/5 274/2/5
f 276/2/5 271/2/5 270/2/5
f 276/4/5 270/4/5 275/4/5
f 277/2/5 274/2/5 273/2/5
f 277/2/5 273/2/5 264/2/5
f 277/2/5 276/2/5 275/2/5
f 277/2/5 275/2/5 274/2/5
f 278/2/5 271/2/5 276/2/5
f 278/2/5 276/2/5 277/2/5
f 279/2/6 280/2/6 281/2/6
f 281/2/6 280/2/6 282/2/6
f 282/2/6 280/2/6 283/2/6
f 283/2/6 280/2/6 284/2/6
f 284/2/6 280/2/6 285/2/6
f 285/2/6 280/2/6 286/2/6
f 279/2/6 281/2/6 288/2/6
f 281/4/6 282/4/6 289/4/6
f 288/2/6 281/2/6 289/2/6
f 282/2/6 283/2/6 290/2/6
f 289/4/6 282/4/6 290/4/6
f 284/2/6 285/2/6 291/2/6
f 285/4/6 286/4/6 291/4/6
f 286/2/6 280/2/6 292/2/6
f 291/4/6 286/4/6 292/4/6
f 292/2/6 280/2/6 293/2/6
f 288/2/6 289/2/6 295/2/6
f 283/3/6 284/3/6 295/3/6
f 290/2/6 283/2/6 295/2/6
f 289/2/6 290/2/6 295/2/6
f 284/2/6 291/2/6 296/2/6
f 295/3/6 284/3/6 296/3/6
f 292/2/6 293/2/6 296/2/6
f 291/2/6 292/2/6 296/2/6
f 287/1/6 288/1/6 297/1/6
f 288/2/6 295/2/6 298/2/6
f 297/1/6 288/1/6 298/1/6
f 295/2/6 296/2/6 298/2/6
f 298/2/6 296/2/6 299/2/6
f 299/2/6 296/2/6 300/2/6
f 296/2/6 293/2/6 301/2/6
f 300/2/6 296/2/6 301/2/6
f 301/2/6 293/2/6 302/2/6
f 293/1/6 294/1/6 303/1/6
f 302/2/6 293/2/6 303/2/6
f 303/1/6 294/1/6 304/1/6
f 299/4/6 300/4/6 305/4/6
f 298/2/6 299/2/6 305/2/6
f 300/2/6 301/2/6 306/2/6
f 305/4/6 300/4/6 306/4/6
f 301/4/6 302/4/6 307/4/6
f 306/2/6 301/2/6 307/2/6
f 302/2/6 303/2/6 308/2/6
f 307/4/6 302/4/6 308/4/6
f 305/2/6 306/2/6 309/2/6
f 306/2/6 307/2/6 309/2/6
f 307/2/6 308/2/6 309/2/6
f 298/2/6 305/2/6 309/2/6
f 308/2/6 303/2/6 310/2/6
f 309/2/6 308/2/6 310/2/6
f 311/2/6 312/2/6 313/2/6
f 313/2/6 312/2/6 314/2/6
f 314/2/6 312/2/6 315/2/6
f 315/2/6 312/2/6 316/2/6
f 316/2/6 312/2/6 317/2/6
f 311/2/6 313/2/6 319/2/6
f 313/4/6 314/4/6 320/4/6
f 319/2/6 313/2/6 320/2/6
f 314/3/6 315/3/6 321/3/6
f 320/4/6 314/4/6 321/4/6
f 315/2/6 316/2/6 322/2/6
f 321/3/6 315/3/6 322/3/6
f 316/4/6 317/4/6 323/4/6
f 322/2/6 316/2/6 323/2/6
f 317/2/6 312/2/6 324/2/6
f 323/4/6 317/4/6 324/4/6
f 324/2/6 312/2/6 325/2/6
f 322/2/6 323/2/6 327/2/6
f 319/2/6 320/2/6 327/2/6
f 324/2/6 325/2/6 327/2/6
f 323/2/6 324/2/6 327/2/6
f 320/2/6 321/2/6 327/2/6
f 321/2/6 322/2/6 327/2/6
f 327/2/6 325/2/6 328/2/6
f 319/2/6 327/2/6 329/2/6
f 327/3/6 328/3/6 329/3/6
f 328/2/6 325/2/6 330/2/6
f 329/3/6 328/3/6 330/3/6
f 318/1/6 319/1/6 331/1/6
f 319/2/6 329/2/6 332/2/6
f 331/1/6 319/1/6 332/1/6
f 329/2/6 330/2/6 332/2/6
f 332/2/6 330/2/6 333/2/6
f 333/2/6 330/2/6 334/2/6
f 334/2/6 330/2/6 335/2/6
f 330/2/6 325/2/6 336/2/6
f 335/2/6 330/2/6 336/2/6
f 325/1/6 326/1/6 337/1/6
f 336/2/6 325/2/6 337/2/6
f 337/1/6 326/1/6 338/1/6
f 332/2/6 333/2/6 339/2/6
f 333/4/6 334/4/6 339/4/6
f 334/2/6 335/2/6 340/2/6
f 339/4/6 334/4/6 340/4/6
f 335/4/6 336/4/6 341/4/6
f 340/2/6 335/2/6 341/2/6
f 336/2/6 337/2/6 342/2/6
f 341/4/6 336/4/6 342/4/6
f 339/2/6 340/2/6 343/2/6
f 332/2/6 339/2/6 343/2/6
f 341/2/6 342/2/6 343/2/6
f 340/2/6 341/2/6 343/2/6
f 342/2/6 337/2/6 344/2/6
f 343/2/6 342/2/6 344/2/6
f 346/2/6 347/2/6 349/2/6
f 349/2/6 347/2/6 350/2/6
f 350/2/6 347/2/6 351/2/6
f 351/2/6 347/2/6 352/2/6
f 346/2/6 349/2/6 353/2/6
f 349/4/6 350/4/6 353/4/6
f 350/2/6 351/2/6 354/2/6
f 353/4/6 350/4/6 354/4/6
f 351/4/6 352/4/6 355/4/6
f 354/2/6 351/2/6 355/2/6
f 352/2/6 347/2/6 356/2/6
f 355/4/6 352/4/6 356/4/6
f 354/2/6 355/2/6 357/2/6
f 353/2/6 354/2/6 357/2/6
f 355/2/6 356/2/6 357/2/6
f 357/2/6 356/2/6 358/2/6
f 346/2/6 353/2/6 359/2/6
f 353/2/6 357/2/6 359/2/6
f 359/2/6 357/2/6 360/2/6
f 357/3/6 358/3/6 361/3/6
f 360/2/6 357/2/6 361/2/6
f 358/2/6 356/2/6 362/2/6
f 361/3/6 358/3/6 362/3/6
f 362/2/6 356/2/6 363/2/6
f 356/2/6 347/2/6 364/2/6
f 363/2/6 356/2/6 364/2/6
f 359/4/6 360/4/6 365/4/6
f 346/2/6 359/2/6 365/2/6
f 362/2/6 363/2/6 366/2/6
f 365/4/6 360/4/6 366/4/6
f 360/2/6 361/2/6 366/2/6
f 361/2/6 362/2/6 366/2/6
f 363/4/6 364/4/6 367/4/6
f 366/2/6 363/2/6 367/2/6
f 364/2/6 347/2/6 368/2/6
f 367/4/6 364/4/6 368/4/6
f 345/1/6 346/1/6 369/1/6
f 346/2/6 365/2/6 370/2/6
f 369/1/6 346/1/6 370/1/6
f 365/2/6 366/2/6 370/2/6
f 367/2/6 368/2/6 370/2/6
f 366/2/6 367/2/6 370/2/6
f 368/2/6 347/2/6 371/2/6
f 370/2/6 368/2/6 371/2/6
f 347/1/6 348/1/6 371/1/6
f 371/1/6 348/1/6 372/1/6
