# MagicaVoxel @ Ephtracy

# group
o 

# material
mtllib Wall2.mtl
usemtl palette

# normals
vn -1 0 0
vn 1 0 0
vn 0 0 1
vn 0 0 -1
vn 0 -1 0
vn 0 1 0

# texcoords
vt 0.966797 0.5
vt 0.974609 0.5
vt 0.978516 0.5

# verts
v -4 0 -1.9
v -4 0 -2
v -4 4 -1.9
v -4 4 -2
v 0.8 0 -1.9
v 0.8 0 -2
v 0.8 2.7 -1.9
v 0.8 2.7 -2
v 0.8 2.8 -1.9
v 0.8 2.8 -2
v 0.8 2.9 -1.9
v 0.8 2.9 -2
v 0.8 3 -1.9
v 0.8 3 -2
v -0.8 0 -1.9
v -0.8 0 -2
v -0.8 0.1 -1.9
v -0.8 0.1 -2
v -0.8 0.2 -1.9
v -0.8 0.2 -2
v -0.8 0.5 -1.9
v -0.8 0.5 -2
v -0.8 3 -1.9
v -0.8 3 -2
v 4 0 -1.9
v 4 0 -2
v 4 0.1 -1.9
v 4 0.1 -2
v 4 0.2 -1.9
v 4 0.2 -2
v 4 4 -1.9
v 4 4 -2
v -4 0 -1.9
v -4 4 -1.9
v -3.9 1.6 -1.9
v -3.9 1.7 -1.9
v -3.8 0.6 -1.9
v -3.8 0.8 -1.9
v -3.8 1.6 -1.9
v -3.8 1.7 -1.9
v -3.7 0.6 -1.9
v -3.7 0.8 -1.9
v -2.6 3.3 -1.9
v -2.6 3.4 -1.9
v -2.5 3.3 -1.9
v -2.5 3.4 -1.9
v -1.2 0 -1.9
v -1.2 0.1 -1.9
v -1.1 0.1 -1.9
v -1.1 0.2 -1.9
v -1 0.2 -1.9
v -1 0.3 -1.9
v -1 0.4 -1.9
v -0.9 0.1 -1.9
v -0.9 0.2 -1.9
v -0.9 0.3 -1.9
v -0.9 0.4 -1.9
v -0.9 0.5 -1.9
v -0.8 0 -1.9
v -0.8 0.1 -1.9
v -0.8 0.2 -1.9
v -0.8 0.5 -1.9
v -0.8 3 -1.9
v 0.8 0 -1.9
v 0.8 2.7 -1.9
v 0.8 2.8 -1.9
v 0.8 2.9 -1.9
v 0.8 3 -1.9
v 0.9 2.7 -1.9
v 0.9 2.8 -1.9
v 0.9 2.9 -1.9
v 0.9 3 -1.9
v 2.1 2.1 -1.9
v 2.1 2.2 -1.9
v 2.2 2.1 -1.9
v 2.2 2.2 -1.9
v 2.3 3 -1.9
v 2.3 3.1 -1.9
v 2.4 3 -1.9
v 2.4 3.1 -1.9
v 3.6 0 -1.9
v 3.6 0.2 -1.9
v 3.7 0 -1.9
v 3.7 0.2 -1.9
v 3.9 0.1 -1.9
v 3.9 0.2 -1.9
v 4 0 -1.9
v 4 0.1 -1.9
v 4 0.2 -1.9
v 4 4 -1.9
v -4 0 -2
v -4 4 -2
v -3.9 1.6 -2
v -3.9 1.7 -2
v -3.8 0.6 -2
v -3.8 0.8 -2
v -3.8 1.6 -2
v -3.8 1.7 -2
v -3.7 0.6 -2
v -3.7 0.8 -2
v -2.6 3.3 -2
v -2.6 3.4 -2
v -2.5 3.3 -2
v -2.5 3.4 -2
v -1.2 0 -2
v -1.2 0.1 -2
v -1.1 0.1 -2
v -1.1 0.2 -2
v -1 0.2 -2
v -1 0.3 -2
v -1 0.4 -2
v -0.9 0.1 -2
v -0.9 0.2 -2
v -0.9 0.3 -2
v -0.9 0.4 -2
v -0.9 0.5 -2
v -0.8 0 -2
v -0.8 0.1 -2
v -0.8 0.2 -2
v -0.8 0.5 -2
v -0.8 3 -2
v 0.8 0 -2
v 0.8 2.7 -2
v 0.8 2.8 -2
v 0.8 2.9 -2
v 0.8 3 -2
v 0.9 2.7 -2
v 0.9 2.8 -2
v 0.9 2.9 -2
v 0.9 3 -2
v 2.1 2.1 -2
v 2.1 2.2 -2
v 2.2 2.1 -2
v 2.2 2.2 -2
v 2.3 3 -2
v 2.3 3.1 -2
v 2.4 3 -2
v 2.4 3.1 -2
v 3.6 0 -2
v 3.6 0.2 -2
v 3.7 0 -2
v 3.7 0.2 -2
v 3.9 0.1 -2
v 3.9 0.2 -2
v 4 0 -2
v 4 0.1 -2
v 4 0.2 -2
v 4 4 -2
v -4 0 -1.9
v -1.2 0 -1.9
v -0.8 0 -1.9
v 0.8 0 -1.9
v 3.6 0 -1.9
v 3.7 0 -1.9
v 4 0 -1.9
v -4 0 -2
v -1.2 0 -2
v -0.8 0 -2
v 0.8 0 -2
v 3.6 0 -2
v 3.7 0 -2
v 4 0 -2
v -0.8 3 -1.9
v 0.8 3 -1.9
v -0.8 3 -2
v 0.8 3 -2
v -4 4 -1.9
v 4 4 -1.9
v -4 4 -2
v 4 4 -2

# faces
f 3/1/1 2/1/1 1/1/1
f 4/1/1 2/1/1 3/1/1
f 7/1/1 6/1/1 5/1/1
f 8/1/1 6/1/1 7/1/1
f 9/2/1 8/2/1 7/2/1
f 10/2/1 8/2/1 9/2/1
f 11/3/1 10/3/1 9/3/1
f 12/3/1 10/3/1 11/3/1
f 13/2/1 12/2/1 11/2/1
f 14/2/1 12/2/1 13/2/1
f 15/2/2 16/2/2 17/2/2
f 17/2/2 16/2/2 18/2/2
f 17/3/2 18/3/2 19/3/2
f 19/3/2 18/3/2 20/3/2
f 19/2/2 20/2/2 21/2/2
f 21/2/2 20/2/2 22/2/2
f 21/1/2 22/1/2 23/1/2
f 23/1/2 22/1/2 24/1/2
f 25/1/2 26/1/2 27/1/2
f 27/1/2 26/1/2 28/1/2
f 27/2/2 28/2/2 29/2/2
f 29/2/2 28/2/2 30/2/2
f 29/1/2 30/1/2 31/1/2
f 31/1/2 30/1/2 32/1/2
f 35/1/3 34/1/3 33/1/3
f 36/1/3 34/1/3 35/1/3
f 37/1/3 35/1/3 33/1/3
f 38/1/3 35/1/3 37/1/3
f 39/2/3 36/2/3 35/2/3
f 39/1/3 35/1/3 38/1/3
f 40/1/3 34/1/3 36/1/3
f 40/2/3 36/2/3 39/2/3
f 41/2/3 38/2/3 37/2/3
f 41/1/3 37/1/3 33/1/3
f 42/1/3 39/1/3 38/1/3
f 42/2/3 38/2/3 41/2/3
f 42/1/3 40/1/3 39/1/3
f 43/1/3 34/1/3 40/1/3
f 43/1/3 40/1/3 42/1/3
f 43/1/3 42/1/3 41/1/3
f 44/1/3 34/1/3 43/1/3
f 45/1/3 43/1/3 41/1/3
f 45/3/3 44/3/3 43/3/3
f 46/1/3 34/1/3 44/1/3
f 46/3/3 44/3/3 45/3/3
f 47/1/3 41/1/3 33/1/3
f 47/1/3 45/1/3 41/1/3
f 47/1/3 46/1/3 45/1/3
f 48/1/3 46/1/3 47/1/3
f 49/2/3 48/2/3 47/2/3
f 49/1/3 46/1/3 48/1/3
f 50/1/3 46/1/3 49/1/3
f 51/2/3 50/2/3 49/2/3
f 51/1/3 46/1/3 50/1/3
f 52/1/3 46/1/3 51/1/3
f 53/1/3 46/1/3 52/1/3
f 54/2/3 49/2/3 47/2/3
f 54/2/3 51/2/3 49/2/3
f 55/3/3 52/3/3 51/3/3
f 55/2/3 51/2/3 54/2/3
f 56/2/3 53/2/3 52/2/3
f 56/3/3 52/3/3 55/3/3
f 57/1/3 46/1/3 53/1/3
f 57/2/3 53/2/3 56/2/3
f 58/1/3 46/1/3 57/1/3
f 59/2/3 54/2/3 47/2/3
f 60/3/3 55/3/3 54/3/3
f 60/2/3 54/2/3 59/2/3
f 61/2/3 56/2/3 55/2/3
f 61/3/3 55/3/3 60/3/3
f 61/2/3 57/2/3 56/2/3
f 61/2/3 58/2/3 57/2/3
f 62/1/3 46/1/3 58/1/3
f 62/2/3 58/2/3 61/2/3
f 63/1/3 46/1/3 62/1/3
f 68/1/3 46/1/3 63/1/3
f 69/1/3 65/1/3 64/1/3
f 69/2/3 66/2/3 65/2/3
f 70/3/3 67/3/3 66/3/3
f 70/2/3 66/2/3 69/2/3
f 71/2/3 68/2/3 67/2/3
f 71/3/3 67/3/3 70/3/3
f 72/1/3 46/1/3 68/1/3
f 72/2/3 68/2/3 71/2/3
f 73/1/3 69/1/3 64/1/3
f 73/1/3 70/1/3 69/1/3
f 73/1/3 72/1/3 71/1/3
f 73/1/3 71/1/3 70/1/3
f 74/1/3 72/1/3 73/1/3
f 75/1/3 73/1/3 64/1/3
f 75/2/3 74/2/3 73/2/3
f 76/1/3 72/1/3 74/1/3
f 76/2/3 74/2/3 75/2/3
f 77/1/3 46/1/3 72/1/3
f 77/1/3 72/1/3 76/1/3
f 77/1/3 76/1/3 75/1/3
f 78/1/3 46/1/3 77/1/3
f 79/1/3 77/1/3 75/1/3
f 79/2/3 78/2/3 77/2/3
f 80/1/3 46/1/3 78/1/3
f 80/2/3 78/2/3 79/2/3
f 81/1/3 75/1/3 64/1/3
f 81/1/3 79/1/3 75/1/3
f 81/1/3 80/1/3 79/1/3
f 82/1/3 80/1/3 81/1/3
f 83/2/3 82/2/3 81/2/3
f 84/1/3 80/1/3 82/1/3
f 84/2/3 82/2/3 83/2/3
f 85/1/3 84/1/3 83/1/3
f 86/1/3 80/1/3 84/1/3
f 86/1/3 84/1/3 85/1/3
f 87/1/3 85/1/3 83/1/3
f 88/2/3 86/2/3 85/2/3
f 88/1/3 85/1/3 87/1/3
f 89/1/3 80/1/3 86/1/3
f 89/2/3 86/2/3 88/2/3
f 90/1/3 34/1/3 46/1/3
f 90/1/3 80/1/3 89/1/3
f 90/1/3 46/1/3 80/1/3
f 91/1/4 92/1/4 93/1/4
f 93/1/4 92/1/4 94/1/4
f 91/1/4 93/1/4 95/1/4
f 95/1/4 93/1/4 96/1/4
f 93/2/4 94/2/4 97/2/4
f 96/1/4 93/1/4 97/1/4
f 94/1/4 92/1/4 98/1/4
f 97/2/4 94/2/4 98/2/4
f 95/2/4 96/2/4 99/2/4
f 91/1/4 95/1/4 99/1/4
f 96/1/4 97/1/4 100/1/4
f 99/2/4 96/2/4 100/2/4
f 97/1/4 98/1/4 100/1/4
f 98/1/4 92/1/4 101/1/4
f 100/1/4 98/1/4 101/1/4
f 99/1/4 100/1/4 101/1/4
f 101/1/4 92/1/4 102/1/4
f 99/1/4 101/1/4 103/1/4
f 101/3/4 102/3/4 103/3/4
f 102/1/4 92/1/4 104/1/4
f 103/3/4 102/3/4 104/3/4
f 91/1/4 99/1/4 105/1/4
f 99/1/4 103/1/4 105/1/4
f 103/1/4 104/1/4 105/1/4
f 105/1/4 104/1/4 106/1/4
f 105/2/4 106/2/4 107/2/4
f 106/1/4 104/1/4 107/1/4
f 107/1/4 104/1/4 108/1/4
f 107/2/4 108/2/4 109/2/4
f 108/1/4 104/1/4 109/1/4
f 109/1/4 104/1/4 110/1/4
f 110/1/4 104/1/4 111/1/4
f 105/2/4 107/2/4 112/2/4
f 107/2/4 109/2/4 112/2/4
f 109/3/4 110/3/4 113/3/4
f 112/2/4 109/2/4 113/2/4
f 110/2/4 111/2/4 114/2/4
f 113/3/4 110/3/4 114/3/4
f 111/1/4 104/1/4 115/1/4
f 114/2/4 111/2/4 115/2/4
f 115/1/4 104/1/4 116/1/4
f 105/2/4 112/2/4 117/2/4
f 112/3/4 113/3/4 118/3/4
f 117/2/4 112/2/4 118/2/4
f 113/2/4 114/2/4 119/2/4
f 118/3/4 113/3/4 119/3/4
f 114/2/4 115/2/4 119/2/4
f 115/2/4 116/2/4 119/2/4
f 116/1/4 104/1/4 120/1/4
f 119/2/4 116/2/4 120/2/4
f 120/1/4 104/1/4 121/1/4
f 121/1/4 104/1/4 126/1/4
f 122/1/4 123/1/4 127/1/4
f 123/2/4 124/2/4 127/2/4
f 124/3/4 125/3/4 128/3/4
f 127/2/4 124/2/4 128/2/4
f 125/2/4 126/2/4 129/2/4
f 128/3/4 125/3/4 129/3/4
f 126/1/4 104/1/4 130/1/4
f 129/2/4 126/2/4 130/2/4
f 122/1/4 127/1/4 131/1/4
f 127/1/4 128/1/4 131/1/4
f 129/1/4 130/1/4 131/1/4
f 128/1/4 129/1/4 131/1/4
f 131/1/4 130/1/4 132/1/4
f 122/1/4 131/1/4 133/1/4
f 131/2/4 132/2/4 133/2/4
f 132/1/4 130/1/4 134/1/4
f 133/2/4 132/2/4 134/2/4
f 130/1/4 104/1/4 135/1/4
f 134/1/4 130/1/4 135/1/4
f 133/1/4 134/1/4 135/1/4
f 135/1/4 104/1/4 136/1/4
f 133/1/4 135/1/4 137/1/4
f 135/2/4 136/2/4 137/2/4
f 136/1/4 104/1/4 138/1/4
f 137/2/4 136/2/4 138/2/4
f 122/1/4 133/1/4 139/1/4
f 133/1/4 137/1/4 139/1/4
f 137/1/4 138/1/4 139/1/4
f 139/1/4 138/1/4 140/1/4
f 139/2/4 140/2/4 141/2/4
f 140/1/4 138/1/4 142/1/4
f 141/2/4 140/2/4 142/2/4
f 141/1/4 142/1/4 143/1/4
f 142/1/4 138/1/4 144/1/4
f 143/1/4 142/1/4 144/1/4
f 141/1/4 143/1/4 145/1/4
f 143/2/4 144/2/4 146/2/4
f 145/1/4 143/1/4 146/1/4
f 144/1/4 138/1/4 147/1/4
f 146/2/4 144/2/4 147/2/4
f 104/1/4 92/1/4 148/1/4
f 147/1/4 138/1/4 148/1/4
f 138/1/4 104/1/4 148/1/4
f 156/1/5 150/1/5 149/1/5
f 157/2/5 151/2/5 150/2/5
f 157/1/5 150/1/5 156/1/5
f 158/2/5 151/2/5 157/2/5
f 159/1/5 153/1/5 152/1/5
f 160/2/5 154/2/5 153/2/5
f 160/1/5 153/1/5 159/1/5
f 161/1/5 155/1/5 154/1/5
f 161/2/5 154/2/5 160/2/5
f 162/1/5 155/1/5 161/1/5
f 165/1/5 164/1/5 163/1/5
f 166/1/5 164/1/5 165/1/5
f 167/1/6 168/1/6 169/1/6
f 169/1/6 168/1/6 170/1/6
