# MagicaVoxel @ Ephtracy

# group
o 

# material
mtllib Milk-Help.mtl
usemtl palette

# normals
vn -1 0 0
vn 1 0 0
vn 0 0 1
vn 0 0 -1
vn 0 -1 0
vn 0 1 0

# texcoords
vt 0.611328 0.5
vt 0.958984 0.5
vt 0.986328 0.5

# verts
v -0.95 -1.5 0.55
v -0.95 -1.5 -0.55
v -0.95 -1 0.55
v -0.95 -1 -0.55
v -0.95 0.8 0.55
v -0.95 0.8 -0.55
v -0.95 1 0.55
v -0.95 1 0.45
v -0.95 1 -0.45
v -0.95 1 -0.55
v -0.95 1.1 0.45
v -0.95 1.1 0.35
v -0.95 1.1 -0.35
v -0.95 1.1 -0.45
v -0.95 1.2 0.35
v -0.95 1.2 0.25
v -0.95 1.2 -0.25
v -0.95 1.2 -0.35
v -0.95 1.3 0.25
v -0.95 1.3 0.15
v -0.95 1.3 -0.15
v -0.95 1.3 -0.25
v -0.95 1.4 0.15
v -0.95 1.4 0.05
v -0.95 1.4 -0.05
v -0.95 1.4 -0.15
v -0.95 1.5 0.05
v -0.95 1.5 -0.05
v -0.15 1.1 0.45
v -0.15 1.1 0.35
v -0.15 1.2 0.35
v -0.15 1.2 0.25
v -0.15 1.3 0.25
v -0.15 1.3 0.15
v -0.15 1.4 0.45
v -0.15 1.4 0.15
v 0.15 1.1 0.45
v 0.15 1.1 0.35
v 0.15 1.2 0.35
v 0.15 1.2 0.25
v 0.15 1.3 0.25
v 0.15 1.3 0.15
v 0.15 1.4 0.45
v 0.15 1.4 0.15
v 0.95 -1.5 0.55
v 0.95 -1.5 -0.55
v 0.95 -1 0.55
v 0.95 -1 -0.55
v 0.95 0.8 0.55
v 0.95 0.8 -0.55
v 0.95 1 0.55
v 0.95 1 0.45
v 0.95 1 -0.45
v 0.95 1 -0.55
v 0.95 1.1 0.45
v 0.95 1.1 0.35
v 0.95 1.1 -0.35
v 0.95 1.1 -0.45
v 0.95 1.2 0.35
v 0.95 1.2 0.25
v 0.95 1.2 -0.25
v 0.95 1.2 -0.35
v 0.95 1.3 0.25
v 0.95 1.3 0.15
v 0.95 1.3 -0.15
v 0.95 1.3 -0.25
v 0.95 1.4 0.15
v 0.95 1.4 0.05
v 0.95 1.4 -0.05
v 0.95 1.4 -0.15
v 0.95 1.5 0.05
v 0.95 1.5 -0.05
v -0.95 -1.5 0.55
v -0.95 -1 0.55
v -0.95 0.8 0.55
v -0.95 1 0.55
v -0.75 -0.3 0.55
v -0.75 0.2 0.55
v -0.65 -0.3 0.55
v -0.65 -0.1 0.55
v -0.65 0 0.55
v -0.65 0.2 0.55
v -0.45 -0.3 0.55
v -0.45 -0.1 0.55
v -0.45 0 0.55
v -0.45 0.2 0.55
v -0.35 -0.3 0.55
v -0.35 0.2 0.55
v -0.25 -0.3 0.55
v -0.25 0.2 0.55
v -0.15 -0.2 0.55
v -0.15 -0.1 0.55
v -0.15 0 0.55
v -0.15 0.1 0.55
v 0.05 -0.3 0.55
v 0.05 -0.2 0.55
v 0.05 -0.1 0.55
v 0.05 0 0.55
v 0.05 0.1 0.55
v 0.05 0.2 0.55
v 0.15 -0.3 0.55
v 0.15 0.2 0.55
v 0.25 -0.2 0.55
v 0.25 0.2 0.55
v 0.35 -0.3 0.55
v 0.35 -0.2 0.55
v 0.45 -0.3 0.55
v 0.45 0.2 0.55
v 0.55 -0.3 0.55
v 0.55 -0.1 0.55
v 0.55 0 0.55
v 0.55 0.1 0.55
v 0.65 0 0.55
v 0.65 0.1 0.55
v 0.75 -0.1 0.55
v 0.75 0.2 0.55
v 0.95 -1.5 0.55
v 0.95 -1 0.55
v 0.95 0.8 0.55
v 0.95 1 0.55
v -0.95 1 0.45
v -0.95 1.1 0.45
v -0.15 1.1 0.45
v -0.15 1.4 0.45
v 0.15 1.1 0.45
v 0.15 1.4 0.45
v 0.95 1 0.45
v 0.95 1.1 0.45
v -0.95 1.1 0.35
v -0.95 1.2 0.35
v -0.15 1.1 0.35
v -0.15 1.2 0.35
v 0.15 1.1 0.35
v 0.15 1.2 0.35
v 0.95 1.1 0.35
v 0.95 1.2 0.35
v -0.95 1.2 0.25
v -0.95 1.3 0.25
v -0.15 1.2 0.25
v -0.15 1.3 0.25
v 0.15 1.2 0.25
v 0.15 1.3 0.25
v 0.95 1.2 0.25
v 0.95 1.3 0.25
v -0.95 1.3 0.15
v -0.95 1.4 0.15
v -0.15 1.3 0.15
v -0.15 1.4 0.15
v 0.15 1.3 0.15
v 0.15 1.4 0.15
v 0.95 1.3 0.15
v 0.95 1.4 0.15
v -0.95 1.4 0.05
v -0.95 1.5 0.05
v 0.95 1.4 0.05
v 0.95 1.5 0.05
v -0.95 1.4 -0.05
v -0.95 1.5 -0.05
v 0.95 1.4 -0.05
v 0.95 1.5 -0.05
v -0.95 1.3 -0.15
v -0.95 1.4 -0.15
v 0.95 1.3 -0.15
v 0.95 1.4 -0.15
v -0.95 1.2 -0.25
v -0.95 1.3 -0.25
v 0.95 1.2 -0.25
v 0.95 1.3 -0.25
v -0.95 1.1 -0.35
v -0.95 1.2 -0.35
v 0.95 1.1 -0.35
v 0.95 1.2 -0.35
v -0.95 1 -0.45
v -0.95 1.1 -0.45
v 0.95 1 -0.45
v 0.95 1.1 -0.45
v -0.95 -1.5 -0.55
v -0.95 -1 -0.55
v -0.95 0.8 -0.55
v -0.95 1 -0.55
v -0.75 -0.1 -0.55
v -0.75 0.2 -0.55
v -0.65 0 -0.55
v -0.65 0.1 -0.55
v -0.55 -0.3 -0.55
v -0.55 -0.1 -0.55
v -0.55 0 -0.55
v -0.55 0.1 -0.55
v -0.45 -0.3 -0.55
v -0.45 0.2 -0.55
v -0.35 -0.3 -0.55
v -0.35 -0.2 -0.55
v -0.25 -0.2 -0.55
v -0.25 0.2 -0.55
v -0.15 -0.3 -0.55
v -0.15 0.2 -0.55
v -0.0500001 -0.3 -0.55
v -0.0500001 -0.2 -0.55
v -0.0500001 -0.1 -0.55
v -0.0500001 0 -0.55
v -0.0500001 0.1 -0.55
v -0.0500001 0.2 -0.55
v 0.15 -0.2 -0.55
v 0.15 -0.1 -0.55
v 0.15 0 -0.55
v 0.15 0.1 -0.55
v 0.25 -0.3 -0.55
v 0.25 0.2 -0.55
v 0.35 -0.3 -0.55
v 0.35 0.2 -0.55
v 0.45 -0.3 -0.55
v 0.45 -0.1 -0.55
v 0.45 0 -0.55
v 0.45 0.2 -0.55
v 0.65 -0.3 -0.55
v 0.65 -0.1 -0.55
v 0.65 0 -0.55
v 0.65 0.2 -0.55
v 0.75 -0.3 -0.55
v 0.75 0.2 -0.55
v 0.95 -1.5 -0.55
v 0.95 -1 -0.55
v 0.95 0.8 -0.55
v 0.95 1 -0.55
v -0.95 -1.5 0.55
v 0.95 -1.5 0.55
v -0.95 -1.5 -0.55
v 0.95 -1.5 -0.55
v -0.95 1 0.55
v 0.95 1 0.55
v -0.95 1 0.45
v 0.95 1 0.45
v -0.95 1 -0.45
v 0.95 1 -0.45
v -0.95 1 -0.55
v 0.95 1 -0.55
v -0.95 1.1 0.45
v -0.15 1.1 0.45
v 0.15 1.1 0.45
v 0.95 1.1 0.45
v -0.95 1.1 0.35
v -0.15 1.1 0.35
v 0.15 1.1 0.35
v 0.95 1.1 0.35
v -0.95 1.1 -0.35
v 0.95 1.1 -0.35
v -0.95 1.1 -0.45
v 0.95 1.1 -0.45
v -0.95 1.2 0.35
v -0.15 1.2 0.35
v 0.15 1.2 0.35
v 0.95 1.2 0.35
v -0.95 1.2 0.25
v -0.15 1.2 0.25
v 0.15 1.2 0.25
v 0.95 1.2 0.25
v -0.95 1.2 -0.25
v 0.95 1.2 -0.25
v -0.95 1.2 -0.35
v 0.95 1.2 -0.35
v -0.95 1.3 0.25
v -0.15 1.3 0.25
v 0.15 1.3 0.25
v 0.95 1.3 0.25
v -0.95 1.3 0.15
v -0.15 1.3 0.15
v 0.15 1.3 0.15
v 0.95 1.3 0.15
v -0.95 1.3 -0.15
v 0.95 1.3 -0.15
v -0.95 1.3 -0.25
v 0.95 1.3 -0.25
v -0.15 1.4 0.45
v 0.15 1.4 0.45
v -0.95 1.4 0.15
v -0.15 1.4 0.15
v 0.15 1.4 0.15
v 0.95 1.4 0.15
v -0.95 1.4 0.05
v 0.95 1.4 0.05
v -0.95 1.4 -0.05
v 0.95 1.4 -0.05
v -0.95 1.4 -0.15
v 0.95 1.4 -0.15
v -0.95 1.5 0.05
v 0.95 1.5 0.05
v -0.95 1.5 -0.05
v 0.95 1.5 -0.05

# faces
f 3/1/1 2/1/1 1/1/1
f 4/1/1 2/1/1 3/1/1
f 5/2/1 4/2/1 3/2/1
f 6/2/1 4/2/1 5/2/1
f 7/1/1 6/1/1 5/1/1
f 8/1/1 6/1/1 7/1/1
f 9/1/1 6/1/1 8/1/1
f 10/1/1 6/1/1 9/1/1
f 11/1/1 9/1/1 8/1/1
f 12/1/1 9/1/1 11/1/1
f 13/1/1 9/1/1 12/1/1
f 14/1/1 9/1/1 13/1/1
f 15/1/1 13/1/1 12/1/1
f 16/1/1 13/1/1 15/1/1
f 17/1/1 13/1/1 16/1/1
f 18/1/1 13/1/1 17/1/1
f 19/1/1 17/1/1 16/1/1
f 20/1/1 17/1/1 19/1/1
f 21/1/1 17/1/1 20/1/1
f 22/1/1 17/1/1 21/1/1
f 23/1/1 21/1/1 20/1/1
f 24/1/1 21/1/1 23/1/1
f 25/1/1 21/1/1 24/1/1
f 26/1/1 21/1/1 25/1/1
f 27/1/1 25/1/1 24/1/1
f 28/1/1 25/1/1 27/1/1
f 31/2/1 30/2/1 29/2/1
f 33/2/1 32/2/1 31/2/1
f 35/2/1 31/2/1 29/2/1
f 35/2/1 34/2/1 33/2/1
f 35/2/1 33/2/1 31/2/1
f 36/2/1 34/2/1 35/2/1
f 37/2/2 38/2/2 39/2/2
f 39/2/2 40/2/2 41/2/2
f 37/2/2 39/2/2 43/2/2
f 41/2/2 42/2/2 43/2/2
f 39/2/2 41/2/2 43/2/2
f 43/2/2 42/2/2 44/2/2
f 45/1/2 46/1/2 47/1/2
f 47/1/2 46/1/2 48/1/2
f 47/2/2 48/2/2 49/2/2
f 49/2/2 48/2/2 50/2/2
f 49/1/2 50/1/2 51/1/2
f 51/1/2 50/1/2 52/1/2
f 52/1/2 50/1/2 53/1/2
f 53/1/2 50/1/2 54/1/2
f 52/1/2 53/1/2 55/1/2
f 55/1/2 53/1/2 56/1/2
f 56/1/2 53/1/2 57/1/2
f 57/1/2 53/1/2 58/1/2
f 56/1/2 57/1/2 59/1/2
f 59/1/2 57/1/2 60/1/2
f 60/1/2 57/1/2 61/1/2
f 61/1/2 57/1/2 62/1/2
f 60/1/2 61/1/2 63/1/2
f 63/1/2 61/1/2 64/1/2
f 64/1/2 61/1/2 65/1/2
f 65/1/2 61/1/2 66/1/2
f 64/1/2 65/1/2 67/1/2
f 67/1/2 65/1/2 68/1/2
f 68/1/2 65/1/2 69/1/2
f 69/1/2 65/1/2 70/1/2
f 68/1/2 69/1/2 71/1/2
f 71/1/2 69/1/2 72/1/2
f 77/2/3 75/2/3 74/2/3
f 78/2/3 75/2/3 77/2/3
f 79/2/3 77/2/3 74/2/3
f 79/3/3 78/3/3 77/3/3
f 80/3/3 78/3/3 79/3/3
f 81/3/3 78/3/3 80/3/3
f 82/2/3 75/2/3 78/2/3
f 82/3/3 78/3/3 81/3/3
f 83/2/3 79/2/3 74/2/3
f 83/2/3 80/2/3 79/2/3
f 84/3/3 81/3/3 80/3/3
f 84/2/3 80/2/3 83/2/3
f 85/2/3 82/2/3 81/2/3
f 85/3/3 81/3/3 84/3/3
f 86/2/3 75/2/3 82/2/3
f 86/2/3 82/2/3 85/2/3
f 87/2/3 83/2/3 74/2/3
f 87/3/3 85/3/3 84/3/3
f 87/3/3 86/3/3 85/3/3
f 87/3/3 84/3/3 83/3/3
f 88/2/3 75/2/3 86/2/3
f 88/3/3 86/3/3 87/3/3
f 89/2/3 87/2/3 74/2/3
f 89/2/3 88/2/3 87/2/3
f 90/2/3 75/2/3 88/2/3
f 90/2/3 88/2/3 89/2/3
f 91/3/3 90/3/3 89/3/3
f 92/3/3 90/3/3 91/3/3
f 93/3/3 90/3/3 92/3/3
f 94/3/3 90/3/3 93/3/3
f 95/2/3 89/2/3 74/2/3
f 95/3/3 91/3/3 89/3/3
f 96/2/3 92/2/3 91/2/3
f 96/3/3 91/3/3 95/3/3
f 97/3/3 93/3/3 92/3/3
f 97/2/3 92/2/3 96/2/3
f 98/2/3 94/2/3 93/2/3
f 98/3/3 93/3/3 97/3/3
f 99/3/3 90/3/3 94/3/3
f 99/2/3 94/2/3 98/2/3
f 100/2/3 75/2/3 90/2/3
f 100/3/3 90/3/3 99/3/3
f 101/2/3 98/2/3 97/2/3
f 101/2/3 99/2/3 98/2/3
f 101/2/3 100/2/3 99/2/3
f 101/2/3 96/2/3 95/2/3
f 101/2/3 95/2/3 74/2/3
f 101/2/3 97/2/3 96/2/3
f 102/2/3 75/2/3 100/2/3
f 102/2/3 100/2/3 101/2/3
f 103/3/3 102/3/3 101/3/3
f 104/2/3 75/2/3 102/2/3
f 104/3/3 102/3/3 103/3/3
f 105/2/3 101/2/3 74/2/3
f 105/3/3 103/3/3 101/3/3
f 106/2/3 104/2/3 103/2/3
f 106/3/3 103/3/3 105/3/3
f 107/2/3 105/2/3 74/2/3
f 107/2/3 106/2/3 105/2/3
f 108/2/3 75/2/3 104/2/3
f 108/2/3 106/2/3 107/2/3
f 108/2/3 104/2/3 106/2/3
f 109/2/3 107/2/3 74/2/3
f 109/3/3 108/3/3 107/3/3
f 110/3/3 108/3/3 109/3/3
f 111/3/3 108/3/3 110/3/3
f 112/3/3 108/3/3 111/3/3
f 113/3/3 111/3/3 110/3/3
f 113/2/3 112/2/3 111/2/3
f 114/3/3 108/3/3 112/3/3
f 114/2/3 112/2/3 113/2/3
f 115/2/3 110/2/3 109/2/3
f 115/3/3 113/3/3 110/3/3
f 115/3/3 114/3/3 113/3/3
f 116/2/3 75/2/3 108/2/3
f 116/3/3 114/3/3 115/3/3
f 116/3/3 108/3/3 114/3/3
f 117/1/3 74/1/3 73/1/3
f 118/2/3 115/2/3 109/2/3
f 118/1/3 74/1/3 117/1/3
f 118/2/3 109/2/3 74/2/3
f 118/2/3 116/2/3 115/2/3
f 119/2/3 75/2/3 116/2/3
f 119/2/3 116/2/3 118/2/3
f 119/1/3 76/1/3 75/1/3
f 120/1/3 76/1/3 119/1/3
f 123/1/3 122/1/3 121/1/3
f 125/1/3 123/1/3 121/1/3
f 125/2/3 124/2/3 123/2/3
f 126/2/3 124/2/3 125/2/3
f 127/1/3 125/1/3 121/1/3
f 128/1/3 125/1/3 127/1/3
f 131/1/3 130/1/3 129/1/3
f 132/1/3 130/1/3 131/1/3
f 135/1/3 134/1/3 133/1/3
f 136/1/3 134/1/3 135/1/3
f 139/1/3 138/1/3 137/1/3
f 140/1/3 138/1/3 139/1/3
f 143/1/3 142/1/3 141/1/3
f 144/1/3 142/1/3 143/1/3
f 147/1/3 146/1/3 145/1/3
f 148/1/3 146/1/3 147/1/3
f 151/1/3 150/1/3 149/1/3
f 152/1/3 150/1/3 151/1/3
f 155/1/3 154/1/3 153/1/3
f 156/1/3 154/1/3 155/1/3
f 157/1/4 158/1/4 159/1/4
f 159/1/4 158/1/4 160/1/4
f 161/1/4 162/1/4 163/1/4
f 163/1/4 162/1/4 164/1/4
f 165/1/4 166/1/4 167/1/4
f 167/1/4 166/1/4 168/1/4
f 169/1/4 170/1/4 171/1/4
f 171/1/4 170/1/4 172/1/4
f 173/1/4 174/1/4 175/1/4
f 175/1/4 174/1/4 176/1/4
f 178/2/4 179/2/4 181/2/4
f 181/2/4 179/2/4 182/2/4
f 181/3/4 182/3/4 183/3/4
f 183/3/4 182/3/4 184/3/4
f 178/2/4 181/2/4 185/2/4
f 181/3/4 183/3/4 186/3/4
f 185/2/4 181/2/4 186/2/4
f 183/2/4 184/2/4 187/2/4
f 186/3/4 183/3/4 187/3/4
f 184/3/4 182/3/4 188/3/4
f 187/2/4 184/2/4 188/2/4
f 186/3/4 187/3/4 189/3/4
f 178/2/4 185/2/4 189/2/4
f 187/3/4 188/3/4 189/3/4
f 185/3/4 186/3/4 189/3/4
f 188/3/4 182/3/4 190/3/4
f 189/3/4 188/3/4 190/3/4
f 182/2/4 179/2/4 190/2/4
f 178/2/4 189/2/4 191/2/4
f 189/2/4 190/2/4 191/2/4
f 191/2/4 190/2/4 192/2/4
f 191/3/4 192/3/4 193/3/4
f 192/2/4 190/2/4 193/2/4
f 190/2/4 179/2/4 194/2/4
f 193/2/4 190/2/4 194/2/4
f 191/3/4 193/3/4 195/3/4
f 178/2/4 191/2/4 195/2/4
f 193/3/4 194/3/4 195/3/4
f 194/2/4 179/2/4 196/2/4
f 195/3/4 194/3/4 196/3/4
f 178/2/4 195/2/4 197/2/4
f 195/2/4 196/2/4 197/2/4
f 197/2/4 196/2/4 198/2/4
f 198/2/4 196/2/4 199/2/4
f 199/2/4 196/2/4 200/2/4
f 200/2/4 196/2/4 201/2/4
f 196/2/4 179/2/4 202/2/4
f 201/2/4 196/2/4 202/2/4
f 197/3/4 198/3/4 203/3/4
f 198/2/4 199/2/4 203/2/4
f 199/3/4 200/3/4 204/3/4
f 203/2/4 199/2/4 204/2/4
f 200/2/4 201/2/4 205/2/4
f 204/3/4 200/3/4 205/3/4
f 201/3/4 202/3/4 206/3/4
f 205/2/4 201/2/4 206/2/4
f 203/3/4 204/3/4 207/3/4
f 178/2/4 197/2/4 207/2/4
f 205/3/4 206/3/4 207/3/4
f 197/3/4 203/3/4 207/3/4
f 204/3/4 205/3/4 207/3/4
f 206/3/4 202/3/4 208/3/4
f 207/3/4 206/3/4 208/3/4
f 202/2/4 179/2/4 208/2/4
f 178/2/4 207/2/4 209/2/4
f 207/2/4 208/2/4 209/2/4
f 208/2/4 179/2/4 210/2/4
f 209/2/4 208/2/4 210/2/4
f 178/2/4 209/2/4 211/2/4
f 209/3/4 210/3/4 211/3/4
f 211/3/4 210/3/4 212/3/4
f 212/3/4 210/3/4 213/3/4
f 210/2/4 179/2/4 214/2/4
f 213/3/4 210/3/4 214/3/4
f 178/2/4 211/2/4 215/2/4
f 211/2/4 212/2/4 215/2/4
f 212/3/4 213/3/4 216/3/4
f 215/2/4 212/2/4 216/2/4
f 213/2/4 214/2/4 217/2/4
f 216/3/4 213/3/4 217/3/4
f 214/2/4 179/2/4 218/2/4
f 217/2/4 214/2/4 218/2/4
f 178/2/4 215/2/4 219/2/4
f 216/3/4 217/3/4 219/3/4
f 217/3/4 218/3/4 219/3/4
f 215/3/4 216/3/4 219/3/4
f 218/2/4 179/2/4 220/2/4
f 219/3/4 218/3/4 220/3/4
f 177/1/4 178/1/4 221/1/4
f 178/2/4 219/2/4 222/2/4
f 221/1/4 178/1/4 222/1/4
f 219/2/4 220/2/4 222/2/4
f 220/2/4 179/2/4 223/2/4
f 222/2/4 220/2/4 223/2/4
f 179/1/4 180/1/4 223/1/4
f 223/1/4 180/1/4 224/1/4
f 227/1/5 226/1/5 225/1/5
f 228/1/5 226/1/5 227/1/5
f 229/1/6 230/1/6 231/1/6
f 231/1/6 230/1/6 232/1/6
f 233/1/6 234/1/6 235/1/6
f 235/1/6 234/1/6 236/1/6
f 237/1/6 238/1/6 241/1/6
f 241/1/6 238/1/6 242/1/6
f 239/1/6 240/1/6 243/1/6
f 243/1/6 240/1/6 244/1/6
f 245/1/6 246/1/6 247/1/6
f 247/1/6 246/1/6 248/1/6
f 249/1/6 250/1/6 253/1/6
f 253/1/6 250/1/6 254/1/6
f 251/1/6 252/1/6 255/1/6
f 255/1/6 252/1/6 256/1/6
f 257/1/6 258/1/6 259/1/6
f 259/1/6 258/1/6 260/1/6
f 261/1/6 262/1/6 265/1/6
f 265/1/6 262/1/6 266/1/6
f 263/1/6 264/1/6 267/1/6
f 267/1/6 264/1/6 268/1/6
f 269/1/6 270/1/6 271/1/6
f 271/1/6 270/1/6 272/1/6
f 273/2/6 274/2/6 276/2/6
f 276/2/6 274/2/6 277/2/6
f 275/1/6 276/1/6 279/1/6
f 277/1/6 278/1/6 279/1/6
f 276/1/6 277/1/6 279/1/6
f 279/1/6 278/1/6 280/1/6
f 281/1/6 282/1/6 283/1/6
f 283/1/6 282/1/6 284/1/6
f 285/1/6 286/1/6 287/1/6
f 287/1/6 286/1/6 288/1/6
