# MagicaVoxel @ Ephtracy

# group
o 

# material
mtllib Rat.mtl
usemtl palette

# normals
vn -1 0 0
vn 1 0 0
vn 0 0 1
vn 0 0 -1
vn 0 -1 0
vn 0 1 0

# texcoords
vt 0.201172 0.5
vt 0.990234 0.5
vt 0.994141 0.5

# verts
v -0.9 -0.15 0.15
v -0.9 -0.15 -0.15
v -0.9 0.05 0.15
v -0.9 0.05 -0.15
v -0.8 -0.15 0.25
v -0.8 -0.15 0.15
v -0.8 -0.15 -0.15
v -0.8 -0.15 -0.25
v -0.8 0.05 0.15
v -0.8 0.05 -0.15
v -0.8 0.25 0.25
v -0.8 0.25 -0.25
v -0.4 0.25 0.25
v -0.4 0.25 0.15
v -0.4 0.25 -0.15
v -0.4 0.25 -0.25
v -0.4 0.35 0.25
v -0.4 0.35 0.15
v -0.4 0.35 -0.15
v -0.4 0.35 -0.25
v -0.3 -0.25 0.35
v -0.3 -0.25 -0.35
v -0.3 -0.15 0.25
v -0.3 -0.15 -0.25
v -0.3 0.25 0.35
v -0.3 0.25 0.25
v -0.3 0.25 -0.25
v -0.3 0.25 -0.35
v -0.2 -0.35 0.25
v -0.2 -0.35 0.15
v -0.2 -0.35 -0.15
v -0.2 -0.35 -0.25
v -0.2 -0.25 0.25
v -0.2 -0.25 0.15
v -0.2 -0.25 -0.15
v -0.2 -0.25 -0.25
v 0.5 -0.35 0.25
v 0.5 -0.35 0.15
v 0.5 -0.35 -0.15
v 0.5 -0.35 -0.25
v 0.5 -0.25 0.25
v 0.5 -0.25 0.15
v 0.5 -0.25 -0.15
v 0.5 -0.25 -0.25
v -0.3 0.25 0.25
v -0.3 0.25 0.15
v -0.3 0.25 -0.15
v -0.3 0.25 -0.25
v -0.3 0.35 0.25
v -0.3 0.35 0.15
v -0.3 0.35 -0.15
v -0.3 0.35 -0.25
v -0.1 -0.35 0.25
v -0.1 -0.35 0.15
v -0.1 -0.35 -0.15
v -0.1 -0.35 -0.25
v -0.1 -0.25 0.25
v -0.1 -0.25 0.15
v -0.1 -0.25 -0.15
v -0.1 -0.25 -0.25
v 0.6 -0.35 0.25
v 0.6 -0.35 0.15
v 0.6 -0.35 -0.15
v 0.6 -0.35 -0.25
v 0.6 -0.25 0.35
v 0.6 -0.25 0.25
v 0.6 -0.25 0.15
v 0.6 -0.25 -0.15
v 0.6 -0.25 -0.25
v 0.6 -0.25 -0.35
v 0.6 -0.05 0.05
v 0.6 -0.05 -0.05
v 0.6 0.05 0.05
v 0.6 0.05 -0.05
v 0.6 0.25 0.35
v 0.6 0.25 -0.35
v 0.9 -0.05 0.05
v 0.9 -0.05 -0.05
v 0.9 0.05 0.05
v 0.9 0.05 -0.05
v -0.3 -0.25 0.35
v -0.3 0.25 0.35
v 0.6 -0.25 0.35
v 0.6 0.25 0.35
v -0.8 -0.15 0.25
v -0.8 0.25 0.25
v -0.7 0.05 0.25
v -0.7 0.15 0.25
v -0.6 0.05 0.25
v -0.6 0.15 0.25
v -0.4 0.25 0.25
v -0.4 0.35 0.25
v -0.3 -0.15 0.25
v -0.3 0.25 0.25
v -0.3 0.35 0.25
v -0.2 -0.35 0.25
v -0.2 -0.25 0.25
v -0.1 -0.35 0.25
v -0.1 -0.25 0.25
v 0.5 -0.35 0.25
v 0.5 -0.25 0.25
v 0.6 -0.35 0.25
v 0.6 -0.25 0.25
v -0.9 -0.15 0.15
v -0.9 0.05 0.15
v -0.8 -0.15 0.15
v -0.8 0.05 0.15
v 0.6 -0.05 0.05
v 0.6 0.05 0.05
v 0.9 -0.05 0.05
v 0.9 0.05 0.05
v -0.4 0.25 -0.15
v -0.4 0.35 -0.15
v -0.3 0.25 -0.15
v -0.3 0.35 -0.15
v -0.2 -0.35 -0.15
v -0.2 -0.25 -0.15
v -0.1 -0.35 -0.15
v -0.1 -0.25 -0.15
v 0.5 -0.35 -0.15
v 0.5 -0.25 -0.15
v 0.6 -0.35 -0.15
v 0.6 -0.25 -0.15
v -0.4 0.25 0.15
v -0.4 0.35 0.15
v -0.3 0.25 0.15
v -0.3 0.35 0.15
v -0.2 -0.35 0.15
v -0.2 -0.25 0.15
v -0.1 -0.35 0.15
v -0.1 -0.25 0.15
v 0.5 -0.35 0.15
v 0.5 -0.25 0.15
v 0.6 -0.35 0.15
v 0.6 -0.25 0.15
v 0.6 -0.05 -0.05
v 0.6 0.05 -0.05
v 0.9 -0.05 -0.05
v 0.9 0.05 -0.05
v -0.9 -0.15 -0.15
v -0.9 0.05 -0.15
v -0.8 -0.15 -0.15
v -0.8 0.05 -0.15
v -0.8 -0.15 -0.25
v -0.8 0.25 -0.25
v -0.7 0.05 -0.25
v -0.7 0.15 -0.25
v -0.6 0.05 -0.25
v -0.6 0.15 -0.25
v -0.4 0.25 -0.25
v -0.4 0.35 -0.25
v -0.3 -0.15 -0.25
v -0.3 0.25 -0.25
v -0.3 0.35 -0.25
v -0.2 -0.35 -0.25
v -0.2 -0.25 -0.25
v -0.1 -0.35 -0.25
v -0.1 -0.25 -0.25
v 0.5 -0.35 -0.25
v 0.5 -0.25 -0.25
v 0.6 -0.35 -0.25
v 0.6 -0.25 -0.25
v -0.3 -0.25 -0.35
v -0.3 0.25 -0.35
v 0.6 -0.25 -0.35
v 0.6 0.25 -0.35
v -0.2 -0.35 0.25
v -0.1 -0.35 0.25
v 0.5 -0.35 0.25
v 0.6 -0.35 0.25
v -0.2 -0.35 0.15
v -0.1 -0.35 0.15
v 0.5 -0.35 0.15
v 0.6 -0.35 0.15
v -0.2 -0.35 -0.15
v -0.1 -0.35 -0.15
v 0.5 -0.35 -0.15
v 0.6 -0.35 -0.15
v -0.2 -0.35 -0.25
v -0.1 -0.35 -0.25
v 0.5 -0.35 -0.25
v 0.6 -0.35 -0.25
v -0.3 -0.25 0.35
v 0.6 -0.25 0.35
v -0.2 -0.25 0.25
v -0.1 -0.25 0.25
v 0.5 -0.25 0.25
v 0.6 -0.25 0.25
v -0.2 -0.25 0.15
v -0.1 -0.25 0.15
v 0.2 -0.25 0.15
v 0.5 -0.25 0.15
v 0.6 -0.25 0.15
v -0.1 -0.25 0.05
v 0 -0.25 0.05
v 0 -0.25 -0.05
v 0.2 -0.25 -0.05
v 0.5 -0.25 -0.05
v -0.2 -0.25 -0.15
v -0.1 -0.25 -0.15
v 0.1 -0.25 -0.15
v 0.2 -0.25 -0.15
v 0.5 -0.25 -0.15
v 0.6 -0.25 -0.15
v -0.2 -0.25 -0.25
v -0.1 -0.25 -0.25
v 0.1 -0.25 -0.25
v 0.2 -0.25 -0.25
v 0.5 -0.25 -0.25
v 0.6 -0.25 -0.25
v -0.3 -0.25 -0.35
v 0.6 -0.25 -0.35
v -0.8 -0.15 0.25
v -0.3 -0.15 0.25
v -0.9 -0.15 0.15
v -0.8 -0.15 0.15
v -0.9 -0.15 -0.15
v -0.8 -0.15 -0.15
v -0.8 -0.15 -0.25
v -0.3 -0.15 -0.25
v 0.6 -0.05 0.05
v 0.9 -0.05 0.05
v 0.6 -0.05 -0.05
v 0.9 -0.05 -0.05
v -0.9 0.05 0.15
v -0.8 0.05 0.15
v 0.6 0.05 0.05
v 0.9 0.05 0.05
v 0.6 0.05 -0.05
v 0.9 0.05 -0.05
v -0.9 0.05 -0.15
v -0.8 0.05 -0.15
v -0.3 0.25 0.35
v 0.6 0.25 0.35
v -0.8 0.25 0.25
v -0.4 0.25 0.25
v -0.3 0.25 0.25
v -0.4 0.25 0.15
v -0.3 0.25 0.15
v -0.4 0.25 -0.15
v -0.3 0.25 -0.15
v -0.8 0.25 -0.25
v -0.4 0.25 -0.25
v -0.3 0.25 -0.25
v -0.3 0.25 -0.35
v 0.6 0.25 -0.35
v -0.4 0.35 0.25
v -0.3 0.35 0.25
v -0.4 0.35 0.15
v -0.3 0.35 0.15
v -0.4 0.35 -0.15
v -0.3 0.35 -0.15
v -0.4 0.35 -0.25
v -0.3 0.35 -0.25

# faces
f 3/1/1 2/1/1 1/1/1
f 4/1/1 2/1/1 3/1/1
f 9/2/1 6/2/1 5/2/1
f 10/2/1 8/2/1 7/2/1
f 11/2/1 9/2/1 5/2/1
f 11/2/1 10/2/1 9/2/1
f 12/2/1 8/2/1 10/2/1
f 12/2/1 10/2/1 11/2/1
f 17/1/1 14/1/1 13/1/1
f 18/1/1 14/1/1 17/1/1
f 19/1/1 16/1/1 15/1/1
f 20/1/1 16/1/1 19/1/1
f 23/2/1 22/2/1 21/2/1
f 24/2/1 22/2/1 23/2/1
f 25/2/1 23/2/1 21/2/1
f 26/2/1 23/2/1 25/2/1
f 27/2/1 22/2/1 24/2/1
f 28/2/1 22/2/1 27/2/1
f 33/1/1 30/1/1 29/1/1
f 34/1/1 30/1/1 33/1/1
f 35/1/1 32/1/1 31/1/1
f 36/1/1 32/1/1 35/1/1
f 41/1/1 38/1/1 37/1/1
f 42/1/1 38/1/1 41/1/1
f 43/1/1 40/1/1 39/1/1
f 44/1/1 40/1/1 43/1/1
f 45/1/2 46/1/2 49/1/2
f 49/1/2 46/1/2 50/1/2
f 47/1/2 48/1/2 51/1/2
f 51/1/2 48/1/2 52/1/2
f 53/1/2 54/1/2 57/1/2
f 57/1/2 54/1/2 58/1/2
f 55/1/2 56/1/2 59/1/2
f 59/1/2 56/1/2 60/1/2
f 61/1/2 62/1/2 66/1/2
f 66/1/2 62/1/2 67/1/2
f 63/1/2 64/1/2 68/1/2
f 68/1/2 64/1/2 69/1/2
f 66/2/2 67/2/2 71/2/2
f 69/2/2 70/2/2 71/2/2
f 68/2/2 69/2/2 71/2/2
f 67/2/2 68/2/2 71/2/2
f 65/2/2 66/2/2 71/2/2
f 71/2/2 70/2/2 72/2/2
f 65/2/2 71/2/2 73/2/2
f 72/2/2 70/2/2 74/2/2
f 65/2/2 73/2/2 75/2/2
f 73/2/2 74/2/2 75/2/2
f 74/2/2 70/2/2 76/2/2
f 75/2/2 74/2/2 76/2/2
f 77/1/2 78/1/2 79/1/2
f 79/1/2 78/1/2 80/1/2
f 83/2/3 82/2/3 81/2/3
f 84/2/3 82/2/3 83/2/3
f 87/2/3 86/2/3 85/2/3
f 88/2/3 86/2/3 87/2/3
f 89/2/3 87/2/3 85/2/3
f 89/3/3 88/3/3 87/3/3
f 90/2/3 86/2/3 88/2/3
f 90/3/3 88/3/3 89/3/3
f 91/2/3 90/2/3 89/2/3
f 91/2/3 86/2/3 90/2/3
f 93/2/3 89/2/3 85/2/3
f 93/2/3 91/2/3 89/2/3
f 94/1/3 92/1/3 91/1/3
f 94/2/3 91/2/3 93/2/3
f 95/1/3 92/1/3 94/1/3
f 98/1/3 97/1/3 96/1/3
f 99/1/3 97/1/3 98/1/3
f 102/1/3 101/1/3 100/1/3
f 103/1/3 101/1/3 102/1/3
f 106/1/3 105/1/3 104/1/3
f 107/1/3 105/1/3 106/1/3
f 110/1/3 109/1/3 108/1/3
f 111/1/3 109/1/3 110/1/3
f 114/1/3 113/1/3 112/1/3
f 115/1/3 113/1/3 114/1/3
f 118/1/3 117/1/3 116/1/3
f 119/1/3 117/1/3 118/1/3
f 122/1/3 121/1/3 120/1/3
f 123/1/3 121/1/3 122/1/3
f 124/1/4 125/1/4 126/1/4
f 126/1/4 125/1/4 127/1/4
f 128/1/4 129/1/4 130/1/4
f 130/1/4 129/1/4 131/1/4
f 132/1/4 133/1/4 134/1/4
f 134/1/4 133/1/4 135/1/4
f 136/1/4 137/1/4 138/1/4
f 138/1/4 137/1/4 139/1/4
f 140/1/4 141/1/4 142/1/4
f 142/1/4 141/1/4 143/1/4
f 144/2/4 145/2/4 146/2/4
f 146/2/4 145/2/4 147/2/4
f 144/2/4 146/2/4 148/2/4
f 146/3/4 147/3/4 148/3/4
f 147/2/4 145/2/4 149/2/4
f 148/3/4 147/3/4 149/3/4
f 148/2/4 149/2/4 150/2/4
f 149/2/4 145/2/4 150/2/4
f 144/2/4 148/2/4 152/2/4
f 148/2/4 150/2/4 152/2/4
f 150/1/4 151/1/4 153/1/4
f 152/2/4 150/2/4 153/2/4
f 153/1/4 151/1/4 154/1/4
f 155/1/4 156/1/4 157/1/4
f 157/1/4 156/1/4 158/1/4
f 159/1/4 160/1/4 161/1/4
f 161/1/4 160/1/4 162/1/4
f 163/2/4 164/2/4 165/2/4
f 165/2/4 164/2/4 166/2/4
f 171/1/5 168/1/5 167/1/5
f 172/1/5 168/1/5 171/1/5
f 173/1/5 170/1/5 169/1/5
f 174/1/5 170/1/5 173/1/5
f 179/1/5 176/1/5 175/1/5
f 180/1/5 176/1/5 179/1/5
f 181/1/5 178/1/5 177/1/5
f 182/1/5 178/1/5 181/1/5
f 185/2/5 184/2/5 183/2/5
f 186/2/5 184/2/5 185/2/5
f 187/2/5 184/2/5 186/2/5
f 188/2/5 184/2/5 187/2/5
f 189/2/5 185/2/5 183/2/5
f 190/2/5 187/2/5 186/2/5
f 191/2/5 187/2/5 190/2/5
f 192/2/5 187/2/5 191/2/5
f 194/2/5 190/2/5 189/2/5
f 194/3/5 191/3/5 190/3/5
f 195/3/5 191/3/5 194/3/5
f 196/2/5 195/2/5 194/2/5
f 196/3/5 191/3/5 195/3/5
f 197/2/5 193/2/5 192/2/5
f 197/3/5 191/3/5 196/3/5
f 197/2/5 192/2/5 191/2/5
f 198/2/5 193/2/5 197/2/5
f 199/2/5 189/2/5 183/2/5
f 199/2/5 196/2/5 194/2/5
f 199/2/5 194/2/5 189/2/5
f 199/2/5 197/2/5 196/2/5
f 200/2/5 197/2/5 199/2/5
f 201/2/5 197/2/5 200/2/5
f 202/3/5 198/3/5 197/3/5
f 202/2/5 197/2/5 201/2/5
f 203/2/5 193/2/5 198/2/5
f 203/3/5 198/3/5 202/3/5
f 204/2/5 193/2/5 203/2/5
f 205/2/5 199/2/5 183/2/5
f 206/2/5 201/2/5 200/2/5
f 207/3/5 202/3/5 201/3/5
f 207/2/5 201/2/5 206/2/5
f 208/2/5 203/2/5 202/2/5
f 208/3/5 202/3/5 207/3/5
f 209/2/5 203/2/5 208/2/5
f 211/2/5 206/2/5 205/2/5
f 211/2/5 210/2/5 209/2/5
f 211/2/5 209/2/5 208/2/5
f 211/2/5 208/2/5 207/2/5
f 211/2/5 205/2/5 183/2/5
f 211/2/5 207/2/5 206/2/5
f 212/2/5 210/2/5 211/2/5
f 216/2/5 214/2/5 213/2/5
f 217/1/5 216/1/5 215/1/5
f 218/2/5 214/2/5 216/2/5
f 218/1/5 216/1/5 217/1/5
f 219/2/5 214/2/5 218/2/5
f 220/2/5 214/2/5 219/2/5
f 223/1/5 222/1/5 221/1/5
f 224/1/5 222/1/5 223/1/5
f 227/1/6 228/1/6 229/1/6
f 229/1/6 228/1/6 230/1/6
f 225/1/6 226/1/6 231/1/6
f 231/1/6 226/1/6 232/1/6
f 233/2/6 234/2/6 237/2/6
f 235/2/6 236/2/6 238/2/6
f 237/2/6 234/2/6 239/2/6
f 235/2/6 238/2/6 240/2/6
f 238/2/6 239/2/6 240/2/6
f 239/2/6 234/2/6 241/2/6
f 240/2/6 239/2/6 241/2/6
f 235/2/6 240/2/6 242/2/6
f 242/2/6 240/2/6 243/2/6
f 241/2/6 234/2/6 244/2/6
f 244/2/6 234/2/6 245/2/6
f 245/2/6 234/2/6 246/2/6
f 247/1/6 248/1/6 249/1/6
f 249/1/6 248/1/6 250/1/6
f 251/1/6 252/1/6 253/1/6
f 253/1/6 252/1/6 254/1/6
