# MagicaVoxel @ Ephtracy

# group
o 

# material
mtllib BloodFloor.mtl
usemtl palette

# normals
vn -1 0 0
vn 1 0 0
vn 0 0 1
vn 0 0 -1
vn 0 -1 0
vn 0 1 0

# texcoords
vt 0.861328 0.5
vt 0.869141 0.5

# verts
v -2 -0.15 2
v -2 -0.15 -2
v -2 -0.05 2
v -2 -0.05 -2
v -1.3 -0.05 0.7
v -1.3 -0.05 -0.0999999
v -1.3 0.05 0.7
v -1.3 0.05 -0.0999999
v -1.2 -0.05 1.7
v -1.2 -0.05 1.3
v -1.2 0.05 1.7
v -1.2 0.05 1.3
v -1 0.05 0.3
v -1 0.05 0.2
v -1 0.15 0.3
v -1 0.15 0.2
v -0.8 0.05 1.7
v -0.8 0.05 1.4
v -0.8 0.15 1.7
v -0.8 0.15 1.4
v -0.7 -0.05 0.3
v -0.7 -0.05 0
v -0.7 -0.05 -1.5
v -0.7 -0.05 -1.9
v -0.7 0.05 0.3
v -0.7 0.05 0
v -0.7 0.05 -1.5
v -0.7 0.05 -1.9
v -0.6 -0.05 0.4
v -0.6 -0.05 0.3
v -0.6 0.05 0.3
v -0.6 0.05 0.2
v -0.6 0.05 -1.6
v -0.6 0.05 -1.7
v -0.6 0.15 0.4
v -0.6 0.15 0.2
v -0.6 0.15 -1.6
v -0.6 0.15 -1.7
v -0.5 -0.05 -0.6
v -0.5 -0.05 -0.9
v -0.5 0.05 -0.6
v -0.5 0.05 -0.9
v -0.1 -0.05 -0.9
v -0.1 -0.05 -1
v -0.1 0.05 -0.9
v -0.1 0.05 -1
v 0.6 -0.05 0.7
v 0.6 -0.05 0.3
v 0.6 0.05 0.7
v 0.6 0.05 0.6
v 0.6 0.05 0.5
v 0.6 0.05 0.3
v 0.6 0.15 0.6
v 0.6 0.15 0.5
v 0.9 -0.05 0.5
v 0.9 -0.05 0.4
v 0.9 0.05 0.5
v 0.9 0.05 0.4
v 1 -0.05 1.4
v 1 -0.05 1
v 1 0.05 1.4
v 1 0.05 1
v 1.2 -0.05 -0.6
v 1.2 -0.05 -1.4
v 1.2 0.05 1.3
v 1.2 0.05 1.2
v 1.2 0.05 -0.6
v 1.2 0.05 -1.4
v 1.2 0.15 1.3
v 1.2 0.15 1.2
v 1.3 0.05 1.4
v 1.3 0.05 1.3
v 1.3 0.15 1.4
v 1.3 0.15 1.3
v 1.4 0.05 -0.8
v 1.4 0.05 -1
v 1.4 0.15 -0.8
v 1.4 0.15 -1
v 1.5 0.05 -1.1
v 1.5 0.05 -1.4
v 1.5 0.15 -1.1
v 1.5 0.15 -1.4
v -0.9 0.05 0.3
v -0.9 0.05 0.2
v -0.9 0.15 0.3
v -0.9 0.15 0.2
v -0.8 -0.05 0.7
v -0.8 -0.05 -0.0999999
v -0.8 0.05 0.7
v -0.8 0.05 -0.0999999
v -0.7 -0.05 1.4
v -0.7 -0.05 1.3
v -0.7 0.05 1.4
v -0.7 0.05 1.3
v -0.6 -0.05 1.7
v -0.6 -0.05 1.4
v -0.6 0.15 1.7
v -0.6 0.15 1.4
v -0.5 0.05 -1.6
v -0.5 0.05 -1.7
v -0.5 0.15 -1.6
v -0.5 0.15 -1.7
v -0.4 -0.05 0.4
v -0.4 -0.05 0.3
v -0.4 -0.05 -0.6
v -0.4 -0.05 -0.9
v -0.4 -0.05 -1.5
v -0.4 -0.05 -1.9
v -0.4 0.05 0.3
v -0.4 0.05 0.2
v -0.4 0.05 -0.6
v -0.4 0.05 -0.9
v -0.4 0.05 -1.5
v -0.4 0.05 -1.9
v -0.4 0.15 0.4
v -0.4 0.15 0.2
v -0.3 -0.05 0.3
v -0.3 -0.05 0
v -0.3 0.05 0.3
v -0.3 0.05 0
v 0.3 -0.05 -0.9
v 0.3 -0.05 -1
v 0.3 0.05 -0.9
v 0.3 0.05 -1
v 0.7 0.05 0.6
v 0.7 0.05 0.5
v 0.7 0.15 0.6
v 0.7 0.15 0.5
v 0.8 -0.05 0.6
v 0.8 -0.05 0.3
v 0.8 0.05 0.6
v 0.8 0.05 0.3
v 0.9 -0.05 0.7
v 0.9 -0.05 0.6
v 0.9 0.05 0.7
v 0.9 0.05 0.6
v 1.4 -0.05 0.5
v 1.4 -0.05 0.4
v 1.4 0.05 0.5
v 1.4 0.05 0.4
v 1.5 -0.05 1.4
v 1.5 -0.05 1
v 1.5 0.05 1.4
v 1.5 0.05 1.2
v 1.5 0.05 1
v 1.5 0.05 -0.8
v 1.5 0.05 -1
v 1.5 0.15 1.4
v 1.5 0.15 1.2
v 1.5 0.15 -0.8
v 1.5 0.15 -1
v 1.8 -0.05 -0.6
v 1.8 -0.05 -1.4
v 1.8 0.05 -0.6
v 1.8 0.05 -1.1
v 1.8 0.05 -1.4
v 1.8 0.15 -1.1
v 1.8 0.15 -1.4
v 2 -0.15 2
v 2 -0.15 -2
v 2 -0.05 2
v 2 -0.05 -2
v -2 -0.15 2
v -2 -0.05 2
v 2 -0.15 2
v 2 -0.05 2
v -1.2 -0.05 1.7
v -1.2 0.05 1.7
v -0.8 0.05 1.7
v -0.8 0.15 1.7
v -0.7 -0.05 1.7
v -0.7 0.05 1.7
v -0.6 -0.05 1.7
v -0.6 0.15 1.7
v 1 -0.05 1.4
v 1 0.05 1.4
v 1.3 0.05 1.4
v 1.3 0.15 1.4
v 1.5 -0.05 1.4
v 1.5 0.05 1.4
v 1.5 0.15 1.4
v 1.2 0.05 1.3
v 1.2 0.15 1.3
v 1.3 0.05 1.3
v 1.3 0.15 1.3
v -1.3 -0.05 0.7
v -1.3 0.05 0.7
v -0.8 -0.05 0.7
v -0.8 0.05 0.7
v 0.6 -0.05 0.7
v 0.6 0.05 0.7
v 0.8 -0.05 0.7
v 0.8 0.05 0.7
v 0.9 -0.05 0.7
v 0.9 0.05 0.7
v 0.6 0.05 0.6
v 0.6 0.15 0.6
v 0.7 0.05 0.6
v 0.7 0.15 0.6
v 0.9 -0.05 0.5
v 0.9 0.05 0.5
v 1.4 -0.05 0.5
v 1.4 0.05 0.5
v -0.6 -0.05 0.4
v -0.6 0.15 0.4
v -0.4 -0.05 0.4
v -0.4 0.15 0.4
v -1 0.05 0.3
v -1 0.15 0.3
v -0.9 0.05 0.3
v -0.9 0.15 0.3
v -0.7 -0.05 0.3
v -0.7 0.05 0.3
v -0.6 -0.05 0.3
v -0.6 0.05 0.3
v -0.4 -0.05 0.3
v -0.4 0.05 0.3
v -0.3 -0.05 0.3
v -0.3 0.05 0.3
v -0.5 -0.05 -0.6
v -0.5 0.05 -0.6
v -0.4 -0.05 -0.6
v -0.4 0.05 -0.6
v 1.2 -0.05 -0.6
v 1.2 0.05 -0.6
v 1.8 -0.05 -0.6
v 1.8 0.05 -0.6
v 1.4 0.05 -0.8
v 1.4 0.15 -0.8
v 1.5 0.05 -0.8
v 1.5 0.15 -0.8
v -0.1 -0.05 -0.9
v -0.1 0.05 -0.9
v 0.3 -0.05 -0.9
v 0.3 0.05 -0.9
v 1.5 0.05 -1.1
v 1.5 0.15 -1.1
v 1.8 0.05 -1.1
v 1.8 0.15 -1.1
v -0.7 -0.05 -1.5
v -0.7 0.05 -1.5
v -0.4 -0.05 -1.5
v -0.4 0.05 -1.5
v -0.6 0.05 -1.6
v -0.6 0.15 -1.6
v -0.5 0.05 -1.6
v -0.5 0.15 -1.6
v -0.8 0.05 1.4
v -0.8 0.15 1.4
v -0.7 -0.05 1.4
v -0.7 0.05 1.4
v -0.6 -0.05 1.4
v -0.6 0.15 1.4
v -1.2 -0.05 1.3
v -1.2 0.05 1.3
v -0.7 -0.05 1.3
v -0.7 0.05 1.3
v 1.2 0.05 1.2
v 1.2 0.15 1.2
v 1.5 0.05 1.2
v 1.5 0.15 1.2
v 1 -0.05 1
v 1 0.05 1
v 1.5 -0.05 1
v 1.5 0.05 1
v 0.8 -0.05 0.6
v 0.8 0.05 0.6
v 0.9 -0.05 0.6
v 0.9 0.05 0.6
v 0.6 0.05 0.5
v 0.6 0.15 0.5
v 0.7 0.05 0.5
v 0.7 0.15 0.5
v 0.9 -0.05 0.4
v 0.9 0.05 0.4
v 1.4 -0.05 0.4
v 1.4 0.05 0.4
v 0.6 -0.05 0.3
v 0.6 0.05 0.3
v 0.8 -0.05 0.3
v 0.8 0.05 0.3
v -1 0.05 0.2
v -1 0.15 0.2
v -0.9 0.05 0.2
v -0.9 0.15 0.2
v -0.6 0.05 0.2
v -0.6 0.15 0.2
v -0.4 0.05 0.2
v -0.4 0.15 0.2
v -0.7 -0.05 0
v -0.7 0.05 0
v -0.3 -0.05 0
v -0.3 0.05 0
v -1.3 -0.05 -0.0999999
v -1.3 0.05 -0.0999999
v -0.8 -0.05 -0.0999999
v -0.8 0.05 -0.0999999
v -0.5 -0.05 -0.9
v -0.5 0.05 -0.9
v -0.4 -0.05 -0.9
v -0.4 0.05 -0.9
v -0.1 -0.05 -1
v -0.1 0.05 -1
v 0.3 -0.05 -1
v 0.3 0.05 -1
v 1.4 0.05 -1
v 1.4 0.15 -1
v 1.5 0.05 -1
v 1.5 0.15 -1
v 1.2 -0.05 -1.4
v 1.2 0.05 -1.4
v 1.5 0.05 -1.4
v 1.5 0.15 -1.4
v 1.8 -0.05 -1.4
v 1.8 0.05 -1.4
v 1.8 0.15 -1.4
v -0.6 0.05 -1.7
v -0.6 0.15 -1.7
v -0.5 0.05 -1.7
v -0.5 0.15 -1.7
v -0.7 -0.05 -1.9
v -0.7 0.05 -1.9
v -0.4 -0.05 -1.9
v -0.4 0.05 -1.9
v -2 -0.15 -2
v -2 -0.05 -2
v 2 -0.15 -2
v 2 -0.05 -2
v -2 -0.15 2
v 2 -0.15 2
v -2 -0.15 -2
v 2 -0.15 -2
v -2 -0.05 2
v 2 -0.05 2
v -1.2 -0.05 1.7
v -0.7 -0.05 1.7
v -0.6 -0.05 1.7
v -0.7 -0.05 1.4
v -0.6 -0.05 1.4
v 1 -0.05 1.4
v 1.5 -0.05 1.4
v -1.2 -0.05 1.3
v -0.7 -0.05 1.3
v 1 -0.05 1
v 1.5 -0.05 1
v -1.3 -0.05 0.7
v -0.8 -0.05 0.7
v 0.6 -0.05 0.7
v 0.8 -0.05 0.7
v 0.9 -0.05 0.7
v 0.8 -0.05 0.6
v 0.9 -0.05 0.6
v 0.9 -0.05 0.5
v 1.4 -0.05 0.5
v -0.6 -0.05 0.4
v -0.4 -0.05 0.4
v 0.9 -0.05 0.4
v 1.4 -0.05 0.4
v -0.7 -0.05 0.3
v -0.6 -0.05 0.3
v -0.4 -0.05 0.3
v -0.3 -0.05 0.3
v 0.6 -0.05 0.3
v 0.8 -0.05 0.3
v -0.7 -0.05 0
v -0.3 -0.05 0
v -1.3 -0.05 -0.0999999
v -0.8 -0.05 -0.0999999
v -0.5 -0.05 -0.6
v -0.4 -0.05 -0.6
v 1.2 -0.05 -0.6
v 1.8 -0.05 -0.6
v -0.5 -0.05 -0.9
v -0.4 -0.05 -0.9
v -0.1 -0.05 -0.9
v 0.3 -0.05 -0.9
v -0.1 -0.05 -1
v 0.3 -0.05 -1
v 1.2 -0.05 -1.4
v 1.8 -0.05 -1.4
v -0.7 -0.05 -1.5
v -0.4 -0.05 -1.5
v -0.7 -0.05 -1.9
v -0.4 -0.05 -1.9
v -2 -0.05 -2
v 2 -0.05 -2
v -1.2 0.05 1.7
v -0.8 0.05 1.7
v -0.8 0.05 1.4
v -0.7 0.05 1.4
v 1 0.05 1.4
v 1.3 0.05 1.4
v -1.2 0.05 1.3
v -0.7 0.05 1.3
v 1.2 0.05 1.3
v 1.3 0.05 1.3
v 1.2 0.05 1.2
v 1.5 0.05 1.2
v 1 0.05 1
v 1.5 0.05 1
v -1.3 0.05 0.7
v -0.8 0.05 0.7
v 0.6 0.05 0.7
v 0.8 0.05 0.7
v 0.9 0.05 0.7
v 0.6 0.05 0.6
v 0.7 0.05 0.6
v 0.8 0.05 0.6
v 0.9 0.05 0.6
v 0.6 0.05 0.5
v 0.7 0.05 0.5
v 0.9 0.05 0.5
v 1.4 0.05 0.5
v 0.9 0.05 0.4
v 1.4 0.05 0.4
v -1 0.05 0.3
v -0.9 0.05 0.3
v -0.7 0.05 0.3
v -0.6 0.05 0.3
v -0.4 0.05 0.3
v -0.3 0.05 0.3
v 0.6 0.05 0.3
v 0.8 0.05 0.3
v -1 0.05 0.2
v -0.9 0.05 0.2
v -0.6 0.05 0.2
v -0.4 0.05 0.2
v -0.7 0.05 0
v -0.3 0.05 0
v -1.3 0.05 -0.0999999
v -0.8 0.05 -0.0999999
v -0.5 0.05 -0.6
v -0.4 0.05 -0.6
v 1.2 0.05 -0.6
v 1.8 0.05 -0.6
v 1.4 0.05 -0.8
v 1.5 0.05 -0.8
v -0.5 0.05 -0.9
v -0.4 0.05 -0.9
v -0.1 0.05 -0.9
v 0.3 0.05 -0.9
v -0.1 0.05 -1
v 0.3 0.05 -1
v 1.4 0.05 -1
v 1.5 0.05 -1
v 1.5 0.05 -1.1
v 1.8 0.05 -1.1
v 1.2 0.05 -1.4
v 1.5 0.05 -1.4
v -0.7 0.05 -1.5
v -0.4 0.05 -1.5
v -0.6 0.05 -1.6
v -0.5 0.05 -1.6
v -0.6 0.05 -1.7
v -0.5 0.05 -1.7
v -0.7 0.05 -1.9
v -0.4 0.05 -1.9
v -0.8 0.15 1.7
v -0.6 0.15 1.7
v -0.8 0.15 1.4
v -0.6 0.15 1.4
v 1.3 0.15 1.4
v 1.5 0.15 1.4
v 1.2 0.15 1.3
v 1.3 0.15 1.3
v 1.2 0.15 1.2
v 1.5 0.15 1.2
v 0.6 0.15 0.6
v 0.7 0.15 0.6
v 0.6 0.15 0.5
v 0.7 0.15 0.5
v -0.6 0.15 0.4
v -0.4 0.15 0.4
v -1 0.15 0.3
v -0.9 0.15 0.3
v -1 0.15 0.2
v -0.9 0.15 0.2
v -0.6 0.15 0.2
v -0.4 0.15 0.2
v 1.4 0.15 -0.8
v 1.5 0.15 -0.8
v 1.4 0.15 -1
v 1.5 0.15 -1
v 1.5 0.15 -1.1
v 1.8 0.15 -1.1
v 1.5 0.15 -1.4
v 1.8 0.15 -1.4
v -0.6 0.15 -1.6
v -0.5 0.15 -1.6
v -0.6 0.15 -1.7
v -0.5 0.15 -1.7

# faces
f 3/2/1 2/2/1 1/2/1
f 4/2/1 2/2/1 3/2/1
f 7/1/1 6/1/1 5/1/1
f 8/1/1 6/1/1 7/1/1
f 11/1/1 10/1/1 9/1/1
f 12/1/1 10/1/1 11/1/1
f 15/2/1 14/2/1 13/2/1
f 16/2/1 14/2/1 15/2/1
f 19/2/1 18/2/1 17/2/1
f 20/2/1 18/2/1 19/2/1
f 25/1/1 22/1/1 21/1/1
f 26/1/1 22/1/1 25/1/1
f 27/1/1 24/1/1 23/1/1
f 28/1/1 24/1/1 27/1/1
f 31/2/1 30/2/1 29/2/1
f 35/2/1 31/2/1 29/2/1
f 35/2/1 32/2/1 31/2/1
f 36/2/1 32/2/1 35/2/1
f 37/2/1 34/2/1 33/2/1
f 38/2/1 34/2/1 37/2/1
f 41/2/1 40/2/1 39/2/1
f 42/2/1 40/2/1 41/2/1
f 45/2/1 44/2/1 43/2/1
f 46/2/1 44/2/1 45/2/1
f 49/1/1 48/1/1 47/1/1
f 50/1/1 48/1/1 49/1/1
f 51/1/1 48/1/1 50/1/1
f 52/1/1 48/1/1 51/1/1
f 53/2/1 51/2/1 50/2/1
f 54/2/1 51/2/1 53/2/1
f 57/2/1 56/2/1 55/2/1
f 58/2/1 56/2/1 57/2/1
f 61/1/1 60/1/1 59/1/1
f 62/1/1 60/1/1 61/1/1
f 67/1/1 64/1/1 63/1/1
f 68/1/1 64/1/1 67/1/1
f 69/2/1 66/2/1 65/2/1
f 70/2/1 66/2/1 69/2/1
f 73/2/1 72/2/1 71/2/1
f 74/2/1 72/2/1 73/2/1
f 77/2/1 76/2/1 75/2/1
f 78/2/1 76/2/1 77/2/1
f 81/2/1 80/2/1 79/2/1
f 82/2/1 80/2/1 81/2/1
f 83/2/2 84/2/2 85/2/2
f 85/2/2 84/2/2 86/2/2
f 87/1/2 88/1/2 89/1/2
f 89/1/2 88/1/2 90/1/2
f 91/1/2 92/1/2 93/1/2
f 93/1/2 92/1/2 94/1/2
f 95/2/2 96/2/2 97/2/2
f 97/2/2 96/2/2 98/2/2
f 99/2/2 100/2/2 101/2/2
f 101/2/2 100/2/2 102/2/2
f 103/2/2 104/2/2 109/2/2
f 105/2/2 106/2/2 111/2/2
f 111/2/2 106/2/2 112/2/2
f 107/1/2 108/1/2 113/1/2
f 113/1/2 108/1/2 114/1/2
f 109/2/2 110/2/2 115/2/2
f 103/2/2 109/2/2 115/2/2
f 115/2/2 110/2/2 116/2/2
f 117/1/2 118/1/2 119/1/2
f 119/1/2 118/1/2 120/1/2
f 121/2/2 122/2/2 123/2/2
f 123/2/2 122/2/2 124/2/2
f 125/2/2 126/2/2 127/2/2
f 127/2/2 126/2/2 128/2/2
f 129/1/2 130/1/2 131/1/2
f 131/1/2 130/1/2 132/1/2
f 133/2/2 134/2/2 135/2/2
f 135/2/2 134/2/2 136/2/2
f 137/2/2 138/2/2 139/2/2
f 139/2/2 138/2/2 140/2/2
f 141/1/2 142/1/2 143/1/2
f 143/1/2 142/1/2 144/1/2
f 144/1/2 142/1/2 145/1/2
f 143/2/2 144/2/2 148/2/2
f 148/2/2 144/2/2 149/2/2
f 146/2/2 147/2/2 150/2/2
f 150/2/2 147/2/2 151/2/2
f 152/1/2 153/1/2 154/1/2
f 154/1/2 153/1/2 155/1/2
f 155/1/2 153/1/2 156/1/2
f 155/2/2 156/2/2 157/2/2
f 157/2/2 156/2/2 158/2/2
f 159/2/2 160/2/2 161/2/2
f 161/2/2 160/2/2 162/2/2
f 165/2/3 164/2/3 163/2/3
f 166/2/3 164/2/3 165/2/3
f 169/1/3 168/1/3 167/1/3
f 171/1/3 169/1/3 167/1/3
f 172/2/3 170/2/3 169/2/3
f 172/1/3 169/1/3 171/1/3
f 173/2/3 172/2/3 171/2/3
f 174/2/3 170/2/3 172/2/3
f 174/2/3 172/2/3 173/2/3
f 177/1/3 176/1/3 175/1/3
f 179/1/3 177/1/3 175/1/3
f 180/2/3 178/2/3 177/2/3
f 180/1/3 177/1/3 179/1/3
f 181/2/3 178/2/3 180/2/3
f 184/2/3 183/2/3 182/2/3
f 185/2/3 183/2/3 184/2/3
f 188/1/3 187/1/3 186/1/3
f 189/1/3 187/1/3 188/1/3
f 192/1/3 191/1/3 190/1/3
f 193/1/3 191/1/3 192/1/3
f 194/2/3 193/2/3 192/2/3
f 195/2/3 193/2/3 194/2/3
f 198/2/3 197/2/3 196/2/3
f 199/2/3 197/2/3 198/2/3
f 202/2/3 201/2/3 200/2/3
f 203/2/3 201/2/3 202/2/3
f 206/2/3 205/2/3 204/2/3
f 207/2/3 205/2/3 206/2/3
f 210/2/3 209/2/3 208/2/3
f 211/2/3 209/2/3 210/2/3
f 214/1/3 213/1/3 212/1/3
f 215/1/3 213/1/3 214/1/3
f 218/1/3 217/1/3 216/1/3
f 219/1/3 217/1/3 218/1/3
f 222/2/3 221/2/3 220/2/3
f 223/2/3 221/2/3 222/2/3
f 226/1/3 225/1/3 224/1/3
f 227/1/3 225/1/3 226/1/3
f 230/2/3 229/2/3 228/2/3
f 231/2/3 229/2/3 230/2/3
f 234/2/3 233/2/3 232/2/3
f 235/2/3 233/2/3 234/2/3
f 238/2/3 237/2/3 236/2/3
f 239/2/3 237/2/3 238/2/3
f 242/1/3 241/1/3 240/1/3
f 243/1/3 241/1/3 242/1/3
f 246/2/3 245/2/3 244/2/3
f 247/2/3 245/2/3 246/2/3
f 248/2/4 249/2/4 251/2/4
f 250/2/4 251/2/4 252/2/4
f 251/2/4 249/2/4 253/2/4
f 252/2/4 251/2/4 253/2/4
f 254/1/4 255/1/4 256/1/4
f 256/1/4 255/1/4 257/1/4
f 258/2/4 259/2/4 260/2/4
f 260/2/4 259/2/4 261/2/4
f 262/1/4 263/1/4 264/1/4
f 264/1/4 263/1/4 265/1/4
f 266/2/4 267/2/4 268/2/4
f 268/2/4 267/2/4 269/2/4
f 270/2/4 271/2/4 272/2/4
f 272/2/4 271/2/4 273/2/4
f 274/2/4 275/2/4 276/2/4
f 276/2/4 275/2/4 277/2/4
f 278/1/4 279/1/4 280/1/4
f 280/1/4 279/1/4 281/1/4
f 282/2/4 283/2/4 284/2/4
f 284/2/4 283/2/4 285/2/4
f 286/2/4 287/2/4 288/2/4
f 288/2/4 287/2/4 289/2/4
f 290/1/4 291/1/4 292/1/4
f 292/1/4 291/1/4 293/1/4
f 294/1/4 295/1/4 296/1/4
f 296/1/4 295/1/4 297/1/4
f 298/2/4 299/2/4 300/2/4
f 300/2/4 299/2/4 301/2/4
f 302/2/4 303/2/4 304/2/4
f 304/2/4 303/2/4 305/2/4
f 306/2/4 307/2/4 308/2/4
f 308/2/4 307/2/4 309/2/4
f 310/1/4 311/1/4 312/1/4
f 310/1/4 312/1/4 314/1/4
f 312/2/4 313/2/4 315/2/4
f 314/1/4 312/1/4 315/1/4
f 315/2/4 313/2/4 316/2/4
f 317/2/4 318/2/4 319/2/4
f 319/2/4 318/2/4 320/2/4
f 321/1/4 322/1/4 323/1/4
f 323/1/4 322/1/4 324/1/4
f 325/2/4 326/2/4 327/2/4
f 327/2/4 326/2/4 328/2/4
f 331/2/5 330/2/5 329/2/5
f 332/2/5 330/2/5 331/2/5
f 333/2/6 334/2/6 335/2/6
f 335/2/6 334/2/6 336/2/6
f 336/2/6 334/2/6 337/2/6
f 337/2/6 334/2/6 339/2/6
f 339/2/6 334/2/6 340/2/6
f 340/2/6 334/2/6 341/2/6
f 333/2/6 335/2/6 342/2/6
f 338/2/6 339/2/6 343/2/6
f 339/2/6 340/2/6 343/2/6
f 343/2/6 340/2/6 344/2/6
f 342/2/6 343/2/6 344/2/6
f 341/2/6 334/2/6 345/2/6
f 342/2/6 344/2/6 346/2/6
f 344/2/6 345/2/6 346/2/6
f 333/2/6 342/2/6 346/2/6
f 346/2/6 345/2/6 347/2/6
f 347/2/6 345/2/6 348/2/6
f 348/2/6 345/2/6 349/2/6
f 349/2/6 345/2/6 350/2/6
f 350/2/6 345/2/6 352/2/6
f 352/2/6 345/2/6 353/2/6
f 351/2/6 352/2/6 353/2/6
f 353/2/6 345/2/6 354/2/6
f 347/2/6 348/2/6 355/2/6
f 355/2/6 348/2/6 356/2/6
f 351/2/6 353/2/6 357/2/6
f 354/2/6 345/2/6 358/2/6
f 347/2/6 355/2/6 359/2/6
f 359/2/6 355/2/6 360/2/6
f 356/2/6 348/2/6 361/2/6
f 361/2/6 348/2/6 362/2/6
f 362/2/6 348/2/6 363/2/6
f 351/2/6 357/2/6 364/2/6
f 357/2/6 358/2/6 364/2/6
f 347/2/6 359/2/6 365/2/6
f 362/2/6 363/2/6 366/2/6
f 363/2/6 364/2/6 366/2/6
f 333/2/6 346/2/6 367/2/6
f 365/2/6 366/2/6 368/2/6
f 347/2/6 365/2/6 368/2/6
f 368/2/6 366/2/6 369/2/6
f 367/2/6 368/2/6 369/2/6
f 369/2/6 366/2/6 370/2/6
f 366/2/6 364/2/6 371/2/6
f 370/2/6 366/2/6 371/2/6
f 364/2/6 358/2/6 371/2/6
f 345/2/6 334/2/6 372/2/6
f 371/2/6 358/2/6 372/2/6
f 358/2/6 345/2/6 372/2/6
f 367/2/6 369/2/6 373/2/6
f 370/2/6 371/2/6 374/2/6
f 374/2/6 371/2/6 375/2/6
f 375/2/6 371/2/6 376/2/6
f 373/2/6 374/2/6 377/2/6
f 374/2/6 375/2/6 377/2/6
f 376/2/6 371/2/6 378/2/6
f 378/2/6 371/2/6 379/2/6
f 377/2/6 378/2/6 379/2/6
f 372/2/6 334/2/6 380/2/6
f 367/2/6 373/2/6 381/2/6
f 379/2/6 380/2/6 381/2/6
f 377/2/6 379/2/6 381/2/6
f 373/2/6 377/2/6 381/2/6
f 381/2/6 380/2/6 382/2/6
f 367/2/6 381/2/6 383/2/6
f 382/2/6 380/2/6 384/2/6
f 333/2/6 367/2/6 385/2/6
f 383/2/6 384/2/6 385/2/6
f 367/2/6 383/2/6 385/2/6
f 380/2/6 334/2/6 386/2/6
f 385/2/6 384/2/6 386/2/6
f 384/2/6 380/2/6 386/2/6
f 387/1/6 388/1/6 389/1/6
f 387/1/6 389/1/6 393/1/6
f 389/1/6 390/1/6 393/1/6
f 393/1/6 390/1/6 394/1/6
f 391/1/6 392/1/6 395/1/6
f 395/1/6 392/1/6 396/1/6
f 391/1/6 395/1/6 397/1/6
f 391/1/6 397/1/6 399/1/6
f 397/1/6 398/1/6 399/1/6
f 399/1/6 398/1/6 400/1/6
f 403/1/6 404/1/6 406/1/6
f 406/1/6 404/1/6 407/1/6
f 404/2/6 405/2/6 408/2/6
f 407/1/6 404/1/6 408/1/6
f 408/2/6 405/2/6 409/2/6
f 407/1/6 408/1/6 411/1/6
f 412/2/6 413/2/6 414/2/6
f 414/2/6 413/2/6 415/2/6
f 401/1/6 402/1/6 416/1/6
f 416/1/6 402/1/6 417/1/6
f 410/1/6 411/1/6 422/1/6
f 411/1/6 408/1/6 423/1/6
f 422/1/6 411/1/6 423/1/6
f 401/1/6 416/1/6 424/1/6
f 417/1/6 402/1/6 425/1/6
f 418/1/6 419/1/6 426/1/6
f 420/1/6 421/1/6 427/1/6
f 418/1/6 426/1/6 428/1/6
f 426/1/6 427/1/6 428/1/6
f 427/1/6 421/1/6 429/1/6
f 428/1/6 427/1/6 429/1/6
f 424/1/6 425/1/6 430/1/6
f 401/1/6 424/1/6 430/1/6
f 425/1/6 402/1/6 431/1/6
f 430/1/6 425/1/6 431/1/6
f 434/1/6 435/1/6 436/1/6
f 436/1/6 435/1/6 437/1/6
f 432/2/6 433/2/6 438/2/6
f 438/2/6 433/2/6 439/2/6
f 440/2/6 441/2/6 442/2/6
f 442/2/6 441/2/6 443/2/6
f 434/1/6 436/1/6 444/1/6
f 437/1/6 435/1/6 445/1/6
f 444/1/6 445/1/6 446/1/6
f 445/1/6 435/1/6 446/1/6
f 446/1/6 435/1/6 447/1/6
f 434/1/6 444/1/6 448/1/6
f 444/1/6 446/1/6 448/1/6
f 448/1/6 446/1/6 449/1/6
f 450/1/6 451/1/6 452/1/6
f 452/1/6 451/1/6 453/1/6
f 450/1/6 452/1/6 454/1/6
f 453/1/6 451/1/6 455/1/6
f 450/1/6 454/1/6 456/1/6
f 454/1/6 455/1/6 456/1/6
f 455/1/6 451/1/6 457/1/6
f 456/1/6 455/1/6 457/1/6
f 458/2/6 459/2/6 460/2/6
f 460/2/6 459/2/6 461/2/6
f 462/2/6 463/2/6 465/2/6
f 464/2/6 465/2/6 466/2/6
f 465/2/6 463/2/6 467/2/6
f 466/2/6 465/2/6 467/2/6
f 468/2/6 469/2/6 470/2/6
f 470/2/6 469/2/6 471/2/6
f 474/2/6 475/2/6 476/2/6
f 476/2/6 475/2/6 477/2/6
f 472/2/6 473/2/6 478/2/6
f 478/2/6 473/2/6 479/2/6
f 480/2/6 481/2/6 482/2/6
f 482/2/6 481/2/6 483/2/6
f 484/2/6 485/2/6 486/2/6
f 486/2/6 485/2/6 487/2/6
f 488/2/6 489/2/6 490/2/6
f 490/2/6 489/2/6 491/2/6
