# MagicaVoxel @ Ephtracy

# group
o 

# material
mtllib Chair.mtl
usemtl palette

# normals
vn -1 0 0
vn 1 0 0
vn 0 0 1
vn 0 0 -1
vn 0 -1 0
vn 0 1 0

# texcoords
vt 0.533203 0.5
vt 0.537109 0.5
vt 0.865234 0.5

# verts
v -1 0 1
v -1 0 0.9
v -1 0 0.0999999
v -1 0 -1.19209e-07
v -1 0.7 0.9
v -1 0.7 0.0999999
v -1 0.7 -1.19209e-07
v -1 0.8 0.9
v -1 0.8 0.0999999
v -1 0.8 -1.19209e-07
v -1 0.9 1
v -1 0.9 0.9
v -1 1 1
v -1 1 0.9
v -1 1.4 1
v -1 1.4 0.9
v -1 1.6 1
v -1 1.6 0.9
v -1 1.8 1
v -1 1.8 0.9
v -0.9 0.8 0.9
v -0.9 0.8 0.0999999
v -0.9 0.9 0.9
v -0.9 0.9 0.0999999
v -0.9 1.4 0.9
v -0.9 1.4 0.8
v -0.9 1.6 0.9
v -0.9 1.7 0.9
v -0.9 1.7 0.8
v -0.0999999 0 1
v -0.0999999 0 0.9
v -0.0999999 0 0.0999999
v -0.0999999 0 -1.19209e-07
v -0.0999999 0.1 1
v -0.0999999 0.1 0.9
v -0.0999999 0.7 1
v -0.0999999 0.7 0.9
v -0.0999999 0.7 0.7
v -0.0999999 0.7 0.0999999
v -0.0999999 0.7 -1.19209e-07
v -0.0999999 0.8 1
v -0.0999999 0.8 0.9
v -0.0999999 0.8 0.7
v -0.0999999 0.8 0.0999999
v -0.0999999 0.9 1
v -0.0999999 0.9 0.9
v -0.0999999 1.3 1
v -0.0999999 1.3 0.9
v -0.9 0 1
v -0.9 0 0.9
v -0.9 0 0.0999999
v -0.9 0 -1.19209e-07
v -0.9 0.7 1
v -0.9 0.7 0.9
v -0.9 0.7 0.0999999
v -0.9 0.7 -1.19209e-07
v -0.9 0.8 1
v -0.9 0.8 0.9
v -0.9 0.8 0.0999999
v -0.9 0.9 1
v -0.9 0.9 0.9
v -0.9 1 1
v -0.9 1 0.9
v -0.9 1.3 1
v -0.9 1.3 0.9
v -0.0999999 0.8 0.9
v -0.0999999 0.8 0.7
v -0.0999999 0.8 0.0999999
v -0.0999999 0.9 0.9
v -0.0999999 0.9 0.0999999
v -0.0999999 1.4 0.9
v -0.0999999 1.4 0.8
v -0.0999999 1.7 0.9
v -0.0999999 1.7 0.8
v 1.19209e-07 0 1
v 1.19209e-07 0 0.9
v 1.19209e-07 0 0.0999999
v 1.19209e-07 0 -1.19209e-07
v 1.19209e-07 0.1 1
v 1.19209e-07 0.1 0.9
v 1.19209e-07 0.7 1
v 1.19209e-07 0.7 0.9
v 1.19209e-07 0.7 0.7
v 1.19209e-07 0.7 0.0999999
v 1.19209e-07 0.8 0.9
v 1.19209e-07 0.8 0.7
v 1.19209e-07 0.8 -1.19209e-07
v 1.19209e-07 0.9 1
v 1.19209e-07 0.9 0.9
v 1.19209e-07 1.8 1
v 1.19209e-07 1.8 0.9
v -1 0 1
v -1 0.9 1
v -1 1 1
v -1 1.4 1
v -1 1.6 1
v -1 1.8 1
v -0.9 0 1
v -0.9 0.7 1
v -0.9 0.8 1
v -0.9 0.9 1
v -0.9 1 1
v -0.9 1.3 1
v -0.9 1.4 1
v -0.9 1.6 1
v -0.9 1.7 1
v -0.5 1.7 1
v -0.5 1.8 1
v -0.4 1.7 1
v -0.4 1.8 1
v -0.0999999 0 1
v -0.0999999 0.1 1
v -0.0999999 0.7 1
v -0.0999999 0.8 1
v -0.0999999 0.9 1
v -0.0999999 1.3 1
v -0.0999999 1.4 1
v -0.0999999 1.7 1
v 1.19209e-07 0 1
v 1.19209e-07 0.1 1
v 1.19209e-07 0.7 1
v 1.19209e-07 0.9 1
v 1.19209e-07 1.8 1
v -0.9 0.8 0.9
v -0.9 0.9 0.9
v -0.0999999 0.8 0.9
v -0.0999999 0.9 0.9
v -1 0 0.0999999
v -1 0.7 0.0999999
v -0.9 0 0.0999999
v -0.9 0.7 0.0999999
v -0.9 0.8 0.0999999
v -0.0999999 0 0.0999999
v -0.0999999 0.7 0.0999999
v -0.0999999 0.8 0.0999999
v 1.19209e-07 0 0.0999999
v 1.19209e-07 0.7 0.0999999
v -1 0 0.9
v -1 0.7 0.9
v -1 0.8 0.9
v -1 0.9 0.9
v -1 1 0.9
v -1 1.4 0.9
v -1 1.6 0.9
v -1 1.8 0.9
v -0.9 0 0.9
v -0.9 0.7 0.9
v -0.9 0.8 0.9
v -0.9 0.9 0.9
v -0.9 1 0.9
v -0.9 1.3 0.9
v -0.9 1.4 0.9
v -0.9 1.6 0.9
v -0.9 1.7 0.9
v -0.5 1.7 0.9
v -0.5 1.8 0.9
v -0.4 1.7 0.9
v -0.4 1.8 0.9
v -0.0999999 0 0.9
v -0.0999999 0.1 0.9
v -0.0999999 0.7 0.9
v -0.0999999 0.8 0.9
v -0.0999999 0.9 0.9
v -0.0999999 1.3 0.9
v -0.0999999 1.4 0.9
v -0.0999999 1.7 0.9
v 1.19209e-07 0 0.9
v 1.19209e-07 0.1 0.9
v 1.19209e-07 0.7 0.9
v 1.19209e-07 0.8 0.9
v 1.19209e-07 0.9 0.9
v 1.19209e-07 1.8 0.9
v -0.9 1.4 0.8
v -0.9 1.7 0.8
v -0.0999999 1.4 0.8
v -0.0999999 1.7 0.8
v -0.9 0.8 0.0999999
v -0.9 0.9 0.0999999
v -0.0999999 0.8 0.0999999
v -0.0999999 0.9 0.0999999
v -1 0 -1.19209e-07
v -1 0.7 -1.19209e-07
v -1 0.8 -1.19209e-07
v -0.9 0 -1.19209e-07
v -0.9 0.7 -1.19209e-07
v -0.9 0.8 -1.19209e-07
v -0.0999999 0 -1.19209e-07
v -0.0999999 0.7 -1.19209e-07
v 1.19209e-07 0 -1.19209e-07
v 1.19209e-07 0.8 -1.19209e-07
v -1 0 1
v -0.9 0 1
v -0.0999999 0 1
v 1.19209e-07 0 1
v -1 0 0.9
v -0.9 0 0.9
v -0.0999999 0 0.9
v 1.19209e-07 0 0.9
v -1 0 0.0999999
v -0.9 0 0.0999999
v -0.0999999 0 0.0999999
v 1.19209e-07 0 0.0999999
v -1 0 -1.19209e-07
v -0.9 0 -1.19209e-07
v -0.0999999 0 -1.19209e-07
v 1.19209e-07 0 -1.19209e-07
v -0.9 0.7 1
v -0.0999999 0.7 1
v -1 0.7 0.9
v -0.9 0.7 0.9
v -0.0999999 0.7 0.9
v 1.19209e-07 0.7 0.9
v -0.0999999 0.7 0.7
v 1.19209e-07 0.7 0.7
v -1 0.7 0.0999999
v -0.9 0.7 0.0999999
v -0.0999999 0.7 0.0999999
v 1.19209e-07 0.7 0.0999999
v -0.9 0.7 -1.19209e-07
v -0.0999999 0.7 -1.19209e-07
v -0.9 0.8 0.9
v -0.0999999 0.8 0.9
v -0.0999999 0.8 0.7
v -0.9 0.8 0.0999999
v -0.0999999 0.8 0.0999999
v -0.9 1.3 1
v -0.0999999 1.3 1
v -0.9 1.3 0.9
v -0.0999999 1.3 0.9
v -0.9 1.4 0.9
v -0.0999999 1.4 0.9
v -0.9 1.4 0.8
v -0.0999999 1.4 0.8
v -0.9 0.8 1
v -0.0999999 0.8 1
v -1 0.8 0.9
v -0.9 0.8 0.9
v -0.0999999 0.8 0.9
v 1.19209e-07 0.8 0.9
v -0.0999999 0.8 0.7
v 1.19209e-07 0.8 0.7
v -1 0.8 0.0999999
v -0.9 0.8 0.0999999
v -0.0999999 0.8 0.0999999
v -1 0.8 -1.19209e-07
v -0.9 0.8 -1.19209e-07
v 1.19209e-07 0.8 -1.19209e-07
v -0.9 0.9 0.9
v -0.0999999 0.9 0.9
v -0.9 0.9 0.0999999
v -0.0999999 0.9 0.0999999
v -0.9 1.7 0.9
v -0.5 1.7 0.9
v -0.4 1.7 0.9
v -0.0999999 1.7 0.9
v -0.9 1.7 0.8
v -0.0999999 1.7 0.8
v -1 1.8 1
v -0.5 1.8 1
v -0.4 1.8 1
v 1.19209e-07 1.8 1
v -1 1.8 0.9
v -0.5 1.8 0.9
v -0.4 1.8 0.9
v 1.19209e-07 1.8 0.9

# faces
f 5/2/1 2/2/1 1/2/1
f 6/2/1 4/2/1 3/2/1
f 7/2/1 4/2/1 6/2/1
f 8/2/1 5/2/1 1/2/1
f 8/2/1 6/2/1 5/2/1
f 9/1/1 7/1/1 6/1/1
f 9/2/1 6/2/1 8/2/1
f 10/1/1 7/1/1 9/1/1
f 11/2/1 8/2/1 1/2/1
f 12/2/1 8/2/1 11/2/1
f 13/1/1 12/1/1 11/1/1
f 14/1/1 12/1/1 13/1/1
f 15/2/1 14/2/1 13/2/1
f 16/2/1 14/2/1 15/2/1
f 17/1/1 16/1/1 15/1/1
f 18/1/1 16/1/1 17/1/1
f 19/2/1 18/2/1 17/2/1
f 20/2/1 18/2/1 19/2/1
f 23/3/1 22/3/1 21/3/1
f 24/3/1 22/3/1 23/3/1
f 27/3/1 26/3/1 25/3/1
f 28/3/1 26/3/1 27/3/1
f 29/3/1 26/3/1 28/3/1
f 34/1/1 31/1/1 30/1/1
f 35/1/1 31/1/1 34/1/1
f 36/2/1 35/2/1 34/2/1
f 37/2/1 35/2/1 36/2/1
f 39/2/1 33/2/1 32/2/1
f 40/2/1 33/2/1 39/2/1
f 42/1/1 38/1/1 37/1/1
f 43/2/1 39/2/1 38/2/1
f 43/1/1 38/1/1 42/1/1
f 44/2/1 39/2/1 43/2/1
f 45/1/1 42/1/1 41/1/1
f 46/1/1 42/1/1 45/1/1
f 47/2/1 46/2/1 45/2/1
f 48/2/1 46/2/1 47/2/1
f 49/2/2 50/2/2 53/2/2
f 53/2/2 50/2/2 54/2/2
f 51/2/2 52/2/2 55/2/2
f 55/2/2 52/2/2 56/2/2
f 54/2/2 55/2/2 58/2/2
f 58/2/2 55/2/2 59/2/2
f 57/2/2 58/2/2 60/2/2
f 60/2/2 58/2/2 61/2/2
f 60/1/2 61/1/2 62/1/2
f 62/1/2 61/1/2 63/1/2
f 62/2/2 63/2/2 64/2/2
f 64/2/2 63/2/2 65/2/2
f 66/3/2 67/3/2 69/3/2
f 67/3/2 68/3/2 69/3/2
f 69/3/2 68/3/2 70/3/2
f 71/3/2 72/3/2 73/3/2
f 73/3/2 72/3/2 74/3/2
f 75/1/2 76/1/2 79/1/2
f 79/1/2 76/1/2 80/1/2
f 79/2/2 80/2/2 81/2/2
f 81/2/2 80/2/2 82/2/2
f 77/2/2 78/2/2 84/2/2
f 82/1/2 83/1/2 85/1/2
f 81/1/2 82/1/2 85/1/2
f 83/2/2 84/2/2 86/2/2
f 85/1/2 83/1/2 86/1/2
f 84/2/2 78/2/2 87/2/2
f 86/2/2 84/2/2 87/2/2
f 81/1/2 85/1/2 88/1/2
f 88/1/2 85/1/2 89/1/2
f 88/2/2 89/2/2 90/2/2
f 90/2/2 89/2/2 91/2/2
f 98/2/3 93/2/3 92/2/3
f 99/2/3 93/2/3 98/2/3
f 100/2/3 93/2/3 99/2/3
f 101/1/3 94/1/3 93/1/3
f 101/2/3 93/2/3 100/2/3
f 102/2/3 95/2/3 94/2/3
f 102/1/3 94/1/3 101/1/3
f 103/2/3 95/2/3 102/2/3
f 104/1/3 96/1/3 95/1/3
f 104/2/3 95/2/3 103/2/3
f 105/2/3 97/2/3 96/2/3
f 105/1/3 96/1/3 104/1/3
f 106/2/3 97/2/3 105/2/3
f 107/2/3 97/2/3 106/2/3
f 107/3/3 106/3/3 105/3/3
f 107/3/3 105/3/3 104/3/3
f 108/2/3 97/2/3 107/2/3
f 109/3/3 107/3/3 104/3/3
f 109/1/3 108/1/3 107/1/3
f 110/1/3 108/1/3 109/1/3
f 113/2/3 100/2/3 99/2/3
f 114/2/3 100/2/3 113/2/3
f 116/2/3 104/2/3 103/2/3
f 117/3/3 109/3/3 104/3/3
f 117/2/3 104/2/3 116/2/3
f 118/2/3 110/2/3 109/2/3
f 118/3/3 109/3/3 117/3/3
f 119/1/3 112/1/3 111/1/3
f 120/2/3 113/2/3 112/2/3
f 120/1/3 112/1/3 119/1/3
f 121/1/3 115/1/3 114/1/3
f 121/2/3 113/2/3 120/2/3
f 121/1/3 114/1/3 113/1/3
f 122/2/3 116/2/3 115/2/3
f 122/1/3 115/1/3 121/1/3
f 122/2/3 117/2/3 116/2/3
f 122/2/3 118/2/3 117/2/3
f 123/2/3 110/2/3 118/2/3
f 123/2/3 118/2/3 122/2/3
f 126/3/3 125/3/3 124/3/3
f 127/3/3 125/3/3 126/3/3
f 130/2/3 129/2/3 128/2/3
f 131/2/3 129/2/3 130/2/3
f 134/2/3 132/2/3 131/2/3
f 135/2/3 132/2/3 134/2/3
f 136/2/3 134/2/3 133/2/3
f 137/2/3 134/2/3 136/2/3
f 138/2/4 139/2/4 146/2/4
f 146/2/4 139/2/4 147/2/4
f 140/2/4 141/2/4 148/2/4
f 141/1/4 142/1/4 149/1/4
f 148/2/4 141/2/4 149/2/4
f 142/2/4 143/2/4 150/2/4
f 149/1/4 142/1/4 150/1/4
f 150/2/4 143/2/4 151/2/4
f 143/1/4 144/1/4 152/1/4
f 151/2/4 143/2/4 152/2/4
f 144/2/4 145/2/4 153/2/4
f 152/1/4 144/1/4 153/1/4
f 153/2/4 145/2/4 154/2/4
f 154/2/4 145/2/4 155/2/4
f 155/2/4 145/2/4 156/2/4
f 155/1/4 156/1/4 157/1/4
f 157/1/4 156/1/4 158/1/4
f 147/2/4 148/2/4 161/2/4
f 161/2/4 148/2/4 162/2/4
f 151/2/4 152/2/4 164/2/4
f 164/2/4 152/2/4 165/2/4
f 157/2/4 158/2/4 166/2/4
f 159/1/4 160/1/4 167/1/4
f 160/2/4 161/2/4 168/2/4
f 167/1/4 160/1/4 168/1/4
f 168/2/4 161/2/4 169/2/4
f 162/1/4 163/1/4 170/1/4
f 165/2/4 166/2/4 171/2/4
f 170/1/4 163/1/4 171/1/4
f 164/2/4 165/2/4 171/2/4
f 163/2/4 164/2/4 171/2/4
f 166/2/4 158/2/4 172/2/4
f 171/2/4 166/2/4 172/2/4
f 173/3/4 174/3/4 175/3/4
f 175/3/4 174/3/4 176/3/4
f 177/3/4 178/3/4 179/3/4
f 179/3/4 178/3/4 180/3/4
f 181/2/4 182/2/4 184/2/4
f 182/1/4 183/1/4 185/1/4
f 184/2/4 182/2/4 185/2/4
f 185/1/4 183/1/4 186/1/4
f 185/2/4 186/2/4 188/2/4
f 187/2/4 188/2/4 189/2/4
f 188/2/4 186/2/4 190/2/4
f 189/2/4 188/2/4 190/2/4
f 195/2/5 192/2/5 191/2/5
f 196/2/5 192/2/5 195/2/5
f 197/1/5 194/1/5 193/1/5
f 198/1/5 194/1/5 197/1/5
f 203/2/5 200/2/5 199/2/5
f 204/2/5 200/2/5 203/2/5
f 205/2/5 202/2/5 201/2/5
f 206/2/5 202/2/5 205/2/5
f 210/2/5 208/2/5 207/2/5
f 211/2/5 208/2/5 210/2/5
f 213/1/5 212/1/5 211/1/5
f 214/1/5 212/1/5 213/1/5
f 215/2/5 210/2/5 209/2/5
f 216/2/5 210/2/5 215/2/5
f 217/2/5 214/2/5 213/2/5
f 218/2/5 214/2/5 217/2/5
f 219/2/5 217/2/5 216/2/5
f 220/2/5 217/2/5 219/2/5
f 223/3/5 222/3/5 221/3/5
f 224/3/5 223/3/5 221/3/5
f 225/3/5 223/3/5 224/3/5
f 228/2/5 227/2/5 226/2/5
f 229/2/5 227/2/5 228/2/5
f 232/3/5 231/3/5 230/3/5
f 233/3/5 231/3/5 232/3/5
f 234/2/6 235/2/6 237/2/6
f 237/2/6 235/2/6 238/2/6
f 238/1/6 239/1/6 240/1/6
f 240/1/6 239/1/6 241/1/6
f 236/2/6 237/2/6 242/2/6
f 242/2/6 237/2/6 243/2/6
f 240/2/6 241/2/6 244/2/6
f 242/1/6 243/1/6 245/1/6
f 243/2/6 244/2/6 246/2/6
f 245/1/6 243/1/6 246/1/6
f 244/2/6 241/2/6 247/2/6
f 246/2/6 244/2/6 247/2/6
f 248/3/6 249/3/6 250/3/6
f 250/3/6 249/3/6 251/3/6
f 252/3/6 253/3/6 256/3/6
f 254/3/6 255/3/6 256/3/6
f 253/3/6 254/3/6 256/3/6
f 256/3/6 255/3/6 257/3/6
f 258/2/6 259/2/6 262/2/6
f 259/1/6 260/1/6 263/1/6
f 262/2/6 259/2/6 263/2/6
f 260/2/6 261/2/6 264/2/6
f 263/1/6 260/1/6 264/1/6
f 264/2/6 261/2/6 265/2/6
