# MagicaVoxel @ Ephtracy

# group
o 

# material
mtllib Meat2.mtl
usemtl palette

# normals
vn -1 0 0
vn 1 0 0
vn 0 0 1
vn 0 0 -1
vn 0 -1 0
vn 0 1 0

# texcoords
vt 0.123047 0.5
vt 0.279297 0.5
vt 0.849609 0.5
vt 0.857422 0.5
vt 0.865234 0.5
vt 0.962891 0.5
vt 0.966797 0.5

# verts
v -1 -0.25 0.2
v -1 -0.25 -0.2
v -1 -0.05 0.2
v -1 -0.05 -0.2
v -0.9 -0.35 0.2
v -0.9 -0.35 -0.2
v -0.9 -0.25 0.2
v -0.9 -0.25 -0.2
v -0.9 -0.05 0.2
v -0.9 -0.05 0.1
v -0.9 -0.05 0
v -0.9 -0.05 -0.1
v -0.9 -0.05 -0.2
v -0.9 0.05 0.2
v -0.9 0.05 0.1
v -0.9 0.15 0.2
v -0.9 0.15 0
v -0.9 0.15 -0.1
v -0.9 0.15 -0.2
v -0.7 0.15 0.2
v -0.7 0.15 0.1
v -0.7 0.15 -0.2
v -0.7 0.25 0.2
v -0.7 0.25 0.1
v -0.7 0.25 -0.2
v -0.6 0.25 0.2
v -0.6 0.25 0.1
v -0.6 0.25 -0.2
v -0.6 0.35 0.2
v -0.6 0.35 0.1
v -0.6 0.35 -0.2
v 0.7 0.25 0.2
v 0.7 0.25 0.1
v 0.7 0.25 0
v 0.7 0.25 -0.2
v 0.7 0.35 0.2
v 0.7 0.35 0
v 0.7 0.35 -0.2
v 0.8 0.15 0.2
v 0.8 0.15 0.1
v 0.8 0.15 -0.2
v 0.8 0.25 0.2
v 0.8 0.25 0.1
v 0.8 0.25 -0.2
v 0.9 -0.35 0.2
v 0.9 -0.35 -0.2
v 0.9 -0.25 0.2
v 0.9 -0.25 -0.1
v 0.9 -0.25 -0.2
v 1 -0.25 0.2
v 1 -0.25 -0.1
v 1 -0.25 -0.2
v 1 -0.15 0
v 1 -0.15 -0.1
v 1 -0.15 -0.2
v 1 -0.05 0
v 1 -0.05 -0.1
v 1 0.15 0.2
v 1 0.15 -0.2
v -1 -0.25 0.2
v -1 -0.05 0.2
v -0.9 -0.35 0.2
v -0.9 -0.25 0.2
v -0.9 -0.15 0.2
v -0.9 -0.05 0.2
v -0.9 0.05 0.2
v -0.9 0.15 0.2
v -0.8 -0.25 0.2
v -0.8 -0.15 0.2
v -0.8 -0.05 0.2
v -0.8 0.05 0.2
v -0.7 0.15 0.2
v -0.7 0.25 0.2
v -0.6 -0.35 0.2
v -0.6 -0.25 0.2
v -0.6 0.05 0.2
v -0.6 0.15 0.2
v -0.6 0.25 0.2
v -0.6 0.35 0.2
v -0.5 -0.35 0.2
v -0.5 -0.25 0.2
v -0.5 -0.15 0.2
v -0.5 0.15 0.2
v -0.5 0.25 0.2
v -0.4 -0.25 0.2
v -0.4 -0.15 0.2
v -0.4 0.15 0.2
v -0.3 -0.15 0.2
v -0.3 0.15 0.2
v 0.1 0.05 0.2
v 0.1 0.15 0.2
v 0.2 -0.15 0.2
v 0.2 0.05 0.2
v 0.2 0.15 0.2
v 0.3 -0.15 0.2
v 0.3 -0.05 0.2
v 0.3 0.05 0.2
v 0.3 0.15 0.2
v 0.5 -0.35 0.2
v 0.5 -0.25 0.2
v 0.5 -0.05 0.2
v 0.5 0.15 0.2
v 0.6 -0.35 0.2
v 0.6 -0.25 0.2
v 0.6 0.15 0.2
v 0.6 0.25 0.2
v 0.6 0.35 0.2
v 0.7 0.05 0.2
v 0.7 0.15 0.2
v 0.7 0.25 0.2
v 0.7 0.35 0.2
v 0.8 -0.25 0.2
v 0.8 -0.15 0.2
v 0.8 -0.05 0.2
v 0.8 0.05 0.2
v 0.8 0.15 0.2
v 0.8 0.25 0.2
v 0.9 -0.35 0.2
v 0.9 -0.25 0.2
v 0.9 -0.15 0.2
v 0.9 -0.05 0.2
v 0.9 0.05 0.2
v 1 -0.25 0.2
v 1 0.15 0.2
v -1 -0.25 -0.2
v -1 -0.05 -0.2
v -0.9 -0.35 -0.2
v -0.9 -0.25 -0.2
v -0.9 -0.15 -0.2
v -0.9 -0.05 -0.2
v -0.9 0.15 -0.2
v -0.8 -0.35 -0.2
v -0.8 -0.25 -0.2
v -0.8 -0.15 -0.2
v -0.8 -0.05 -0.2
v -0.8 0.05 -0.2
v -0.7 -0.35 -0.2
v -0.7 -0.25 -0.2
v -0.7 -0.15 -0.2
v -0.7 -0.05 -0.2
v -0.7 0.15 -0.2
v -0.7 0.25 -0.2
v -0.6 0.05 -0.2
v -0.6 0.15 -0.2
v -0.6 0.25 -0.2
v -0.6 0.35 -0.2
v -0.5 -0.35 -0.2
v -0.5 -0.25 -0.2
v -0.5 0.15 -0.2
v -0.5 0.25 -0.2
v -0.5 0.35 -0.2
v -0.4 -0.35 -0.2
v -0.4 -0.25 -0.2
v -0.4 0.15 -0.2
v -0.4 0.25 -0.2
v 0 -0.25 -0.2
v 0 -0.15 -0.2
v 0.1 -0.25 -0.2
v 0.1 -0.15 -0.2
v 0.2 -0.05 -0.2
v 0.2 0.05 -0.2
v 0.3 -0.05 -0.2
v 0.3 0.05 -0.2
v 0.3 0.15 -0.2
v 0.4 -0.05 -0.2
v 0.4 0.05 -0.2
v 0.5 -0.05 -0.2
v 0.5 0.05 -0.2
v 0.5 0.15 -0.2
v 0.6 0.15 -0.2
v 0.6 0.25 -0.2
v 0.7 0.05 -0.2
v 0.7 0.15 -0.2
v 0.7 0.25 -0.2
v 0.7 0.35 -0.2
v 0.8 -0.25 -0.2
v 0.8 -0.15 -0.2
v 0.8 0.15 -0.2
v 0.8 0.25 -0.2
v 0.9 -0.35 -0.2
v 0.9 -0.25 -0.2
v 0.9 -0.15 -0.2
v 0.9 0.05 -0.2
v 1 -0.25 -0.2
v 1 -0.15 -0.2
v 1 0.15 -0.2
v -0.9 -0.35 0.2
v -0.6 -0.35 0.2
v -0.5 -0.35 0.2
v 0.5 -0.35 0.2
v 0.6 -0.35 0.2
v 0.9 -0.35 0.2
v -0.8 -0.35 0.1
v -0.7 -0.35 0.1
v -0.5 -0.35 0.1
v -0.1 -0.35 0.1
v 0.4 -0.35 0.1
v 0.5 -0.35 0.1
v 0.6 -0.35 0.1
v -0.6 -0.35 0
v -0.1 -0.35 0
v 0.4 -0.35 0
v 0.5 -0.35 0
v 0.6 -0.35 0
v -0.5 -0.35 -0.1
v -0.4 -0.35 -0.1
v 0.5 -0.35 -0.1
v 0.6 -0.35 -0.1
v -0.9 -0.35 -0.2
v -0.8 -0.35 -0.2
v -0.7 -0.35 -0.2
v -0.5 -0.35 -0.2
v -0.4 -0.35 -0.2
v 0.9 -0.35 -0.2
v -1 -0.25 0.2
v -0.9 -0.25 0.2
v 0.9 -0.25 0.2
v 1 -0.25 0.2
v 0.9 -0.25 -0.1
v 1 -0.25 -0.1
v -1 -0.25 -0.2
v -0.9 -0.25 -0.2
v 0.9 -0.25 -0.2
v 1 -0.25 -0.2
v -1 -0.05 0.2
v -0.9 -0.05 0.2
v -0.9 -0.05 0.1
v -0.9 -0.05 0
v -0.9 -0.05 -0.1
v -1 -0.05 -0.2
v -0.9 -0.05 -0.2
v -0.9 0.15 0.2
v -0.7 0.15 0.2
v 0.8 0.15 0.2
v 1 0.15 0.2
v -0.7 0.15 0.1
v 0.8 0.15 0.1
v -0.9 0.15 0
v -0.8 0.15 0
v -0.9 0.15 -0.1
v -0.8 0.15 -0.1
v -0.9 0.15 -0.2
v -0.7 0.15 -0.2
v 0.8 0.15 -0.2
v 1 0.15 -0.2
v -0.7 0.25 0.2
v -0.6 0.25 0.2
v 0.7 0.25 0.2
v 0.8 0.25 0.2
v -0.7 0.25 0.1
v -0.6 0.25 0.1
v 0.7 0.25 0.1
v 0.8 0.25 0.1
v 0.7 0.25 0
v -0.7 0.25 -0.2
v -0.6 0.25 -0.2
v 0.7 0.25 -0.2
v 0.8 0.25 -0.2
v -0.6 0.35 0.2
v 0.6 0.35 0.2
v 0.7 0.35 0.2
v -0.6 0.35 0.1
v -0.5 0.35 0.1
v 0.6 0.35 0
v 0.7 0.35 0
v -0.6 0.35 -0.2
v -0.5 0.35 -0.2
v 0.7 0.35 -0.2

# faces
f 3/6/1 2/6/1 1/6/1
f 4/6/1 2/6/1 3/6/1
f 7/6/1 6/6/1 5/6/1
f 8/6/1 6/6/1 7/6/1
f 14/1/1 10/1/1 9/1/1
f 15/6/1 11/6/1 10/6/1
f 15/1/1 10/1/1 14/1/1
f 16/6/1 15/6/1 14/6/1
f 17/1/1 12/1/1 11/1/1
f 17/6/1 15/6/1 16/6/1
f 17/6/1 11/6/1 15/6/1
f 18/6/1 13/6/1 12/6/1
f 18/1/1 12/1/1 17/1/1
f 19/6/1 13/6/1 18/6/1
f 23/6/1 21/6/1 20/6/1
f 24/1/1 22/1/1 21/1/1
f 24/6/1 21/6/1 23/6/1
f 25/1/1 22/1/1 24/1/1
f 29/6/1 27/6/1 26/6/1
f 30/1/1 28/1/1 27/1/1
f 30/6/1 27/6/1 29/6/1
f 31/1/1 28/1/1 30/1/1
f 32/1/2 33/1/2 36/1/2
f 33/1/2 34/1/2 36/1/2
f 34/6/2 35/6/2 37/6/2
f 36/1/2 34/1/2 37/1/2
f 37/6/2 35/6/2 38/6/2
f 39/1/2 40/1/2 42/1/2
f 40/6/2 41/6/2 43/6/2
f 42/1/2 40/1/2 43/1/2
f 43/6/2 41/6/2 44/6/2
f 45/6/2 46/6/2 47/6/2
f 47/6/2 46/6/2 48/6/2
f 48/6/2 46/6/2 49/6/2
f 50/6/2 51/6/2 53/6/2
f 51/1/2 52/1/2 54/1/2
f 53/6/2 51/6/2 54/6/2
f 54/1/2 52/1/2 55/1/2
f 50/6/2 53/6/2 56/6/2
f 53/1/2 54/1/2 56/1/2
f 54/6/2 55/6/2 57/6/2
f 56/1/2 54/1/2 57/1/2
f 50/6/2 56/6/2 58/6/2
f 56/6/2 57/6/2 58/6/2
f 57/6/2 55/6/2 59/6/2
f 58/6/2 57/6/2 59/6/2
f 63/6/3 61/6/3 60/6/3
f 64/6/3 61/6/3 63/6/3
f 65/6/3 61/6/3 64/6/3
f 68/6/3 63/6/3 62/6/3
f 68/6/3 64/6/3 63/6/3
f 69/3/3 65/3/3 64/3/3
f 69/6/3 64/6/3 68/6/3
f 70/1/3 66/1/3 65/1/3
f 70/3/3 65/3/3 69/3/3
f 71/6/3 67/6/3 66/6/3
f 71/1/3 66/1/3 70/1/3
f 72/6/3 67/6/3 71/6/3
f 74/6/3 68/6/3 62/6/3
f 75/3/3 70/3/3 69/3/3
f 75/6/3 68/6/3 74/6/3
f 75/3/3 69/3/3 68/3/3
f 75/3/3 71/3/3 70/3/3
f 76/6/3 72/6/3 71/6/3
f 76/3/3 71/3/3 75/3/3
f 76/6/3 73/6/3 72/6/3
f 77/6/3 73/6/3 76/6/3
f 78/6/3 73/6/3 77/6/3
f 80/1/3 75/1/3 74/1/3
f 81/3/3 76/3/3 75/3/3
f 81/1/3 75/1/3 80/1/3
f 81/3/3 77/3/3 76/3/3
f 82/3/3 77/3/3 81/3/3
f 83/6/3 79/6/3 78/6/3
f 83/3/3 77/3/3 82/3/3
f 83/6/3 78/6/3 77/6/3
f 84/6/3 79/6/3 83/6/3
f 85/5/3 82/5/3 81/5/3
f 85/6/3 81/6/3 80/6/3
f 86/3/3 84/3/3 83/3/3
f 86/5/3 82/5/3 85/5/3
f 86/3/3 83/3/3 82/3/3
f 87/3/3 84/3/3 86/3/3
f 88/3/3 86/3/3 85/3/3
f 88/5/3 87/5/3 86/5/3
f 89/3/3 84/3/3 87/3/3
f 89/5/3 87/5/3 88/5/3
f 90/3/3 89/3/3 88/3/3
f 91/3/3 84/3/3 89/3/3
f 91/3/3 89/3/3 90/3/3
f 92/3/3 88/3/3 85/3/3
f 92/3/3 90/3/3 88/3/3
f 93/5/3 91/5/3 90/5/3
f 93/3/3 90/3/3 92/3/3
f 94/3/3 84/3/3 91/3/3
f 94/5/3 91/5/3 93/5/3
f 95/5/3 93/5/3 92/5/3
f 95/3/3 92/3/3 85/3/3
f 96/5/3 93/5/3 95/5/3
f 97/3/3 94/3/3 93/3/3
f 97/5/3 93/5/3 96/5/3
f 98/3/3 84/3/3 94/3/3
f 98/3/3 94/3/3 97/3/3
f 99/6/3 85/6/3 80/6/3
f 100/3/3 96/3/3 95/3/3
f 100/6/3 85/6/3 99/6/3
f 100/3/3 95/3/3 85/3/3
f 101/6/3 97/6/3 96/6/3
f 101/3/3 96/3/3 100/3/3
f 101/6/3 98/6/3 97/6/3
f 102/3/3 84/3/3 98/3/3
f 102/6/3 98/6/3 101/6/3
f 103/1/3 100/1/3 99/1/3
f 104/3/3 101/3/3 100/3/3
f 104/1/3 100/1/3 103/1/3
f 104/3/3 102/3/3 101/3/3
f 105/3/3 84/3/3 102/3/3
f 105/3/3 102/3/3 104/3/3
f 106/6/3 79/6/3 84/6/3
f 106/3/3 84/3/3 105/3/3
f 107/6/3 79/6/3 106/6/3
f 108/3/3 105/3/3 104/3/3
f 109/2/3 106/2/3 105/2/3
f 109/3/3 105/3/3 108/3/3
f 110/1/3 107/1/3 106/1/3
f 110/2/3 106/2/3 109/2/3
f 111/1/3 107/1/3 110/1/3
f 112/6/3 104/6/3 103/6/3
f 112/3/3 108/3/3 104/3/3
f 113/3/3 108/3/3 112/3/3
f 114/3/3 108/3/3 113/3/3
f 115/1/3 110/1/3 109/1/3
f 115/3/3 108/3/3 114/3/3
f 115/1/3 109/1/3 108/1/3
f 116/1/3 110/1/3 115/1/3
f 117/1/3 110/1/3 116/1/3
f 118/6/3 113/6/3 112/6/3
f 118/6/3 112/6/3 103/6/3
f 119/6/3 113/6/3 118/6/3
f 120/3/3 114/3/3 113/3/3
f 120/6/3 113/6/3 119/6/3
f 121/5/3 115/5/3 114/5/3
f 121/3/3 114/3/3 120/3/3
f 122/6/3 116/6/3 115/6/3
f 122/5/3 115/5/3 121/5/3
f 123/6/3 121/6/3 120/6/3
f 123/6/3 122/6/3 121/6/3
f 123/6/3 120/6/3 119/6/3
f 124/6/3 116/6/3 122/6/3
f 124/6/3 122/6/3 123/6/3
f 125/6/4 126/6/4 128/6/4
f 128/6/4 126/6/4 129/6/4
f 129/6/4 126/6/4 130/6/4
f 127/6/4 128/6/4 132/6/4
f 128/6/4 129/6/4 132/6/4
f 132/6/4 129/6/4 133/6/4
f 129/4/4 130/4/4 134/4/4
f 133/6/4 129/6/4 134/6/4
f 130/6/4 131/6/4 135/6/4
f 134/4/4 130/4/4 135/4/4
f 135/6/4 131/6/4 136/6/4
f 132/1/4 133/1/4 137/1/4
f 133/4/4 134/4/4 138/4/4
f 137/1/4 133/1/4 138/1/4
f 134/2/4 135/2/4 139/2/4
f 138/4/4 134/4/4 139/4/4
f 135/4/4 136/4/4 140/4/4
f 139/2/4 135/2/4 140/2/4
f 136/6/4 131/6/4 141/6/4
f 140/4/4 136/4/4 143/4/4
f 138/4/4 139/4/4 143/4/4
f 136/6/4 141/6/4 143/6/4
f 139/4/4 140/4/4 143/4/4
f 141/1/4 142/1/4 144/1/4
f 143/6/4 141/6/4 144/6/4
f 144/1/4 142/1/4 145/1/4
f 137/6/4 138/6/4 147/6/4
f 138/4/4 143/4/4 148/4/4
f 147/6/4 138/6/4 148/6/4
f 143/4/4 144/4/4 148/4/4
f 145/1/4 146/1/4 149/1/4
f 148/4/4 144/4/4 149/4/4
f 144/1/4 145/1/4 149/1/4
f 149/1/4 146/1/4 150/1/4
f 150/1/4 146/1/4 151/1/4
f 147/1/4 148/1/4 152/1/4
f 148/4/4 149/4/4 153/4/4
f 152/1/4 148/1/4 153/1/4
f 149/2/4 150/2/4 154/2/4
f 153/4/4 149/4/4 154/4/4
f 150/6/4 151/6/4 155/6/4
f 154/2/4 150/2/4 155/2/4
f 152/6/4 153/6/4 156/6/4
f 153/4/4 154/4/4 156/4/4
f 154/4/4 155/4/4 156/4/4
f 156/4/4 155/4/4 157/4/4
f 152/6/4 156/6/4 158/6/4
f 156/2/4 157/2/4 158/2/4
f 157/4/4 155/4/4 159/4/4
f 158/2/4 157/2/4 159/2/4
f 158/4/4 159/4/4 160/4/4
f 159/4/4 155/4/4 160/4/4
f 160/4/4 155/4/4 161/4/4
f 158/4/4 160/4/4 162/4/4
f 160/2/4 161/2/4 162/2/4
f 161/4/4 155/4/4 163/4/4
f 162/2/4 161/2/4 163/2/4
f 163/4/4 155/4/4 164/4/4
f 158/4/4 162/4/4 165/4/4
f 162/1/4 163/1/4 165/1/4
f 163/6/4 164/6/4 166/6/4
f 165/1/4 163/1/4 166/1/4
f 158/4/4 165/4/4 167/4/4
f 165/7/4 166/7/4 167/7/4
f 166/6/4 164/6/4 168/6/4
f 167/7/4 166/7/4 168/7/4
f 164/4/4 155/4/4 169/4/4
f 168/6/4 164/6/4 169/6/4
f 167/4/4 168/4/4 170/4/4
f 169/4/4 155/4/4 170/4/4
f 168/4/4 169/4/4 170/4/4
f 155/6/4 151/6/4 171/6/4
f 170/4/4 155/4/4 171/4/4
f 167/4/4 170/4/4 172/4/4
f 170/6/4 171/6/4 173/6/4
f 172/4/4 170/4/4 173/4/4
f 171/6/4 151/6/4 174/6/4
f 173/6/4 171/6/4 174/6/4
f 174/6/4 151/6/4 175/6/4
f 152/6/4 158/6/4 176/6/4
f 158/4/4 167/4/4 176/4/4
f 167/4/4 172/4/4 176/4/4
f 176/4/4 172/4/4 177/4/4
f 172/6/4 173/6/4 178/6/4
f 173/6/4 174/6/4 178/6/4
f 178/6/4 174/6/4 179/6/4
f 176/6/4 177/6/4 180/6/4
f 152/6/4 176/6/4 180/6/4
f 180/6/4 177/6/4 181/6/4
f 177/4/4 172/4/4 182/4/4
f 181/6/4 177/6/4 182/6/4
f 172/6/4 178/6/4 183/6/4
f 182/4/4 172/4/4 183/4/4
f 181/1/4 182/1/4 184/1/4
f 182/6/4 183/6/4 185/6/4
f 184/1/4 182/1/4 185/1/4
f 183/6/4 178/6/4 186/6/4
f 185/6/4 183/6/4 186/6/4
f 193/6/5 188/6/5 187/6/5
f 194/6/5 188/6/5 193/6/5
f 195/1/5 189/1/5 188/1/5
f 195/6/5 190/6/5 189/6/5
f 196/6/5 190/6/5 195/6/5
f 197/6/5 190/6/5 196/6/5
f 198/1/5 191/1/5 190/1/5
f 198/6/5 190/6/5 197/6/5
f 199/6/5 192/6/5 191/6/5
f 199/1/5 191/1/5 198/1/5
f 200/6/5 188/6/5 194/6/5
f 200/1/5 195/1/5 188/1/5
f 200/1/5 196/1/5 195/1/5
f 201/6/5 197/6/5 196/6/5
f 201/1/5 196/1/5 200/1/5
f 202/1/5 198/1/5 197/1/5
f 202/6/5 197/6/5 201/6/5
f 203/6/5 199/6/5 198/6/5
f 203/1/5 198/1/5 202/1/5
f 204/6/5 192/6/5 199/6/5
f 204/6/5 199/6/5 203/6/5
f 205/6/5 201/6/5 200/6/5
f 205/6/5 203/6/5 202/6/5
f 205/6/5 202/6/5 201/6/5
f 206/6/5 203/6/5 205/6/5
f 207/1/5 204/1/5 203/1/5
f 207/6/5 203/6/5 206/6/5
f 208/6/5 192/6/5 204/6/5
f 208/1/5 204/1/5 207/1/5
f 209/6/5 193/6/5 187/6/5
f 210/1/5 194/1/5 193/1/5
f 210/6/5 193/6/5 209/6/5
f 211/6/5 200/6/5 194/6/5
f 211/1/5 194/1/5 210/1/5
f 211/6/5 205/6/5 200/6/5
f 212/1/5 206/1/5 205/1/5
f 212/6/5 205/6/5 211/6/5
f 213/6/5 207/6/5 206/6/5
f 213/1/5 206/1/5 212/1/5
f 213/6/5 208/6/5 207/6/5
f 214/6/5 192/6/5 208/6/5
f 214/6/5 208/6/5 213/6/5
f 219/6/5 218/6/5 217/6/5
f 220/6/5 218/6/5 219/6/5
f 221/6/5 216/6/5 215/6/5
f 222/6/5 216/6/5 221/6/5
f 223/1/5 220/1/5 219/1/5
f 224/1/5 220/1/5 223/1/5
f 225/6/6 226/6/6 227/6/6
f 225/6/6 227/6/6 228/6/6
f 225/6/6 228/6/6 229/6/6
f 225/6/6 229/6/6 230/6/6
f 230/6/6 229/6/6 231/6/6
f 232/6/6 233/6/6 236/6/6
f 234/6/6 235/6/6 237/6/6
f 232/6/6 236/6/6 238/6/6
f 238/6/6 236/6/6 239/6/6
f 238/1/6 239/1/6 240/1/6
f 239/6/6 236/6/6 241/6/6
f 240/1/6 239/1/6 241/1/6
f 240/6/6 241/6/6 242/6/6
f 241/6/6 236/6/6 243/6/6
f 242/6/6 241/6/6 243/6/6
f 237/6/6 235/6/6 244/6/6
f 244/6/6 235/6/6 245/6/6
f 246/6/6 247/6/6 250/6/6
f 250/6/6 247/6/6 251/6/6
f 248/1/6 249/1/6 252/1/6
f 252/1/6 249/1/6 253/1/6
f 252/6/6 253/6/6 254/6/6
f 250/1/6 251/1/6 255/1/6
f 255/1/6 251/1/6 256/1/6
f 254/6/6 253/6/6 257/6/6
f 257/6/6 253/6/6 258/6/6
f 259/6/6 260/6/6 262/6/6
f 262/6/6 260/6/6 263/6/6
f 260/1/6 261/1/6 264/1/6
f 263/6/6 260/6/6 264/6/6
f 264/1/6 261/1/6 265/1/6
f 262/1/6 263/1/6 266/1/6
f 263/6/6 264/6/6 267/6/6
f 266/1/6 263/1/6 267/1/6
f 264/6/6 265/6/6 267/6/6
f 267/6/6 265/6/6 268/6/6
