# MagicaVoxel @ Ephtracy

# group
o 

# material
mtllib Clipboard.mtl
usemtl palette

# normals
vn -1 0 0
vn 1 0 0
vn 0 0 1
vn 0 0 -1
vn 0 -1 0
vn 0 1 0

# texcoords
vt 0.537109 0.5
vt 0.541016 0.5
vt 0.962891 0.5
vt 0.966797 0.5
vt 0.986328 0.5

# verts
v -1.2 0 0.2
v -1.2 0 0.1
v -1.2 3.1 0.2
v -1.2 3.1 0.1
v -1 0.4 0.3
v -1 0.4 0.2
v -1 2.9 0.3
v -1 2.9 0.2
v -0.5 2.9 0.3
v -0.5 2.9 0.2
v -0.5 3.1 0.3
v -0.5 3.1 0.2
v 0.4 2.9 0.3
v 0.4 2.9 0.2
v 0.4 3.1 0.3
v 0.4 3.1 0.2
v -0.4 2.9 0.3
v -0.4 2.9 0.2
v -0.4 3.1 0.3
v -0.4 3.1 0.2
v 0.5 2.9 0.3
v 0.5 2.9 0.2
v 0.5 3.1 0.3
v 0.5 3.1 0.2
v 1 0.4 0.3
v 1 0.4 0.2
v 1 0.6 0.3
v 1 0.6 0.2
v 1 2.9 0.3
v 1 2.9 0.2
v 1.2 0 0.2
v 1.2 0 0.1
v 1.2 2.4 0.2
v 1.2 2.4 0.1
v 1.2 2.5 0.2
v 1.2 2.5 0.1
v 1.2 3.1 0.2
v 1.2 3.1 0.1
v -1 0.4 0.3
v -1 2.9 0.3
v -0.9 2.7 0.3
v -0.9 2.8 0.3
v -0.8 2.7 0.3
v -0.8 2.8 0.3
v -0.5 2.8 0.3
v -0.5 2.9 0.3
v -0.5 3.1 0.3
v -0.4 2.9 0.3
v -0.4 3.1 0.3
v 0.4 2.9 0.3
v 0.4 3.1 0.3
v 0.5 2.8 0.3
v 0.5 2.9 0.3
v 0.5 3.1 0.3
v 0.9 0.4 0.3
v 0.9 0.6 0.3
v 1 0.4 0.3
v 1 0.6 0.3
v 1 2.9 0.3
v -1.2 0 0.2
v -1.2 3.1 0.2
v -1 0.4 0.2
v -1 2.9 0.2
v -0.9 0.1 0.2
v -0.9 0.2 0.2
v -0.8 0.1 0.2
v -0.8 0.2 0.2
v -0.7 3 0.2
v -0.7 3.1 0.2
v -0.6 3 0.2
v -0.6 3.1 0.2
v -0.5 2.9 0.2
v -0.5 3.1 0.2
v -0.4 2.9 0.2
v -0.4 3.1 0.2
v 1.19209e-07 0.3 0.2
v 1.19209e-07 0.4 0.2
v 0.1 0.3 0.2
v 0.1 0.4 0.2
v 0.3 0.1 0.2
v 0.3 0.2 0.2
v 0.4 0.1 0.2
v 0.4 0.2 0.2
v 0.4 2.9 0.2
v 0.4 3.1 0.2
v 0.5 2.9 0.2
v 0.5 3.1 0.2
v 0.8 0.1 0.2
v 0.8 0.2 0.2
v 0.9 0.1 0.2
v 0.9 0.2 0.2
v 0.9 0.4 0.2
v 1 0.4 0.2
v 1 0.6 0.2
v 1 2.9 0.2
v 1 3 0.2
v 1.1 2.4 0.2
v 1.1 2.5 0.2
v 1.1 2.9 0.2
v 1.1 3 0.2
v 1.2 0 0.2
v 1.2 2.4 0.2
v 1.2 2.5 0.2
v 1.2 3.1 0.2
v -1.2 0 0.1
v -1.2 3.1 0.1
v -0.9 0.1 0.1
v -0.9 0.2 0.1
v -0.8 0.1 0.1
v -0.8 0.2 0.1
v -0.7 3 0.1
v -0.7 3.1 0.1
v -0.6 3 0.1
v -0.6 3.1 0.1
v -0.4 2.9 0.1
v -0.4 3.1 0.1
v 1.19209e-07 0.3 0.1
v 1.19209e-07 0.4 0.1
v 0.1 0.3 0.1
v 0.1 0.4 0.1
v 0.3 0.1 0.1
v 0.3 0.2 0.1
v 0.4 0.1 0.1
v 0.4 0.2 0.1
v 0.4 2.9 0.1
v 0.4 3.1 0.1
v 0.8 0.1 0.1
v 0.8 0.2 0.1
v 0.9 0.1 0.1
v 0.9 0.2 0.1
v 1 2.9 0.1
v 1 3 0.1
v 1.1 2.4 0.1
v 1.1 2.5 0.1
v 1.1 2.9 0.1
v 1.1 3 0.1
v 1.2 0 0.1
v 1.2 2.4 0.1
v 1.2 2.5 0.1
v 1.2 3.1 0.1
v -1.2 0 0.2
v 1.2 0 0.2
v -1.2 0 0.1
v 1.2 0 0.1
v -1 0.4 0.3
v 0.9 0.4 0.3
v 1 0.4 0.3
v -1 0.4 0.2
v 1.19209e-07 0.4 0.2
v 0.1 0.4 0.2
v 0.9 0.4 0.2
v 1 0.4 0.2
v -1 2.9 0.3
v -0.5 2.9 0.3
v -0.4 2.9 0.3
v 0.4 2.9 0.3
v 0.5 2.9 0.3
v 1 2.9 0.3
v -1 2.9 0.2
v -0.5 2.9 0.2
v -0.4 2.9 0.2
v 0.4 2.9 0.2
v 0.5 2.9 0.2
v 1 2.9 0.2
v -0.5 3.1 0.3
v -0.4 3.1 0.3
v 0.4 3.1 0.3
v 0.5 3.1 0.3
v -1.2 3.1 0.2
v -0.7 3.1 0.2
v -0.6 3.1 0.2
v -0.5 3.1 0.2
v -0.4 3.1 0.2
v 0.4 3.1 0.2
v 0.5 3.1 0.2
v 1.2 3.1 0.2
v -1.2 3.1 0.1
v -0.7 3.1 0.1
v -0.6 3.1 0.1
v -0.4 3.1 0.1
v 0.4 3.1 0.1
v 1.2 3.1 0.1

# faces
f 3/1/1 2/1/1 1/1/1
f 4/1/1 2/1/1 3/1/1
f 7/3/1 6/3/1 5/3/1
f 8/3/1 6/3/1 7/3/1
f 11/5/1 10/5/1 9/5/1
f 12/5/1 10/5/1 11/5/1
f 15/5/1 14/5/1 13/5/1
f 16/5/1 14/5/1 15/5/1
f 17/5/2 18/5/2 19/5/2
f 19/5/2 18/5/2 20/5/2
f 21/5/2 22/5/2 23/5/2
f 23/5/2 22/5/2 24/5/2
f 25/4/2 26/4/2 27/4/2
f 27/4/2 26/4/2 28/4/2
f 27/3/2 28/3/2 29/3/2
f 29/3/2 28/3/2 30/3/2
f 31/1/2 32/1/2 33/1/2
f 33/1/2 32/1/2 34/1/2
f 33/2/2 34/2/2 35/2/2
f 35/2/2 34/2/2 36/2/2
f 35/1/2 36/1/2 37/1/2
f 37/1/2 36/1/2 38/1/2
f 41/3/3 40/3/3 39/3/3
f 42/3/3 40/3/3 41/3/3
f 43/3/3 41/3/3 39/3/3
f 43/4/3 42/4/3 41/4/3
f 44/3/3 40/3/3 42/3/3
f 44/4/3 42/4/3 43/4/3
f 45/3/3 44/3/3 43/3/3
f 45/3/3 40/3/3 44/3/3
f 46/3/3 40/3/3 45/3/3
f 48/5/3 46/5/3 45/5/3
f 48/5/3 47/5/3 46/5/3
f 49/5/3 47/5/3 48/5/3
f 50/5/3 48/5/3 45/5/3
f 52/3/3 45/3/3 43/3/3
f 52/5/3 51/5/3 50/5/3
f 52/5/3 50/5/3 45/5/3
f 53/5/3 51/5/3 52/5/3
f 54/5/3 51/5/3 53/5/3
f 55/3/3 43/3/3 39/3/3
f 55/3/3 52/3/3 43/3/3
f 55/3/3 53/3/3 52/3/3
f 56/3/3 53/3/3 55/3/3
f 57/4/3 56/4/3 55/4/3
f 58/3/3 53/3/3 56/3/3
f 58/4/3 56/4/3 57/4/3
f 59/3/3 53/3/3 58/3/3
f 62/1/3 61/1/3 60/1/3
f 63/1/3 61/1/3 62/1/3
f 64/1/3 62/1/3 60/1/3
f 65/1/3 62/1/3 64/1/3
f 66/1/3 64/1/3 60/1/3
f 66/2/3 65/2/3 64/2/3
f 67/1/3 62/1/3 65/1/3
f 67/2/3 65/2/3 66/2/3
f 68/1/3 61/1/3 63/1/3
f 69/1/3 61/1/3 68/1/3
f 70/1/3 68/1/3 63/1/3
f 70/2/3 69/2/3 68/2/3
f 71/2/3 69/2/3 70/2/3
f 72/1/3 70/1/3 63/1/3
f 72/1/3 71/1/3 70/1/3
f 73/1/3 71/1/3 72/1/3
f 76/1/3 62/1/3 67/1/3
f 76/1/3 67/1/3 66/1/3
f 77/1/3 62/1/3 76/1/3
f 78/1/3 76/1/3 66/1/3
f 78/2/3 77/2/3 76/2/3
f 79/2/3 77/2/3 78/2/3
f 80/1/3 66/1/3 60/1/3
f 80/1/3 78/1/3 66/1/3
f 80/1/3 79/1/3 78/1/3
f 81/1/3 79/1/3 80/1/3
f 82/1/3 80/1/3 60/1/3
f 82/2/3 81/2/3 80/2/3
f 83/1/3 79/1/3 81/1/3
f 83/2/3 81/2/3 82/2/3
f 84/5/3 75/5/3 74/5/3
f 85/5/3 75/5/3 84/5/3
f 88/1/3 83/1/3 82/1/3
f 88/1/3 82/1/3 60/1/3
f 89/1/3 79/1/3 83/1/3
f 89/1/3 83/1/3 88/1/3
f 90/1/3 88/1/3 60/1/3
f 90/2/3 89/2/3 88/2/3
f 91/1/3 79/1/3 89/1/3
f 91/2/3 89/2/3 90/2/3
f 92/1/3 79/1/3 91/1/3
f 93/1/3 91/1/3 90/1/3
f 93/1/3 92/1/3 91/1/3
f 95/1/3 87/1/3 86/1/3
f 96/1/3 87/1/3 95/1/3
f 97/1/3 94/1/3 93/1/3
f 97/1/3 95/1/3 94/1/3
f 98/1/3 95/1/3 97/1/3
f 99/2/3 96/2/3 95/2/3
f 99/1/3 95/1/3 98/1/3
f 100/1/3 87/1/3 96/1/3
f 100/2/3 96/2/3 99/2/3
f 101/1/3 90/1/3 60/1/3
f 101/1/3 93/1/3 90/1/3
f 101/1/3 97/1/3 93/1/3
f 102/2/3 98/2/3 97/2/3
f 102/1/3 97/1/3 101/1/3
f 103/1/3 99/1/3 98/1/3
f 103/2/3 98/2/3 102/2/3
f 103/1/3 100/1/3 99/1/3
f 104/1/3 87/1/3 100/1/3
f 104/1/3 100/1/3 103/1/3
f 105/1/4 106/1/4 107/1/4
f 107/1/4 106/1/4 108/1/4
f 105/1/4 107/1/4 109/1/4
f 107/2/4 108/2/4 109/2/4
f 108/1/4 106/1/4 110/1/4
f 109/2/4 108/2/4 110/2/4
f 109/1/4 110/1/4 111/1/4
f 110/1/4 106/1/4 111/1/4
f 111/1/4 106/1/4 112/1/4
f 109/1/4 111/1/4 113/1/4
f 111/2/4 112/2/4 113/2/4
f 113/2/4 112/2/4 114/2/4
f 109/1/4 113/1/4 115/1/4
f 113/1/4 114/1/4 115/1/4
f 115/1/4 114/1/4 116/1/4
f 109/1/4 115/1/4 117/1/4
f 117/1/4 115/1/4 118/1/4
f 109/1/4 117/1/4 119/1/4
f 117/2/4 118/2/4 119/2/4
f 118/1/4 115/1/4 120/1/4
f 119/2/4 118/2/4 120/2/4
f 105/1/4 109/1/4 121/1/4
f 109/1/4 119/1/4 121/1/4
f 119/1/4 120/1/4 121/1/4
f 121/1/4 120/1/4 122/1/4
f 105/1/4 121/1/4 123/1/4
f 121/2/4 122/2/4 123/2/4
f 122/1/4 120/1/4 124/1/4
f 123/2/4 122/2/4 124/2/4
f 120/1/4 115/1/4 125/1/4
f 124/1/4 120/1/4 125/1/4
f 115/5/4 116/5/4 125/5/4
f 125/5/4 116/5/4 126/5/4
f 123/1/4 124/1/4 127/1/4
f 105/1/4 123/1/4 127/1/4
f 125/1/4 126/1/4 127/1/4
f 124/1/4 125/1/4 127/1/4
f 127/1/4 126/1/4 128/1/4
f 105/1/4 127/1/4 129/1/4
f 127/2/4 128/2/4 129/2/4
f 128/1/4 126/1/4 130/1/4
f 129/2/4 128/2/4 130/2/4
f 129/1/4 130/1/4 131/1/4
f 130/1/4 126/1/4 131/1/4
f 131/1/4 126/1/4 132/1/4
f 129/1/4 131/1/4 133/1/4
f 133/1/4 131/1/4 134/1/4
f 131/2/4 132/2/4 135/2/4
f 134/1/4 131/1/4 135/1/4
f 132/1/4 126/1/4 136/1/4
f 135/2/4 132/2/4 136/2/4
f 105/1/4 129/1/4 137/1/4
f 129/1/4 133/1/4 137/1/4
f 133/2/4 134/2/4 138/2/4
f 137/1/4 133/1/4 138/1/4
f 134/1/4 135/1/4 139/1/4
f 138/2/4 134/2/4 139/2/4
f 135/1/4 136/1/4 139/1/4
f 136/1/4 126/1/4 140/1/4
f 139/1/4 136/1/4 140/1/4
f 143/1/5 142/1/5 141/1/5
f 144/1/5 142/1/5 143/1/5
f 148/3/5 146/3/5 145/3/5
f 149/3/5 146/3/5 148/3/5
f 150/3/5 146/3/5 149/3/5
f 151/4/5 147/4/5 146/4/5
f 151/3/5 146/3/5 150/3/5
f 152/4/5 147/4/5 151/4/5
f 153/3/6 154/3/6 159/3/6
f 159/3/6 154/3/6 160/3/6
f 155/5/6 156/5/6 161/5/6
f 161/5/6 156/5/6 162/5/6
f 157/3/6 158/3/6 163/3/6
f 163/3/6 158/3/6 164/3/6
f 165/5/6 166/5/6 172/5/6
f 172/5/6 166/5/6 173/5/6
f 167/5/6 168/5/6 174/5/6
f 174/5/6 168/5/6 175/5/6
f 169/1/6 170/1/6 177/1/6
f 170/2/6 171/2/6 178/2/6
f 177/1/6 170/1/6 178/1/6
f 172/1/6 173/1/6 179/1/6
f 178/2/6 171/2/6 179/2/6
f 171/1/6 172/1/6 179/1/6
f 173/5/6 174/5/6 180/5/6
f 179/1/6 173/1/6 180/1/6
f 175/1/6 176/1/6 181/1/6
f 180/5/6 174/5/6 181/5/6
f 174/1/6 175/1/6 181/1/6
f 181/1/6 176/1/6 182/1/6
